<svg width="170" height="110" viewBox="0 0 170 110" fill="none" xmlns="http://www.w3.org/2000/svg">
<path d="M18.6219 59.9954H40.4836L94.4715 17.8021L147.967 59.9954H169.666L94.1414 0L18.6219 59.9954Z" fill="#272727"/>
<path d="M83.4162 43.5112H75.6823V51.244H83.4162V43.5112Z" fill="#DF893F"/>
<path d="M92.9121 53.0059H85.1788V60.7386H92.9121V53.0059Z" fill="#DF893F"/>
<path d="M92.9121 43.5112H85.1788V51.244H92.9121V43.5112Z" fill="#272727"/>
<path d="M83.4162 53.0059H75.6823V60.7386H83.4162V53.0059Z" fill="#272727"/>
<path d="M0 59.9954H21.8617L75.8494 17.8035L129.345 59.9954H151.044L75.5194 0L0 59.9954Z" fill="#DF893F"/>
<path d="M16.9667 104.843C16.9667 104.024 17.1514 103.29 17.5205 102.64C17.8898 101.982 18.3914 101.468 19.0254 101.099C19.6675 100.73 20.3778 100.545 21.1563 100.545C22.0712 100.545 22.8698 100.766 23.552 101.207C24.2343 101.648 24.7318 102.274 25.0448 103.085H23.7326C23.4999 102.58 23.1628 102.19 22.7213 101.917C22.2879 101.645 21.7663 101.508 21.1563 101.508C20.5704 101.508 20.0447 101.645 19.5792 101.917C19.1137 102.19 18.7485 102.58 18.4836 103.085C18.2188 103.583 18.0864 104.168 18.0864 104.843C18.0864 105.509 18.2188 106.094 18.4836 106.6C18.7485 107.098 19.1137 107.483 19.5792 107.756C20.0447 108.028 20.5704 108.165 21.1563 108.165C21.7663 108.165 22.2879 108.032 22.7213 107.768C23.1628 107.495 23.4999 107.106 23.7326 106.6H25.0448C24.7318 107.402 24.2343 108.025 23.552 108.466C22.8698 108.899 22.0712 109.116 21.1563 109.116C20.3778 109.116 19.6675 108.935 19.0254 108.574C18.3914 108.205 17.8898 107.695 17.5205 107.045C17.1514 106.395 16.9667 105.661 16.9667 104.843ZM29.553 109.152C28.935 109.152 28.3732 109.012 27.8675 108.731C27.3699 108.449 26.9767 108.052 26.6877 107.539C26.4068 107.017 26.2664 106.415 26.2664 105.733C26.2664 105.059 26.4108 104.465 26.6998 103.952C26.9967 103.43 27.398 103.033 27.9037 102.76C28.4093 102.479 28.9751 102.339 29.6011 102.339C30.2272 102.339 30.793 102.479 31.2986 102.76C31.8043 103.033 32.2016 103.426 32.4905 103.94C32.7874 104.453 32.9359 105.051 32.9359 105.733C32.9359 106.415 32.7834 107.017 32.4784 107.539C32.1814 108.052 31.7762 108.449 31.2625 108.731C30.7488 109.012 30.179 109.152 29.553 109.152ZM29.553 108.189C29.9462 108.189 30.3154 108.097 30.6606 107.912C31.0057 107.727 31.2826 107.45 31.4913 107.081C31.708 106.713 31.8163 106.263 31.8163 105.733C31.8163 105.204 31.7119 104.754 31.5033 104.385C31.2946 104.016 31.0217 103.743 30.6846 103.567C30.3476 103.382 29.9824 103.29 29.5891 103.29C29.1878 103.29 28.8186 103.382 28.4815 103.567C28.1524 103.743 27.8876 104.016 27.687 104.385C27.4863 104.754 27.386 105.204 27.386 105.733C27.386 106.271 27.4823 106.725 27.6749 107.093C27.8755 107.462 28.1404 107.739 28.4695 107.924C28.7985 108.1 29.1597 108.189 29.553 108.189ZM37.5907 102.327C38.3933 102.327 39.0434 102.572 39.541 103.061C40.0387 103.542 40.2874 104.241 40.2874 105.155V109.044H39.2039V105.312C39.2039 104.654 39.0394 104.152 38.7104 103.807C38.3813 103.454 37.9319 103.278 37.362 103.278C36.7841 103.278 36.3226 103.458 35.9775 103.819C35.6404 104.18 35.4719 104.706 35.4719 105.396V109.044H34.3763V102.447H35.4719V103.386C35.6886 103.049 35.9816 102.788 36.3507 102.604C36.728 102.419 37.1413 102.327 37.5907 102.327ZM44.4125 109.152C43.9069 109.152 43.4535 109.068 43.0522 108.899C42.6509 108.723 42.3339 108.482 42.1011 108.177C41.8684 107.864 41.7399 107.507 41.7158 107.106H42.8475C42.8796 107.435 43.0321 107.703 43.305 107.912C43.5859 108.121 43.9511 108.225 44.4005 108.225C44.8179 108.225 45.1469 108.133 45.3877 107.948C45.6285 107.763 45.7489 107.531 45.7489 107.25C45.7489 106.961 45.6205 106.749 45.3636 106.612C45.1068 106.468 44.7096 106.327 44.1718 106.191C43.6822 106.063 43.2809 105.934 42.9679 105.805C42.6629 105.669 42.3981 105.473 42.1733 105.216C41.9566 104.951 41.8483 104.606 41.8483 104.18C41.8483 103.843 41.9486 103.535 42.1492 103.254C42.3499 102.972 42.6348 102.752 43.004 102.592C43.3732 102.423 43.7946 102.339 44.2681 102.339C44.9985 102.339 45.5884 102.524 46.0378 102.892C46.4873 103.261 46.7281 103.767 46.7601 104.409H45.6646C45.6405 104.064 45.5001 103.787 45.2432 103.579C44.9944 103.37 44.6574 103.266 44.232 103.266C43.8387 103.266 43.5257 103.35 43.2929 103.518C43.0602 103.687 42.9438 103.908 42.9438 104.18C42.9438 104.397 43.0121 104.578 43.1485 104.722C43.2929 104.859 43.4695 104.971 43.6782 105.059C43.8949 105.139 44.1919 105.232 44.5691 105.336C45.0426 105.464 45.4279 105.593 45.7248 105.721C46.0218 105.842 46.2746 106.026 46.4832 106.275C46.6999 106.523 46.8123 106.848 46.8203 107.25C46.8203 107.611 46.7201 107.936 46.5194 108.225C46.3187 108.514 46.0338 108.743 45.6646 108.911C45.3034 109.072 44.8861 109.152 44.4125 109.152ZM54.2178 102.447V109.044H53.1223V108.069C52.9136 108.406 52.6206 108.67 52.2434 108.863C51.8742 109.048 51.4649 109.14 51.0155 109.14C50.5018 109.14 50.0403 109.036 49.631 108.827C49.2217 108.61 48.8966 108.289 48.6558 107.864C48.4231 107.438 48.3067 106.921 48.3067 106.311V102.447H49.3902V106.167C49.3902 106.817 49.5547 107.318 49.8838 107.671C50.2128 108.016 50.6623 108.189 51.2322 108.189C51.818 108.189 52.2796 108.008 52.6166 107.647C52.9537 107.286 53.1223 106.761 53.1223 106.07V102.447H54.2178ZM57.1631 100.136V109.044H56.0676V100.136H57.1631ZM60.3666 103.35V107.238C60.3666 107.559 60.4348 107.787 60.5712 107.924C60.7076 108.052 60.9444 108.117 61.2815 108.117H62.0881V109.044H61.101C60.4909 109.044 60.0335 108.903 59.7285 108.622C59.4235 108.341 59.271 107.88 59.271 107.238V103.35H58.4163V102.447H59.271V100.786H60.3666V102.447H62.0881V103.35H60.3666ZM66.2926 109.152C65.6751 109.152 65.1128 109.012 64.6072 108.731C64.1098 108.449 63.7165 108.052 63.4276 107.539C63.1466 107.017 63.0062 106.415 63.0062 105.733C63.0062 105.059 63.1507 104.465 63.4396 103.952C63.7366 103.43 64.1379 103.033 64.6433 102.76C65.1489 102.479 65.7148 102.339 66.3408 102.339C66.9668 102.339 67.5326 102.479 68.0383 102.76C68.5439 103.033 68.9412 103.426 69.2301 103.94C69.5276 104.453 69.6756 105.051 69.6756 105.733C69.6756 106.415 69.5233 107.017 69.2181 107.539C68.9214 108.052 68.5163 108.449 68.0022 108.731C67.4887 109.012 66.9187 109.152 66.2926 109.152ZM66.2926 108.189C66.6864 108.189 67.0553 108.097 67.4002 107.912C67.7458 107.727 68.0227 107.45 68.2309 107.081C68.4476 106.713 68.5559 106.263 68.5559 105.733C68.5559 105.204 68.4518 104.754 68.2429 104.385C68.0347 104.016 67.7614 103.743 67.4243 103.567C67.0872 103.382 66.7225 103.29 66.3288 103.29C65.9279 103.29 65.5583 103.382 65.2212 103.567C64.8926 103.743 64.6277 104.016 64.4268 104.385C64.2261 104.754 64.1258 105.204 64.1258 105.733C64.1258 106.271 64.2221 106.725 64.4148 107.093C64.6157 107.462 64.8805 107.739 65.2091 107.924C65.5384 108.1 65.8996 108.189 66.2926 108.189ZM72.2115 103.518C72.4041 103.141 72.6775 102.849 73.0302 102.64C73.3913 102.431 73.829 102.327 74.3424 102.327V103.458H74.0535C72.8255 103.458 72.2115 104.125 72.2115 105.456V109.044H71.116V102.447H72.2115V103.518ZM76.173 101.376C75.9641 101.376 75.7878 101.304 75.6433 101.159C75.4989 101.015 75.4266 100.838 75.4266 100.629C75.4266 100.421 75.4989 100.244 75.6433 100.1C75.7878 99.9554 75.9641 99.8832 76.173 99.8832C76.3735 99.8832 76.542 99.9554 76.6787 100.1C76.8231 100.244 76.8954 100.421 76.8954 100.629C76.8954 100.838 76.8231 101.015 76.6787 101.159C76.542 101.304 76.3735 101.376 76.173 101.376ZM76.7027 102.447V109.044H75.6072V102.447H76.7027ZM78.1609 105.721C78.1609 105.047 78.2968 104.457 78.5702 103.952C78.8428 103.438 79.216 103.041 79.6898 102.76C80.1714 102.479 80.7046 102.339 81.291 102.339C81.8689 102.339 82.3702 102.463 82.7959 102.712C83.2207 102.96 83.538 103.273 83.7469 103.651V102.447H84.8545V109.044H83.7469V107.816C83.5302 108.201 83.2052 108.522 82.7718 108.779C82.3462 109.027 81.8483 109.152 81.2789 109.152C80.6926 109.152 80.1629 109.007 79.6898 108.719C79.216 108.43 78.8428 108.025 78.5702 107.503C78.2968 106.981 78.1609 106.388 78.1609 105.721ZM83.7469 105.733C83.7469 105.235 83.6464 104.802 83.446 104.433C83.2448 104.064 82.9722 103.783 82.6273 103.591C82.2902 103.39 81.917 103.29 81.5077 103.29C81.0984 103.29 80.7252 103.386 80.3881 103.579C80.051 103.771 79.7819 104.052 79.5815 104.421C79.3803 104.79 79.2805 105.223 79.2805 105.721C79.2805 106.227 79.3803 106.668 79.5815 107.045C79.7819 107.414 80.051 107.7 80.3881 107.9C80.7252 108.093 81.0984 108.189 81.5077 108.189C81.917 108.189 82.2902 108.093 82.6273 107.9C82.9722 107.7 83.2448 107.414 83.446 107.045C83.6464 106.668 83.7469 106.231 83.7469 105.733ZM91.0106 100.654V109.044H89.9151V100.654H91.0106ZM100.812 102.327C101.325 102.327 101.783 102.435 102.184 102.652C102.585 102.861 102.902 103.177 103.135 103.603C103.368 104.028 103.484 104.546 103.484 105.155V109.044H102.401V105.312C102.401 104.654 102.236 104.152 101.907 103.807C101.586 103.454 101.149 103.278 100.595 103.278C100.025 103.278 99.5717 103.462 99.2346 103.831C98.8975 104.193 98.729 104.718 98.729 105.408V109.044H97.6455V105.312C97.6455 104.654 97.4805 104.152 97.1519 103.807C96.8304 103.454 96.3934 103.278 95.8397 103.278C95.2696 103.278 94.8163 103.462 94.4793 103.831C94.1422 104.193 93.9736 104.718 93.9736 105.408V109.044H92.8781V102.447H93.9736V103.398C94.1903 103.053 94.4793 102.788 94.8404 102.604C95.2094 102.419 95.6145 102.327 96.0564 102.327C96.6101 102.327 97.0995 102.451 97.5251 102.7C97.95 102.948 98.2673 103.314 98.4762 103.795C98.6603 103.33 98.9655 102.969 99.3911 102.712C99.816 102.455 100.29 102.327 100.812 102.327ZM108.158 109.152C107.541 109.152 106.978 109.012 106.473 108.731C105.976 108.449 105.582 108.052 105.293 107.539C105.013 107.017 104.872 106.415 104.872 105.733C104.872 105.059 105.016 104.465 105.305 103.952C105.603 103.43 106.003 103.033 106.509 102.76C107.015 102.479 107.58 102.339 108.206 102.339C108.832 102.339 109.398 102.479 109.904 102.76C110.41 103.033 110.807 103.426 111.096 103.94C111.393 104.453 111.541 105.051 111.541 105.733C111.541 106.415 111.389 107.017 111.084 107.539C110.787 108.052 110.382 108.449 109.868 108.731C109.354 109.012 108.784 109.152 108.158 109.152ZM108.158 108.189C108.552 108.189 108.921 108.097 109.266 107.912C109.611 107.727 109.888 107.45 110.097 107.081C110.313 106.713 110.422 106.263 110.422 105.733C110.422 105.204 110.318 104.754 110.109 104.385C109.9 104.016 109.627 103.743 109.29 103.567C108.953 103.382 108.588 103.29 108.194 103.29C107.794 103.29 107.424 103.382 107.087 103.567C106.758 103.743 106.493 104.016 106.292 104.385C106.092 104.754 105.991 105.204 105.991 105.733C105.991 106.271 106.088 106.725 106.28 107.093C106.481 107.462 106.746 107.739 107.075 107.924C107.404 108.1 107.765 108.189 108.158 108.189ZM114.077 103.675C114.302 103.282 114.631 102.96 115.064 102.712C115.498 102.463 115.991 102.339 116.545 102.339C117.139 102.339 117.673 102.479 118.146 102.76C118.62 103.041 118.993 103.438 119.266 103.952C119.539 104.457 119.675 105.047 119.675 105.721C119.675 106.388 119.539 106.981 119.266 107.503C118.993 108.025 118.616 108.43 118.134 108.719C117.661 109.007 117.132 109.152 116.545 109.152C115.976 109.152 115.474 109.027 115.04 108.779C114.615 108.53 114.294 108.213 114.077 107.828V109.044H112.982V100.136H114.077V103.675ZM118.556 105.721C118.556 105.223 118.456 104.79 118.255 104.421C118.054 104.052 117.782 103.771 117.436 103.579C117.099 103.386 116.726 103.29 116.316 103.29C115.916 103.29 115.542 103.39 115.197 103.591C114.86 103.783 114.587 104.068 114.378 104.445C114.178 104.814 114.077 105.244 114.077 105.733C114.077 106.231 114.178 106.668 114.378 107.045C114.587 107.414 114.86 107.7 115.197 107.9C115.542 108.093 115.916 108.189 116.316 108.189C116.726 108.189 117.099 108.093 117.436 107.9C117.782 107.7 118.054 107.414 118.255 107.045C118.456 106.668 118.556 106.227 118.556 105.721ZM121.684 101.376C121.475 101.376 121.298 101.304 121.154 101.159C121.009 101.015 120.937 100.838 120.937 100.629C120.937 100.421 121.009 100.244 121.154 100.1C121.298 99.9554 121.475 99.8832 121.684 99.8832C121.884 99.8832 122.053 99.9554 122.189 100.1C122.334 100.244 122.406 100.421 122.406 100.629C122.406 100.838 122.334 101.015 122.189 101.159C122.053 101.304 121.884 101.376 121.684 101.376ZM122.213 102.447V109.044H121.118V102.447H122.213ZM125.176 100.136V109.044H124.08V100.136H125.176ZM127.609 101.376C127.4 101.376 127.224 101.304 127.079 101.159C126.935 101.015 126.863 100.838 126.863 100.629C126.863 100.421 126.935 100.244 127.079 100.1C127.224 99.9554 127.4 99.8832 127.609 99.8832C127.809 99.8832 127.978 99.9554 128.115 100.1C128.259 100.244 128.331 100.421 128.331 100.629C128.331 100.838 128.259 101.015 128.115 101.159C127.978 101.304 127.809 101.376 127.609 101.376ZM128.139 102.447V109.044H127.043V102.447H128.139ZM129.597 105.721C129.597 105.047 129.733 104.457 130.006 103.952C130.279 103.438 130.652 103.041 131.126 102.76C131.607 102.479 132.141 102.339 132.727 102.339C133.305 102.339 133.806 102.463 134.232 102.712C134.657 102.96 134.974 103.273 135.183 103.651V102.447H136.29V109.044H135.183V107.816C134.966 108.201 134.641 108.522 134.208 108.779C133.782 109.027 133.284 109.152 132.715 109.152C132.128 109.152 131.599 109.007 131.126 108.719C130.652 108.43 130.279 108.025 130.006 107.503C129.733 106.981 129.597 106.388 129.597 105.721ZM135.183 105.733C135.183 105.235 135.082 104.802 134.882 104.433C134.681 104.064 134.408 103.783 134.063 103.591C133.726 103.39 133.353 103.29 132.944 103.29C132.534 103.29 132.161 103.386 131.824 103.579C131.487 103.771 131.218 104.052 131.017 104.421C130.816 104.79 130.716 105.223 130.716 105.721C130.716 106.227 130.816 106.668 131.017 107.045C131.218 107.414 131.487 107.7 131.824 107.9C132.161 108.093 132.534 108.189 132.944 108.189C133.353 108.189 133.726 108.093 134.063 107.9C134.408 107.7 134.681 107.414 134.882 107.045C135.082 106.668 135.183 106.231 135.183 105.733ZM134.328 100.581L131.764 101.954V101.135L134.328 99.6304V100.581ZM139.237 103.518C139.43 103.141 139.702 102.849 140.056 102.64C140.417 102.431 140.854 102.327 141.368 102.327V103.458H141.079C139.851 103.458 139.237 104.125 139.237 105.456V109.044H138.142V102.447H139.237V103.518ZM143.199 101.376C142.99 101.376 142.813 101.304 142.669 101.159C142.524 101.015 142.452 100.838 142.452 100.629C142.452 100.421 142.524 100.244 142.669 100.1C142.813 99.9554 142.99 99.8832 143.199 99.8832C143.399 99.8832 143.568 99.9554 143.704 100.1C143.849 100.244 143.921 100.421 143.921 100.629C143.921 100.838 143.849 101.015 143.704 101.159C143.568 101.304 143.399 101.376 143.199 101.376ZM143.728 102.447V109.044H142.633V102.447H143.728ZM145.186 105.721C145.186 105.047 145.322 104.457 145.595 103.952C145.868 103.438 146.242 103.041 146.715 102.76C147.196 102.479 147.73 102.339 148.316 102.339C148.894 102.339 149.396 102.463 149.821 102.712C150.246 102.96 150.564 103.273 150.772 103.651V102.447H151.879V109.044H150.772V107.816C150.555 108.201 150.23 108.522 149.797 108.779C149.372 109.027 148.874 109.152 148.304 109.152C147.718 109.152 147.188 109.007 146.715 108.719C146.242 108.43 145.868 108.025 145.595 107.503C145.322 106.981 145.186 106.388 145.186 105.721ZM150.772 105.733C150.772 105.235 150.672 104.802 150.471 104.433C150.27 104.064 149.998 103.783 149.652 103.591C149.315 103.39 148.942 103.29 148.533 103.29C148.123 103.29 147.75 103.386 147.413 103.579C147.076 103.771 146.807 104.052 146.606 104.421C146.406 104.79 146.305 105.223 146.305 105.721C146.305 106.227 146.406 106.668 146.606 107.045C146.807 107.414 147.076 107.7 147.413 107.9C147.75 108.093 148.123 108.189 148.533 108.189C148.942 108.189 149.315 108.093 149.652 107.9C149.998 107.7 150.27 107.414 150.471 107.045C150.672 106.668 150.772 106.231 150.772 105.733Z" fill="#272727"/>
<path d="M6.40109 77.04V81.3295H11.0779V82.7102H6.40109V87.1286H11.6302V88.5094H4.72556V75.6592H11.6302V77.04H6.40109ZM15.8411 74.886V88.5094H14.1655V74.886H15.8411ZM19.5621 76.7822C19.2429 76.7822 18.9729 76.6718 18.7519 76.4509C18.531 76.2299 18.4205 75.9602 18.4205 75.6408C18.4205 75.3215 18.531 75.0517 18.7519 74.8308C18.9729 74.6099 19.2429 74.4994 19.5621 74.4994C19.8689 74.4994 20.1267 74.6099 20.3354 74.8308C20.5564 75.0517 20.6668 75.3215 20.6668 75.6408C20.6668 75.9602 20.5564 76.2299 20.3354 76.4509C20.1267 76.6718 19.8689 76.7822 19.5621 76.7822ZM20.3722 78.4207V88.5094H18.6967V78.4207H20.3722ZM26.8 88.6751C26.0266 88.6751 25.3331 88.5462 24.7194 88.2884C24.1056 88.0187 23.6207 87.6505 23.2648 87.1838C22.9088 86.7052 22.7124 86.1593 22.6756 85.5454H24.4063C24.4554 86.0488 24.6886 86.4595 25.106 86.7788C25.5356 87.0982 26.0941 87.2575 26.7815 87.2575C27.4198 87.2575 27.9231 87.1166 28.2914 86.8341C28.6596 86.5515 28.8437 86.1961 28.8437 85.7663C28.8437 85.3244 28.6473 84.9994 28.2545 84.7906C27.8617 84.5696 27.2541 84.3551 26.4317 84.1462C25.6829 83.9501 25.0692 83.7532 24.5905 83.5571C24.124 83.3482 23.7189 83.048 23.3752 82.655C23.0438 82.25 22.8781 81.7225 22.8781 81.0718C22.8781 80.5563 23.0315 80.084 23.3384 79.6542C23.6453 79.2244 24.081 78.8873 24.6457 78.6416C25.2103 78.3839 25.8548 78.255 26.579 78.255C27.696 78.255 28.5982 78.5375 29.2856 79.1019C29.973 79.6662 30.3412 80.4394 30.3904 81.4215H28.7149C28.678 80.894 28.4632 80.4706 28.0704 80.1513C27.6898 79.8319 27.1743 79.6726 26.5238 79.6726C25.9223 79.6726 25.4435 79.8015 25.0876 80.0592C24.7316 80.3169 24.5536 80.6547 24.5536 81.0718C24.5536 81.4031 24.658 81.6793 24.8667 81.9002C25.0876 82.1091 25.3576 82.2804 25.6768 82.4157C26.0082 82.5382 26.4624 82.6798 27.0393 82.8391C27.7635 83.0352 28.3527 83.2321 28.8069 83.4282C29.2611 83.6123 29.6477 83.8948 29.9669 84.2751C30.2983 84.6553 30.4701 85.1524 30.4824 85.7663C30.4824 86.3186 30.329 86.8157 30.0221 87.2575C29.7152 87.6993 29.2795 88.0491 28.7149 88.3069C28.1625 88.5526 27.5241 88.6751 26.8 88.6751ZM32.2216 83.4282C32.2216 82.3973 32.4303 81.4952 32.8477 80.722C33.2651 79.9367 33.8359 79.3292 34.56 78.8994C35.2965 78.4696 36.1128 78.255 37.0089 78.255C37.8927 78.255 38.6599 78.4455 39.3104 78.8257C39.961 79.206 40.4459 79.6846 40.765 80.2617V78.4207H42.459V88.5094H40.765V86.6316C40.4336 87.2207 39.9365 87.7114 39.2736 88.1043C38.6231 88.4846 37.862 88.6751 36.9905 88.6751C36.0944 88.6751 35.2843 88.4541 34.56 88.0123C33.8359 87.5705 33.2651 86.9509 32.8477 86.1529C32.4303 85.3549 32.2216 84.4471 32.2216 83.4282ZM40.765 83.4466C40.765 82.6855 40.6116 82.0227 40.3047 81.4584C39.9979 80.894 39.5805 80.4642 39.0527 80.1697C38.5371 79.8631 37.9663 79.7094 37.3403 79.7094C36.7143 79.7094 36.1435 79.8567 35.6279 80.1513C35.1124 80.4458 34.7012 80.8756 34.3943 81.4399C34.0875 82.0043 33.934 82.667 33.934 83.4282C33.934 84.2014 34.0875 84.8762 34.3943 85.4533C34.7012 86.0176 35.1124 86.4538 35.6279 86.7604C36.1435 87.055 36.7143 87.2023 37.3403 87.2023C37.9663 87.2023 38.5371 87.055 39.0527 86.7604C39.5805 86.4538 39.9979 86.0176 40.3047 85.4533C40.6116 84.8762 40.765 84.2078 40.765 83.4466ZM50.2066 78.2366C51.4341 78.2366 52.4284 78.6112 53.1894 79.3596C53.9505 80.096 54.331 81.1638 54.331 82.563V88.5094H52.6738V82.8023C52.6738 81.7961 52.4222 81.0286 51.9189 80.501C51.4157 79.9608 50.7283 79.691 49.8567 79.691C48.9729 79.691 48.2672 79.9672 47.7393 80.5195C47.2238 81.0718 46.966 81.8754 46.966 82.9312V88.5094H45.2905V78.4207H46.966V79.8567C47.2974 79.3412 47.7455 78.9426 48.3101 78.66C48.887 78.3775 49.5192 78.2366 50.2066 78.2366ZM61.2292 78.255C62.1007 78.255 62.8617 78.4455 63.5123 78.8257C64.1752 79.206 64.6659 79.6846 64.9853 80.2617V78.4207H66.6793V88.7303C66.6793 89.6508 66.4831 90.4672 66.0901 91.1788C65.697 91.9032 65.1326 92.4675 64.3961 92.8725C63.6719 93.2775 62.8249 93.4801 61.8552 93.4801C60.5295 93.4801 59.4248 93.1671 58.541 92.5411C57.6572 91.9152 57.1355 91.062 56.9759 89.9822H58.633C58.8172 90.5961 59.1977 91.0868 59.7746 91.455C60.3516 91.8352 61.0451 92.0257 61.8552 92.0257C62.7758 92.0257 63.5246 91.7375 64.1015 91.1604C64.6907 90.5833 64.9853 89.7733 64.9853 88.7303V86.6131C64.6539 87.2023 64.1629 87.693 63.5123 88.0859C62.8617 88.4789 62.1007 88.6751 61.2292 88.6751C60.3331 88.6751 59.5168 88.4541 58.7803 88.0123C58.0561 87.5705 57.4853 86.9509 57.068 86.1529C56.6507 85.3549 56.442 84.4471 56.442 83.4282C56.442 82.3973 56.6507 81.4952 57.068 80.722C57.4853 79.9367 58.0561 79.3292 58.7803 78.8994C59.5168 78.4696 60.3331 78.255 61.2292 78.255ZM64.9853 83.4466C64.9853 82.6855 64.8317 82.0227 64.525 81.4584C64.2182 80.894 63.8008 80.4642 63.273 80.1697C62.7574 79.8631 62.1866 79.7094 61.5606 79.7094C60.9346 79.7094 60.3638 79.8567 59.8483 80.1513C59.3327 80.4458 58.9215 80.8756 58.6146 81.4399C58.3078 82.0043 58.1543 82.667 58.1543 83.4282C58.1543 84.2014 58.3078 84.8762 58.6146 85.4533C58.9215 86.0176 59.3327 86.4538 59.8483 86.7604C60.3638 87.055 60.9346 87.2023 61.5606 87.2023C62.1866 87.2023 62.7574 87.055 63.273 86.7604C63.8008 86.4538 64.2182 86.0176 64.525 85.4533C64.8317 84.8762 64.9853 84.2078 64.9853 83.4466ZM78.7168 83.0784C78.7168 83.3978 78.6984 83.7348 78.6615 84.091H70.5969C70.6585 85.0851 70.9963 85.8647 71.6096 86.429C72.2356 86.9813 72.9905 87.2575 73.8743 87.2575C74.5988 87.2575 75.2 87.0918 75.6787 86.7604C76.1702 86.417 76.5136 85.9624 76.7098 85.3981H78.5142C78.2444 86.3674 77.7041 87.1591 76.8939 87.773C76.0838 88.3741 75.0775 88.6751 73.8743 88.6751C72.9168 88.6751 72.0578 88.4605 71.2966 88.0307C70.548 87.6009 69.9588 86.9934 69.529 86.2081C69.0998 85.4101 68.8845 84.4896 68.8845 83.4466C68.8845 82.4036 69.0934 81.4888 69.5105 80.7035C69.9284 79.9183 70.5112 79.3164 71.2597 78.8994C72.021 78.4696 72.8928 78.255 73.8743 78.255C74.8317 78.255 75.6787 78.4639 76.4152 78.881C77.1517 79.298 77.7168 79.8751 78.1092 80.6115C78.5142 81.3359 78.7168 82.1579 78.7168 83.0784ZM76.986 82.7286C76.986 82.0907 76.8451 81.544 76.5625 81.0902C76.2807 80.6235 75.894 80.2738 75.4025 80.0408C74.9238 79.7951 74.3898 79.6726 73.8006 79.6726C72.9537 79.6726 72.2299 79.9424 71.628 80.4826C71.0388 81.0229 70.7017 81.7713 70.6153 82.7286H76.986ZM82.6039 74.886V88.5094H80.9284V74.886H82.6039ZM84.834 83.4282C84.834 82.3973 85.0422 81.4952 85.46 80.722C85.8771 79.9367 86.4479 79.3292 87.1723 78.8994C87.9088 78.4696 88.7246 78.255 89.6212 78.255C90.505 78.255 91.2719 78.4455 91.9227 78.8257C92.5728 79.206 93.0579 79.6846 93.3773 80.2617V78.4207H95.0713V88.5094H93.3773V86.6316C93.0459 87.2207 92.5488 87.7114 91.8859 88.1043C91.2351 88.4846 90.4738 88.6751 89.6028 88.6751C88.7062 88.6751 87.8961 88.4541 87.1723 88.0123C86.4479 87.5705 85.8771 86.9509 85.46 86.1529C85.0422 85.3549 84.834 84.4471 84.834 83.4282ZM93.3773 83.4466C93.3773 82.6855 93.2237 82.0227 92.917 81.4584C92.6097 80.894 92.1926 80.4642 91.665 80.1697C91.1494 79.8631 90.5786 79.7094 89.9526 79.7094C89.3266 79.7094 88.7558 79.8567 88.2403 80.1513C87.7247 80.4458 87.3133 80.8756 87.0066 81.4399C86.6993 82.0043 86.5463 82.667 86.5463 83.4282C86.5463 84.2014 86.6993 84.8762 87.0066 85.4533C87.3133 86.0176 87.7247 86.4538 88.2403 86.7604C88.7558 87.055 89.3266 87.2023 89.9526 87.2023C90.5786 87.2023 91.1494 87.055 91.665 86.7604C92.1926 86.4538 92.6097 86.0176 92.917 85.4533C93.2237 84.8762 93.3773 84.2078 93.3773 83.4466ZM109.238 81.9002C109.704 81.9738 110.127 82.1643 110.508 82.4709C110.9 82.7775 111.208 83.1584 111.429 83.6123C111.662 84.0662 111.778 84.5512 111.778 85.0667C111.778 85.7174 111.613 86.3065 111.281 86.8341C110.95 87.3495 110.465 87.7609 109.827 88.0675C109.201 88.3621 108.458 88.5094 107.599 88.5094H102.812V75.6776H107.415C108.286 75.6776 109.029 75.8249 109.643 76.1195C110.256 76.402 110.716 76.7886 111.024 77.2793C111.33 77.77 111.484 78.3223 111.484 78.9362C111.484 79.6974 111.275 80.329 110.858 80.8324C110.453 81.3231 109.912 81.6793 109.238 81.9002ZM104.487 81.219H107.304C108.09 81.219 108.697 81.0349 109.127 80.6667C109.556 80.2985 109.771 79.7894 109.771 79.1387C109.771 78.488 109.556 77.9789 109.127 77.6107C108.697 77.2425 108.078 77.0584 107.267 77.0584H104.487V81.219ZM107.452 87.1286C108.286 87.1286 108.937 86.9325 109.403 86.5395C109.869 86.1465 110.103 85.6006 110.103 84.901C110.103 84.1894 109.857 83.6307 109.366 83.2257C108.875 82.8087 108.218 82.5998 107.396 82.5998H104.487V87.1286H107.452ZM115.779 80.0592C116.074 79.4821 116.491 79.0346 117.031 78.7153C117.583 78.3959 118.253 78.2366 119.038 78.2366V79.9672H118.596C116.718 79.9672 115.779 80.9861 115.779 83.0232V88.5094H114.103V78.4207H115.779V80.0592ZM122.647 78.4207V88.5094H120.972V78.4207H122.647ZM123.605 75.5672L119.683 77.6659V76.414L123.605 74.1128V75.5672ZM129.665 78.255C130.536 78.255 131.297 78.4455 131.948 78.8257C132.611 79.206 133.101 79.6846 133.421 80.2617V78.4207H135.115V88.7303C135.115 89.6508 134.918 90.4672 134.526 91.1788C134.133 91.9032 133.568 92.4675 132.832 92.8725C132.107 93.2775 131.26 93.4801 130.291 93.4801C128.965 93.4801 127.86 93.1671 126.977 92.5411C126.093 91.9152 125.571 91.062 125.411 89.9822H127.069C127.253 90.5961 127.633 91.0868 128.21 91.455C128.787 91.8352 129.481 92.0257 130.291 92.0257C131.211 92.0257 131.96 91.7375 132.537 91.1604C133.126 90.5833 133.421 89.7733 133.421 88.7303V86.6131C133.089 87.2023 132.598 87.693 131.948 88.0859C131.297 88.4789 130.536 88.6751 129.665 88.6751C128.768 88.6751 127.952 88.4541 127.216 88.0123C126.491 87.5705 125.921 86.9509 125.504 86.1529C125.086 85.3549 124.877 84.4471 124.877 83.4282C124.877 82.3973 125.086 81.4952 125.504 80.722C125.921 79.9367 126.491 79.3292 127.216 78.8994C127.952 78.4696 128.768 78.255 129.665 78.255ZM133.421 83.4466C133.421 82.6855 133.267 82.0227 132.961 81.4584C132.653 80.894 132.236 80.4642 131.709 80.1697C131.193 79.8631 130.622 79.7094 129.996 79.7094C129.37 79.7094 128.799 79.8567 128.284 80.1513C127.768 80.4458 127.357 80.8756 127.05 81.4399C126.743 82.0043 126.59 82.667 126.59 83.4282C126.59 84.2014 126.743 84.8762 127.05 85.4533C127.357 86.0176 127.768 86.4538 128.284 86.7604C128.799 87.055 129.37 87.2023 129.996 87.2023C130.622 87.2023 131.193 87.055 131.709 86.7604C132.236 86.4538 132.653 86.0176 132.961 85.4533C133.267 84.8762 133.421 84.2078 133.421 83.4466ZM138.811 76.7822C138.492 76.7822 138.222 76.6718 138.001 76.4509C137.78 76.2299 137.67 75.9602 137.67 75.6408C137.67 75.3215 137.78 75.0517 138.001 74.8308C138.222 74.6099 138.492 74.4994 138.811 74.4994C139.118 74.4994 139.376 74.6099 139.585 74.8308C139.806 75.0517 139.916 75.3215 139.916 75.6408C139.916 75.9602 139.806 76.2299 139.585 76.4509C139.376 76.6718 139.118 76.7822 138.811 76.7822ZM139.622 78.4207V88.5094H137.946V78.4207H139.622ZM141.851 83.4282C141.851 82.3973 142.06 81.4952 142.477 80.722C142.895 79.9367 143.466 79.3292 144.189 78.8994C144.926 78.4696 145.749 78.255 146.657 78.255C147.443 78.255 148.173 78.4391 148.848 78.8073C149.523 79.1635 150.039 79.6358 150.394 80.2249V74.886H152.088V88.5094H150.394V86.6131C150.063 87.2143 149.572 87.7114 148.921 88.1043C148.271 88.4846 147.51 88.6751 146.638 88.6751C145.742 88.6751 144.926 88.4541 144.189 88.0123C143.466 87.5705 142.895 86.9509 142.477 86.1529C142.06 85.3549 141.851 84.4471 141.851 83.4282ZM150.394 83.4466C150.394 82.6855 150.241 82.0227 149.934 81.4584C149.627 80.894 149.21 80.4642 148.682 80.1697C148.166 79.8631 147.596 79.7094 146.97 79.7094C146.344 79.7094 145.773 79.8567 145.257 80.1513C144.742 80.4458 144.331 80.8756 144.024 81.4399C143.717 82.0043 143.563 82.667 143.563 83.4282C143.563 84.2014 143.717 84.8762 144.024 85.4533C144.331 86.0176 144.742 86.4538 145.257 86.7604C145.773 87.055 146.344 87.2023 146.97 87.2023C147.596 87.2023 148.166 87.055 148.682 86.7604C149.21 86.4538 149.627 86.0176 149.934 85.4533C150.241 84.8762 150.394 84.2078 150.394 83.4466ZM154.294 83.4282C154.294 82.3973 154.502 81.4952 154.92 80.722C155.337 79.9367 155.908 79.3292 156.633 78.8994C157.369 78.4696 158.185 78.255 159.081 78.255C159.965 78.255 160.732 78.4455 161.383 78.8257C162.033 79.206 162.518 79.6846 162.838 80.2617V78.4207H164.532V88.5094H162.838V86.6316C162.506 87.2207 162.009 87.7114 161.346 88.1043C160.695 88.4846 159.934 88.6751 159.063 88.6751C158.166 88.6751 157.356 88.4541 156.633 88.0123C155.908 87.5705 155.337 86.9509 154.92 86.1529C154.502 85.3549 154.294 84.4471 154.294 83.4282ZM162.838 83.4466C162.838 82.6855 162.684 82.0227 162.377 81.4584C162.07 80.894 161.653 80.4642 161.125 80.1697C160.61 79.8631 160.039 79.7094 159.413 79.7094C158.787 79.7094 158.216 79.8567 157.701 80.1513C157.185 80.4458 156.774 80.8756 156.467 81.4399C156.16 82.0043 156.007 82.667 156.007 83.4282C156.007 84.2014 156.16 84.8762 156.467 85.4533C156.774 86.0176 157.185 86.4538 157.701 86.7604C158.216 87.055 158.787 87.2023 159.413 87.2023C160.039 87.2023 160.61 87.055 161.125 86.7604C161.653 86.4538 162.07 86.0176 162.377 85.4533C162.684 84.8762 162.838 84.2078 162.838 83.4466Z" fill="#272727"/>
</svg>
