<svg width="160" height="36" viewBox="0 0 160 36" fill="none" xmlns="http://www.w3.org/2000/svg">
<path d="M12.2412 30.7297C12.2412 29.9112 12.4258 29.1769 12.795 28.5269C13.1642 27.8691 13.6658 27.355 14.2999 26.9861C14.942 26.6172 15.6523 26.4324 16.4308 26.4324C17.3457 26.4324 18.1443 26.6533 18.8265 27.0945C19.5087 27.5356 20.0063 28.1615 20.3193 28.9723H19.0071C18.7744 28.4667 18.4373 28.0773 17.9958 27.8047C17.5624 27.5321 17.0408 27.3954 16.4308 27.3954C15.8449 27.3954 15.3192 27.5321 14.8537 27.8047C14.3882 28.0773 14.023 28.4667 13.7581 28.9723C13.4933 29.4701 13.3608 30.0556 13.3608 30.7297C13.3608 31.396 13.4933 31.9816 13.7581 32.4872C14.023 32.9849 14.3882 33.3701 14.8537 33.6427C15.3192 33.9153 15.8449 34.052 16.4308 34.052C17.0408 34.052 17.5624 33.9196 17.9958 33.6548C18.4373 33.3822 18.7744 32.9927 19.0071 32.4872H20.3193C20.0063 33.2894 19.5087 33.9118 18.8265 34.3529C18.1443 34.7863 17.3457 35.003 16.4308 35.003C15.6523 35.003 14.942 34.8224 14.2999 34.4613C13.6658 34.0924 13.1642 33.5825 12.795 32.9325C12.4258 32.2825 12.2412 31.5483 12.2412 30.7297ZM24.8275 35.0391C24.2094 35.0391 23.6477 34.8989 23.142 34.6178C22.6444 34.3366 22.2511 33.9394 21.9622 33.4261C21.6813 32.9042 21.5408 32.3024 21.5408 31.6205C21.5408 30.9464 21.6853 30.3523 21.9742 29.839C22.2712 29.3171 22.6725 28.9199 23.1781 28.6473C23.6838 28.3662 24.2496 28.226 24.8756 28.226C25.5016 28.226 26.0675 28.3662 26.5731 28.6473C27.0787 28.9199 27.476 29.3136 27.765 29.8269C28.0619 30.3403 28.2104 30.9386 28.2104 31.6205C28.2104 32.3024 28.0579 32.9042 27.7529 33.4261C27.4559 33.9394 27.0506 34.3366 26.537 34.6178C26.0233 34.8989 25.4535 35.0391 24.8275 35.0391ZM24.8275 34.0761C25.2207 34.0761 25.5899 33.984 25.935 33.7992C26.2801 33.6144 26.557 33.3376 26.7657 32.9687C26.9824 32.5997 27.0908 32.1501 27.0908 31.6205C27.0908 31.0908 26.9864 30.6412 26.7778 30.2723C26.5691 29.9034 26.2962 29.6301 25.9591 29.4538C25.622 29.269 25.2568 29.1769 24.8636 29.1769C24.4623 29.1769 24.0931 29.269 23.756 29.4538C23.4269 29.6301 23.1621 29.9034 22.9614 30.2723C22.7607 30.6412 22.6605 31.0908 22.6605 31.6205C22.6605 32.1579 22.7568 32.6118 22.9494 32.9807C23.15 33.3496 23.4149 33.6265 23.744 33.8113C24.073 33.9876 24.4341 34.0761 24.8275 34.0761ZM32.8652 28.2139C33.6678 28.2139 34.3179 28.4589 34.8155 28.9482C35.3131 29.4297 35.5619 30.1279 35.5619 31.0427V34.9307H34.4784V31.1992C34.4784 30.5414 34.3139 30.0393 33.9848 29.6945C33.6557 29.3412 33.2063 29.1649 32.6365 29.1649C32.0586 29.1649 31.5971 29.3454 31.252 29.7065C30.9149 30.0677 30.7464 30.5931 30.7464 31.2834V34.9307H29.6508V28.3343H30.7464V29.2732C30.9631 28.9362 31.256 28.6756 31.6252 28.4908C32.0024 28.306 32.4157 28.2139 32.8652 28.2139ZM39.687 35.0391C39.1814 35.0391 38.7279 34.9548 38.3266 34.7863C37.9254 34.61 37.6083 34.3692 37.3756 34.064C37.1428 33.7511 37.0144 33.3942 36.9903 32.9927H38.122C38.1541 33.322 38.3066 33.5903 38.5794 33.7992C38.8604 34.0081 39.2256 34.1122 39.675 34.1122C40.0924 34.1122 40.4214 34.0201 40.6622 33.8353C40.903 33.6505 41.0233 33.4183 41.0233 33.1372C41.0233 32.8483 40.895 32.6359 40.6381 32.4992C40.3813 32.3547 39.984 32.2145 39.4462 32.0779C38.9567 31.9497 38.5554 31.8209 38.2424 31.6927C37.9374 31.556 37.6726 31.3599 37.4478 31.1029C37.2311 30.8381 37.1227 30.4932 37.1227 30.0677C37.1227 29.7306 37.2231 29.4219 37.4237 29.1408C37.6244 28.8597 37.9093 28.6395 38.2785 28.4788C38.6477 28.3102 39.0691 28.226 39.5426 28.226C40.273 28.226 40.8629 28.4108 41.3123 28.7797C41.7618 29.1486 42.0025 29.6542 42.0346 30.2964H40.9391C40.915 29.9515 40.7746 29.6747 40.5177 29.4658C40.2689 29.2569 39.9318 29.1528 39.5064 29.1528C39.1132 29.1528 38.8002 29.2371 38.5674 29.4056C38.3347 29.5741 38.2183 29.7951 38.2183 30.0677C38.2183 30.2843 38.2865 30.4649 38.4229 30.6093C38.5674 30.746 38.744 30.8579 38.9526 30.9464C39.1693 31.0264 39.4664 31.1192 39.8435 31.2233C40.3171 31.3514 40.7023 31.4803 40.9993 31.6084C41.2963 31.7288 41.5491 31.9136 41.7577 32.1622C41.9744 32.4107 42.0868 32.7357 42.0948 33.1372C42.0948 33.4983 41.9945 33.8233 41.7938 34.1122C41.5932 34.4011 41.3083 34.6298 40.9391 34.7983C40.5779 34.9591 40.1606 35.0391 39.687 35.0391ZM49.4923 28.3343V34.9307H48.3967V33.9557C48.188 34.2928 47.8951 34.5576 47.5179 34.7502C47.1487 34.935 46.7393 35.027 46.2899 35.027C45.7762 35.027 45.3148 34.9229 44.9055 34.7141C44.4961 34.4974 44.1711 34.1766 43.9303 33.7511C43.6975 33.3255 43.5812 32.8079 43.5812 32.1983V28.3343H44.6647V32.0538C44.6647 32.7038 44.8292 33.2051 45.1583 33.5585C45.4873 33.9033 45.9368 34.0761 46.5066 34.0761C47.0925 34.0761 47.554 33.8955 47.8911 33.5344C48.2282 33.1733 48.3967 32.6479 48.3967 31.9575V28.3343H49.4923ZM52.4376 26.0231V34.9307H51.342V26.0231H52.4376ZM55.6411 29.2371V33.1251C55.6411 33.4459 55.7093 33.6746 55.8457 33.8113C55.9821 33.9394 56.2189 34.0039 56.556 34.0039H57.3626V34.9307H56.3754C55.7654 34.9307 55.3079 34.7905 55.003 34.5094C54.698 34.2283 54.5455 33.7674 54.5455 33.1251V29.2371H53.6908V28.3343H54.5455V26.6732H55.6411V28.3343H57.3626V29.2371H55.6411ZM61.5671 35.0391C60.9496 35.0391 60.3873 34.8989 59.8817 34.6178C59.3842 34.3366 58.991 33.9394 58.7021 33.4261C58.4211 32.9042 58.2807 32.3024 58.2807 31.6205C58.2807 30.9464 58.4252 30.3523 58.7141 29.839C59.011 29.3171 59.4124 28.9199 59.9178 28.6473C60.4234 28.3662 60.9892 28.226 61.6153 28.226C62.2413 28.226 62.8071 28.3662 63.3127 28.6473C63.8184 28.9199 64.2157 29.3136 64.5046 29.8269C64.802 30.3403 64.95 30.9386 64.95 31.6205C64.95 32.3024 64.7978 32.9042 64.4926 33.4261C64.1958 33.9394 63.7908 34.3366 63.2766 34.6178C62.7632 34.8989 62.1931 35.0391 61.5671 35.0391ZM61.5671 34.0761C61.9608 34.0761 62.3298 33.984 62.6747 33.7992C63.0203 33.6144 63.2972 33.3376 63.5054 32.9687C63.7221 32.5997 63.8304 32.1501 63.8304 31.6205C63.8304 31.0908 63.7263 30.6412 63.5174 30.2723C63.3092 29.9034 63.0359 29.6301 62.6988 29.4538C62.3617 29.269 61.997 29.1769 61.6032 29.1769C61.2024 29.1769 60.8327 29.269 60.4956 29.4538C60.167 29.6301 59.9022 29.9034 59.7013 30.2723C59.5006 30.6412 59.4003 31.0908 59.4003 31.6205C59.4003 32.1579 59.4966 32.6118 59.6892 32.9807C59.8902 33.3496 60.155 33.6265 60.4836 33.8113C60.8129 33.9876 61.1741 34.0761 61.5671 34.0761ZM67.486 29.4056C67.6786 29.0282 67.952 28.7358 68.3046 28.5269C68.6658 28.318 69.1035 28.2139 69.6169 28.2139V29.3454H69.3279C68.1 29.3454 67.486 30.0117 67.486 31.3436V34.9307H66.3905V28.3343H67.486V29.4056ZM71.4475 27.263C71.2386 27.263 71.0623 27.1908 70.9178 27.0463C70.7733 26.9019 70.7011 26.7256 70.7011 26.5167C70.7011 26.3078 70.7733 26.1315 70.9178 25.987C71.0623 25.8426 71.2386 25.7704 71.4475 25.7704C71.6479 25.7704 71.8165 25.8426 71.9531 25.987C72.0976 26.1315 72.1698 26.3078 72.1698 26.5167C72.1698 26.7256 72.0976 26.9019 71.9531 27.0463C71.8165 27.1908 71.6479 27.263 71.4475 27.263ZM71.9772 28.3343V34.9307H70.8817V28.3343H71.9772ZM73.4353 31.6084C73.4353 30.9344 73.5713 30.3445 73.8447 29.839C74.1173 29.3256 74.4905 28.9284 74.9643 28.6473C75.4458 28.3662 75.9791 28.226 76.5655 28.226C77.1433 28.226 77.6447 28.3506 78.0703 28.5991C78.4952 28.8477 78.8125 29.1606 79.0214 29.538V28.3343H80.129V34.9307H79.0214V33.7029C78.8047 34.0881 78.4796 34.4089 78.0462 34.6659C77.6206 34.9144 77.1228 35.0391 76.5534 35.0391C75.9671 35.0391 75.4373 34.8946 74.9643 34.6057C74.4905 34.3168 74.1173 33.9118 73.8447 33.39C73.5713 32.8681 73.4353 32.2747 73.4353 31.6084ZM79.0214 31.6205C79.0214 31.1227 78.9208 30.6894 78.7204 30.3205C78.5193 29.9515 78.2467 29.6704 77.9018 29.4778C77.5647 29.2775 77.1915 29.1769 76.7822 29.1769C76.3728 29.1769 75.9996 29.2732 75.6625 29.4658C75.3255 29.6584 75.0563 29.9395 74.8559 30.3084C74.6548 30.6773 74.555 31.1107 74.555 31.6084C74.555 32.114 74.6548 32.5551 74.8559 32.9325C75.0563 33.3014 75.3255 33.5868 75.6625 33.7872C75.9996 33.9798 76.3728 34.0761 76.7822 34.0761C77.1915 34.0761 77.5647 33.9798 77.9018 33.7872C78.2467 33.5868 78.5193 33.3014 78.7204 32.9325C78.9208 32.5551 79.0214 32.1183 79.0214 31.6205ZM86.2851 26.5408V34.9307H85.1896V26.5408H86.2851ZM96.0862 28.2139C96.5996 28.2139 97.0571 28.3223 97.4586 28.5389C97.8595 28.7478 98.1767 29.0643 98.4097 29.4899C98.642 29.9154 98.7588 30.433 98.7588 31.0427V34.9307H97.6753V31.1992C97.6753 30.5414 97.5103 30.0393 97.1817 29.6945C96.8602 29.3412 96.4233 29.1649 95.8695 29.1649C95.2994 29.1649 94.8462 29.3497 94.5091 29.7186C94.172 30.0797 94.0035 30.6051 94.0035 31.2955V34.9307H92.92V31.1992C92.92 30.5414 92.755 30.0393 92.4264 29.6945C92.1049 29.3412 91.6679 29.1649 91.1141 29.1649C90.5441 29.1649 90.0908 29.3497 89.7537 29.7186C89.4166 30.0797 89.2481 30.6051 89.2481 31.2955V34.9307H88.1526V28.3343H89.2481V29.2852C89.4648 28.9404 89.7537 28.6756 90.1149 28.4908C90.4839 28.306 90.8889 28.2139 91.3308 28.2139C91.8846 28.2139 92.374 28.3386 92.7996 28.5871C93.2245 28.8356 93.5417 29.201 93.7507 29.6825C93.9348 29.2173 94.24 28.8562 94.6656 28.5991C95.0905 28.3421 95.5643 28.2139 96.0862 28.2139ZM103.433 35.0391C102.815 35.0391 102.253 34.8989 101.747 34.6178C101.25 34.3366 100.856 33.9394 100.568 33.4261C100.287 32.9042 100.146 32.3024 100.146 31.6205C100.146 30.9464 100.291 30.3523 100.58 29.839C100.877 29.3171 101.278 28.9199 101.783 28.6473C102.289 28.3662 102.855 28.226 103.481 28.226C104.107 28.226 104.673 28.3662 105.178 28.6473C105.684 28.9199 106.081 29.3136 106.37 29.8269C106.668 30.3403 106.816 30.9386 106.816 31.6205C106.816 32.3024 106.663 32.9042 106.358 33.4261C106.062 33.9394 105.656 34.3366 105.142 34.6178C104.629 34.8989 104.059 35.0391 103.433 35.0391ZM103.433 34.0761C103.827 34.0761 104.195 33.984 104.54 33.7992C104.886 33.6144 105.163 33.3376 105.371 32.9687C105.588 32.5997 105.696 32.1501 105.696 31.6205C105.696 31.0908 105.592 30.6412 105.383 30.2723C105.175 29.9034 104.902 29.6301 104.564 29.4538C104.227 29.269 103.863 29.1769 103.469 29.1769C103.068 29.1769 102.698 29.269 102.361 29.4538C102.033 29.6301 101.768 29.9034 101.567 30.2723C101.366 30.6412 101.266 31.0908 101.266 31.6205C101.266 32.1579 101.362 32.6118 101.555 32.9807C101.756 33.3496 102.021 33.6265 102.349 33.8113C102.679 33.9876 103.04 34.0761 103.433 34.0761ZM109.352 29.5621C109.577 29.1691 109.905 28.8477 110.339 28.5991C110.772 28.3506 111.266 28.226 111.82 28.226C112.414 28.226 112.948 28.3662 113.421 28.6473C113.895 28.9284 114.268 29.3256 114.54 29.839C114.814 30.3445 114.95 30.9344 114.95 31.6084C114.95 32.2747 114.814 32.8681 114.54 33.39C114.268 33.9118 113.89 34.3168 113.409 34.6057C112.936 34.8946 112.406 35.0391 111.82 35.0391C111.25 35.0391 110.748 34.9144 110.315 34.6659C109.89 34.4174 109.568 34.1002 109.352 33.715V34.9307H108.256V26.0231H109.352V29.5621ZM113.83 31.6084C113.83 31.1107 113.73 30.6773 113.529 30.3084C113.329 29.9395 113.056 29.6584 112.711 29.4658C112.373 29.2732 112 29.1769 111.591 29.1769C111.19 29.1769 110.817 29.2775 110.471 29.4778C110.134 29.6704 109.862 29.9551 109.653 30.3325C109.452 30.7014 109.352 31.1312 109.352 31.6205C109.352 32.1183 109.452 32.5551 109.653 32.9325C109.862 33.3014 110.134 33.5868 110.471 33.7872C110.817 33.9798 111.19 34.0761 111.591 34.0761C112 34.0761 112.373 33.9798 112.711 33.7872C113.056 33.5868 113.329 33.3014 113.529 32.9325C113.73 32.5551 113.83 32.114 113.83 31.6084ZM116.958 27.263C116.749 27.263 116.573 27.1908 116.428 27.0463C116.284 26.9019 116.212 26.7256 116.212 26.5167C116.212 26.3078 116.284 26.1315 116.428 25.987C116.573 25.8426 116.749 25.7704 116.958 25.7704C117.159 25.7704 117.327 25.8426 117.464 25.987C117.608 26.1315 117.68 26.3078 117.68 26.5167C117.68 26.7256 117.608 26.9019 117.464 27.0463C117.327 27.1908 117.159 27.263 116.958 27.263ZM117.488 28.3343V34.9307H116.392V28.3343H117.488ZM120.45 26.0231V34.9307H119.355V26.0231H120.45ZM122.883 27.263C122.674 27.263 122.498 27.1908 122.354 27.0463C122.209 26.9019 122.137 26.7256 122.137 26.5167C122.137 26.3078 122.209 26.1315 122.354 25.987C122.498 25.8426 122.674 25.7704 122.883 25.7704C123.084 25.7704 123.252 25.8426 123.389 25.987C123.534 26.1315 123.606 26.3078 123.606 26.5167C123.606 26.7256 123.534 26.9019 123.389 27.0463C123.252 27.1908 123.084 27.263 122.883 27.263ZM123.413 28.3343V34.9307H122.318V28.3343H123.413ZM124.871 31.6084C124.871 30.9344 125.007 30.3445 125.281 29.839C125.553 29.3256 125.926 28.9284 126.4 28.6473C126.882 28.3662 127.415 28.226 128.001 28.226C128.579 28.226 129.081 28.3506 129.506 28.5991C129.931 28.8477 130.248 29.1606 130.457 29.538V28.3343H131.565V34.9307H130.457V33.7029C130.241 34.0881 129.916 34.4089 129.482 34.6659C129.057 34.9144 128.559 35.0391 127.989 35.0391C127.403 35.0391 126.873 34.8946 126.4 34.6057C125.926 34.3168 125.553 33.9118 125.281 33.39C125.007 32.8681 124.871 32.2747 124.871 31.6084ZM130.457 31.6205C130.457 31.1227 130.357 30.6894 130.156 30.3205C129.955 29.9515 129.683 29.6704 129.338 29.4778C129.001 29.2775 128.627 29.1769 128.218 29.1769C127.809 29.1769 127.436 29.2732 127.098 29.4658C126.761 29.6584 126.492 29.9395 126.292 30.3084C126.091 30.6773 125.991 31.1107 125.991 31.6084C125.991 32.114 126.091 32.5551 126.292 32.9325C126.492 33.3014 126.761 33.5868 127.098 33.7872C127.436 33.9798 127.809 34.0761 128.218 34.0761C128.627 34.0761 129.001 33.9798 129.338 33.7872C129.683 33.5868 129.955 33.3014 130.156 32.9325C130.357 32.5551 130.457 32.1183 130.457 31.6205ZM129.603 26.4685L127.038 27.8408V27.0222L129.603 25.5176V26.4685ZM134.512 29.4056C134.704 29.0282 134.977 28.7358 135.33 28.5269C135.691 28.318 136.128 28.2139 136.642 28.2139V29.3454H136.354C135.126 29.3454 134.512 30.0117 134.512 31.3436V34.9307H133.416V28.3343H134.512V29.4056ZM138.473 27.263C138.264 27.263 138.088 27.1908 137.943 27.0463C137.799 26.9019 137.727 26.7256 137.727 26.5167C137.727 26.3078 137.799 26.1315 137.943 25.987C138.088 25.8426 138.264 25.7704 138.473 25.7704C138.673 25.7704 138.842 25.8426 138.979 25.987C139.123 26.1315 139.195 26.3078 139.195 26.5167C139.195 26.7256 139.123 26.9019 138.979 27.0463C138.842 27.1908 138.673 27.263 138.473 27.263ZM139.003 28.3343V34.9307H137.907V28.3343H139.003ZM140.46 31.6084C140.46 30.9344 140.597 30.3445 140.87 29.839C141.143 29.3256 141.516 28.9284 141.989 28.6473C142.471 28.3662 143.005 28.226 143.59 28.226C144.168 28.226 144.67 28.3506 145.095 28.5991C145.521 28.8477 145.838 29.1606 146.046 29.538V28.3343H147.154V34.9307H146.046V33.7029C145.83 34.0881 145.505 34.4089 145.071 34.6659C144.646 34.9144 144.148 35.0391 143.578 35.0391C142.993 35.0391 142.463 34.8946 141.989 34.6057C141.516 34.3168 141.143 33.9118 140.87 33.39C140.597 32.8681 140.46 32.2747 140.46 31.6084ZM146.046 31.6205C146.046 31.1227 145.946 30.6894 145.745 30.3205C145.545 29.9515 145.272 29.6704 144.927 29.4778C144.59 29.2775 144.216 29.1769 143.807 29.1769C143.398 29.1769 143.025 29.2732 142.687 29.4658C142.35 29.6584 142.082 29.9395 141.881 30.3084C141.68 30.6773 141.58 31.1107 141.58 31.6084C141.58 32.114 141.68 32.5551 141.881 32.9325C142.082 33.3014 142.35 33.5868 142.687 33.7872C143.025 33.9798 143.398 34.0761 143.807 34.0761C144.216 34.0761 144.59 33.9798 144.927 33.7872C145.272 33.5868 145.545 33.3014 145.745 32.9325C145.946 32.5551 146.046 32.1183 146.046 31.6205Z" fill="white"/>
<path d="M1.67553 2.92718V7.2167H6.3523V8.59744H1.67553V13.0158H6.90467V14.3966H0V1.54643H6.90467V2.92718H1.67553ZM11.1155 0.773219V14.3966H9.43999V0.773219H11.1155ZM14.8365 2.66944C14.5174 2.66944 14.2473 2.55898 14.0264 2.33806C13.8054 2.11714 13.695 1.84736 13.695 1.52802C13.695 1.20868 13.8054 0.938907 14.0264 0.717988C14.2473 0.497068 14.5174 0.386607 14.8365 0.386607C15.1434 0.386607 15.4012 0.497068 15.6099 0.717988C15.8308 0.938907 15.9413 1.20868 15.9413 1.52802C15.9413 1.84736 15.8308 2.11714 15.6099 2.33806C15.4012 2.55898 15.1434 2.66944 14.8365 2.66944ZM15.6467 4.30793V14.3966H13.9712V4.30793H15.6467ZM22.0744 14.5623C21.3011 14.5623 20.6075 14.4334 19.9938 14.1757C19.38 13.9059 18.8951 13.5377 18.5392 13.0711C18.1832 12.5924 17.9868 12.0465 17.95 11.4326H19.6808C19.7299 11.936 19.9631 12.3467 20.3805 12.666C20.81 12.9854 21.3686 13.1447 22.056 13.1447C22.6943 13.1447 23.1976 13.0038 23.5658 12.7213C23.9341 12.4387 24.1182 12.0833 24.1182 11.6535C24.1182 11.2117 23.9217 10.8866 23.529 10.6778C23.1362 10.4568 22.5286 10.2423 21.7062 10.0334C20.9573 9.83728 20.3436 9.64043 19.8649 9.4443C19.3984 9.23541 18.9934 8.93519 18.6497 8.54221C18.3183 8.13719 18.1526 7.60968 18.1526 6.95896C18.1526 6.44348 18.3059 5.9712 18.6129 5.54139C18.9197 5.11159 19.3555 4.77455 19.9201 4.52885C20.4848 4.27111 21.1292 4.14223 21.8535 4.14223C22.9705 4.14223 23.8727 4.42476 24.5601 4.98909C25.2474 5.55343 25.6157 6.32664 25.6648 7.30874H23.9893C23.9525 6.78123 23.7376 6.3578 23.3449 6.03846C22.9643 5.71912 22.4487 5.5598 21.7982 5.5598C21.1967 5.5598 20.718 5.68867 20.362 5.94641C20.006 6.20415 19.8281 6.5419 19.8281 6.95896C19.8281 7.29034 19.9324 7.56648 20.1411 7.7874C20.362 7.99629 20.6321 8.16764 20.9512 8.30288C21.2827 8.42538 21.7368 8.56699 22.3138 8.72631C23.0379 8.92245 23.6271 9.11929 24.0814 9.31543C24.5355 9.49953 24.9222 9.78205 25.2413 10.1623C25.5728 10.5425 25.7446 11.0396 25.7569 11.6535C25.7569 12.2058 25.6034 12.7029 25.2966 13.1447C24.9897 13.5865 24.5539 13.9363 23.9893 14.1941C23.4369 14.4398 22.7986 14.5623 22.0744 14.5623ZM27.4961 9.31543C27.4961 8.28447 27.7048 7.38238 28.1221 6.60917C28.5395 5.82391 29.1103 5.21639 29.8345 4.78659C30.571 4.35678 31.3873 4.14223 32.2833 4.14223C33.1671 4.14223 33.9344 4.33271 34.5849 4.71294C35.2355 5.09318 35.7204 5.57184 36.0395 6.14892V4.30793H37.7334V14.3966H36.0395V12.5188C35.708 13.1079 35.2109 13.5986 34.5481 13.9916C33.8975 14.3718 33.1365 14.5623 32.2649 14.5623C31.3689 14.5623 30.5587 14.3413 29.8345 13.8995C29.1103 13.4577 28.5395 12.8381 28.1221 12.0401C27.7048 11.2421 27.4961 10.3343 27.4961 9.31543ZM36.0395 9.33384C36.0395 8.57266 35.8861 7.9099 35.5792 7.34557C35.2723 6.78123 34.855 6.35143 34.3271 6.05687C33.8116 5.75027 33.2408 5.59662 32.6148 5.59662C31.9887 5.59662 31.4179 5.7439 30.9024 6.03846C30.3868 6.33302 29.9757 6.76282 29.6688 7.32715C29.3619 7.89149 29.2084 8.55425 29.2084 9.31543C29.2084 10.0886 29.3619 10.7634 29.6688 11.3405C29.9757 11.9049 30.3868 12.341 30.9024 12.6476C31.4179 12.9422 31.9887 13.0895 32.6148 13.0895C33.2408 13.0895 33.8116 12.9422 34.3271 12.6476C34.855 12.341 35.2723 11.9049 35.5792 11.3405C35.8861 10.7634 36.0395 10.095 36.0395 9.33384ZM45.481 4.12382C46.7086 4.12382 47.7028 4.4984 48.4638 5.24683C49.2249 5.98323 49.6054 7.051 49.6054 8.45016V14.3966H47.9483V8.68949C47.9483 7.68332 47.6967 6.91577 47.1934 6.38825C46.6902 5.84799 46.0027 5.57821 45.1312 5.57821C44.2474 5.57821 43.5416 5.85436 43.0138 6.40666C42.4982 6.95896 42.2404 7.76262 42.2404 8.81836V14.3966H40.5649V4.30793H42.2404V5.7439C42.5719 5.22842 43.0199 4.82977 43.5845 4.54725C44.1615 4.26473 44.7937 4.12382 45.481 4.12382ZM56.5036 4.14223C57.3752 4.14223 58.1362 4.33271 58.7868 4.71294C59.4496 5.09318 59.9404 5.57184 60.2598 6.14892V4.30793H61.9537V14.6175C61.9537 15.538 61.7576 16.3544 61.3645 17.066C60.9715 17.7904 60.4071 18.3547 59.6706 18.7597C58.9463 19.1647 58.0994 19.3673 57.1297 19.3673C55.804 19.3673 54.6992 19.0543 53.8154 18.4283C52.9316 17.8024 52.4099 16.9492 52.2504 15.8694H53.9075C54.0916 16.4833 54.4721 16.974 55.0491 17.3422C55.626 17.7224 56.3195 17.9129 57.1297 17.9129C58.0503 17.9129 58.799 17.6247 59.376 17.0476C59.9652 16.4705 60.2598 15.6605 60.2598 14.6175V12.5003C59.9284 13.0895 59.4374 13.5802 58.7868 13.9731C58.1362 14.3661 57.3752 14.5623 56.5036 14.5623C55.6076 14.5623 54.7913 14.3413 54.0548 13.8995C53.3305 13.4577 52.7597 12.8381 52.3424 12.0401C51.9251 11.2421 51.7164 10.3343 51.7164 9.31543C51.7164 8.28447 51.9251 7.38238 52.3424 6.60917C52.7597 5.82391 53.3305 5.21639 54.0548 4.78659C54.7913 4.35678 55.6076 4.14223 56.5036 4.14223ZM60.2598 9.33384C60.2598 8.57266 60.1061 7.9099 59.7995 7.34557C59.4926 6.78123 59.0752 6.35143 58.5474 6.05687C58.0319 5.75027 57.4611 5.59662 56.8351 5.59662C56.209 5.59662 55.6383 5.7439 55.1227 6.03846C54.6072 6.33302 54.1959 6.76282 53.8891 7.32715C53.5822 7.89149 53.4288 8.55425 53.4288 9.31543C53.4288 10.0886 53.5822 10.7634 53.8891 11.3405C54.1959 11.9049 54.6072 12.341 55.1227 12.6476C55.6383 12.9422 56.209 13.0895 56.8351 13.0895C57.4611 13.0895 58.0319 12.9422 58.5474 12.6476C59.0752 12.341 59.4926 11.9049 59.7995 11.3405C60.1061 10.7634 60.2598 10.095 60.2598 9.33384ZM73.9912 8.96564C73.9912 9.28498 73.9728 9.62203 73.936 9.97819H65.8713C65.9329 10.9723 66.2707 11.7519 66.884 12.3162C67.51 12.8685 68.2649 13.1447 69.1487 13.1447C69.8732 13.1447 70.4744 12.979 70.9532 12.6476C71.4446 12.3042 71.7881 11.8496 71.9843 11.2853H73.7887C73.5189 12.2546 72.9785 13.0463 72.1684 13.6602C71.3582 14.2613 70.3519 14.5623 69.1487 14.5623C68.1913 14.5623 67.3323 14.3477 66.571 13.9179C65.8225 13.4881 65.2333 12.8806 64.8034 12.0953C64.3742 11.2973 64.159 10.3768 64.159 9.33384C64.159 8.29084 64.3679 7.37601 64.785 6.59076C65.2028 5.8055 65.7856 5.20364 66.5342 4.78659C67.2955 4.35678 68.1672 4.14223 69.1487 4.14223C70.1062 4.14223 70.9532 4.35112 71.6897 4.76817C72.4262 5.18523 72.9913 5.76231 73.3836 6.49871C73.7887 7.22307 73.9912 8.04514 73.9912 8.96564ZM72.2604 8.61585C72.2604 7.97787 72.1195 7.43124 71.837 6.97737C71.5551 6.51075 71.1684 6.16096 70.677 5.928C70.1982 5.6823 69.6643 5.5598 69.0751 5.5598C68.2281 5.5598 67.5044 5.82958 66.9024 6.36984C66.3132 6.9101 65.9761 7.65853 65.8897 8.61585H72.2604ZM77.8784 0.773219V14.3966H76.2028V0.773219H77.8784ZM80.1084 9.31543C80.1084 8.28447 80.3166 7.38238 80.7344 6.60917C81.1515 5.82391 81.7223 5.21639 82.4468 4.78659C83.1833 4.35678 83.9991 4.14223 84.8956 4.14223C85.7794 4.14223 86.5464 4.33271 87.1972 4.71294C87.8473 5.09318 88.3324 5.57184 88.6518 6.14892V4.30793H90.3457V14.3966H88.6518V12.5188C88.3203 13.1079 87.8232 13.5986 87.1604 13.9916C86.5096 14.3718 85.7483 14.5623 84.8772 14.5623C83.9807 14.5623 83.1705 14.3413 82.4468 13.8995C81.7223 13.4577 81.1515 12.8381 80.7344 12.0401C80.3166 11.2421 80.1084 10.3343 80.1084 9.31543ZM88.6518 9.33384C88.6518 8.57266 88.4981 7.9099 88.1915 7.34557C87.8841 6.78123 87.467 6.35143 86.9394 6.05687C86.4239 5.75027 85.8531 5.59662 85.2271 5.59662C84.601 5.59662 84.0302 5.7439 83.5147 6.03846C82.9992 6.33302 82.5877 6.76282 82.2811 7.32715C81.9737 7.89149 81.8208 8.55425 81.8208 9.31543C81.8208 10.0886 81.9737 10.7634 82.2811 11.3405C82.5877 11.9049 82.9992 12.341 83.5147 12.6476C84.0302 12.9422 84.601 13.0895 85.2271 13.0895C85.8531 13.0895 86.4239 12.9422 86.9394 12.6476C87.467 12.341 87.8841 11.9049 88.1915 11.3405C88.4981 10.7634 88.6518 10.095 88.6518 9.33384ZM104.512 7.7874C104.978 7.86104 105.401 8.05152 105.782 8.35811C106.175 8.66471 106.482 9.04565 106.703 9.49953C106.936 9.9534 107.053 10.4384 107.053 10.9539C107.053 11.6046 106.887 12.1938 106.556 12.7213C106.224 13.2367 105.739 13.6481 105.101 13.9547C104.475 14.2493 103.732 14.3966 102.873 14.3966H98.086V1.56484H102.689C103.56 1.56484 104.303 1.71212 104.917 2.00668C105.53 2.2892 105.991 2.67581 106.298 3.16651C106.605 3.6572 106.758 4.20951 106.758 4.82341C106.758 5.58459 106.549 6.21618 106.132 6.71963C105.727 7.21032 105.187 7.56648 104.512 7.7874ZM99.7616 7.10624H102.579C103.364 7.10624 103.972 6.92214 104.402 6.55394C104.831 6.18574 105.046 5.67663 105.046 5.02591C105.046 4.37519 104.831 3.86609 104.402 3.49789C103.972 3.12969 103.352 2.94559 102.542 2.94559H99.7616V7.10624ZM102.726 13.0158C103.56 13.0158 104.211 12.8197 104.678 12.4267C105.144 12.0337 105.377 11.4878 105.377 10.7882C105.377 10.0766 105.132 9.51794 104.641 9.11292C104.149 8.69587 103.493 8.48698 102.671 8.48698H99.7616V13.0158H102.726ZM111.053 5.94641C111.348 5.36933 111.765 4.92183 112.305 4.60248C112.858 4.28314 113.527 4.12382 114.312 4.12382V5.85436H113.87C111.992 5.85436 111.053 6.87328 111.053 8.91041V14.3966H109.378V4.30793H111.053V5.94641ZM117.922 4.30793V14.3966H116.246V4.30793H117.922ZM118.879 1.45439L114.958 3.55312V2.30124L118.879 0V1.45439ZM124.939 4.14223C125.81 4.14223 126.572 4.33271 127.222 4.71294C127.885 5.09318 128.376 5.57184 128.695 6.14892V4.30793H130.389V14.6175C130.389 15.538 130.192 16.3544 129.8 17.066C129.407 17.7904 128.843 18.3547 128.106 18.7597C127.382 19.1647 126.535 19.3673 125.565 19.3673C124.239 19.3673 123.135 19.0543 122.251 18.4283C121.367 17.8024 120.845 16.9492 120.686 15.8694H122.343C122.527 16.4833 122.907 16.974 123.485 17.3422C124.061 17.7224 124.755 17.9129 125.565 17.9129C126.486 17.9129 127.234 17.6247 127.812 17.0476C128.401 16.4705 128.695 15.6605 128.695 14.6175V12.5003C128.364 13.0895 127.872 13.5802 127.222 13.9731C126.572 14.3661 125.81 14.5623 124.939 14.5623C124.043 14.5623 123.227 14.3413 122.49 13.8995C121.766 13.4577 121.195 12.8381 120.778 12.0401C120.36 11.2421 120.152 10.3343 120.152 9.31543C120.152 8.28447 120.36 7.38238 120.778 6.60917C121.195 5.82391 121.766 5.21639 122.49 4.78659C123.227 4.35678 124.043 4.14223 124.939 4.14223ZM128.695 9.33384C128.695 8.57266 128.542 7.9099 128.235 7.34557C127.928 6.78123 127.511 6.35143 126.983 6.05687C126.467 5.75027 125.897 5.59662 125.271 5.59662C124.645 5.59662 124.074 5.7439 123.558 6.03846C123.043 6.33302 122.631 6.76282 122.325 7.32715C122.017 7.89149 121.864 8.55425 121.864 9.31543C121.864 10.0886 122.017 10.7634 122.325 11.3405C122.631 11.9049 123.043 12.341 123.558 12.6476C124.074 12.9422 124.645 13.0895 125.271 13.0895C125.897 13.0895 126.467 12.9422 126.983 12.6476C127.511 12.341 127.928 11.9049 128.235 11.3405C128.542 10.7634 128.695 10.095 128.695 9.33384ZM134.086 2.66944C133.767 2.66944 133.497 2.55898 133.276 2.33806C133.055 2.11714 132.944 1.84736 132.944 1.52802C132.944 1.20868 133.055 0.938907 133.276 0.717988C133.497 0.497068 133.767 0.386607 134.086 0.386607C134.393 0.386607 134.65 0.497068 134.859 0.717988C135.08 0.938907 135.191 1.20868 135.191 1.52802C135.191 1.84736 135.08 2.11714 134.859 2.33806C134.65 2.55898 134.393 2.66944 134.086 2.66944ZM134.896 4.30793V14.3966H133.221V4.30793H134.896ZM137.125 9.31543C137.125 8.28447 137.334 7.38238 137.751 6.60917C138.169 5.82391 138.74 5.21639 139.464 4.78659C140.2 4.35678 141.023 4.14223 141.931 4.14223C142.717 4.14223 143.447 4.32633 144.122 4.69453C144.798 5.05069 145.313 5.52298 145.669 6.1121V0.773219H147.363V14.3966H145.669V12.5003C145.337 13.1015 144.847 13.5986 144.196 13.9916C143.546 14.3718 142.784 14.5623 141.913 14.5623C141.017 14.5623 140.2 14.3413 139.464 13.8995C138.74 13.4577 138.169 12.8381 137.751 12.0401C137.334 11.2421 137.125 10.3343 137.125 9.31543ZM145.669 9.33384C145.669 8.57266 145.516 7.9099 145.208 7.34557C144.902 6.78123 144.485 6.35143 143.956 6.05687C143.441 5.75027 142.87 5.59662 142.244 5.59662C141.618 5.59662 141.047 5.7439 140.532 6.03846C140.016 6.33302 139.605 6.76282 139.298 7.32715C138.991 7.89149 138.838 8.55425 138.838 9.31543C138.838 10.0886 138.991 10.7634 139.298 11.3405C139.605 11.9049 140.016 12.341 140.532 12.6476C141.047 12.9422 141.618 13.0895 142.244 13.0895C142.87 13.0895 143.441 12.9422 143.956 12.6476C144.485 12.341 144.902 11.9049 145.208 11.3405C145.516 10.7634 145.669 10.095 145.669 9.33384ZM149.569 9.31543C149.569 8.28447 149.777 7.38238 150.195 6.60917C150.612 5.82391 151.183 5.21639 151.907 4.78659C152.644 4.35678 153.459 4.14223 154.356 4.14223C155.24 4.14223 156.007 4.33271 156.657 4.71294C157.308 5.09318 157.793 5.57184 158.112 6.14892V4.30793H159.806V14.3966H158.112V12.5188C157.781 13.1079 157.283 13.5986 156.621 13.9916C155.97 14.3718 155.209 14.5623 154.337 14.5623C153.441 14.5623 152.631 14.3413 151.907 13.8995C151.183 13.4577 150.612 12.8381 150.195 12.0401C149.777 11.2421 149.569 10.3343 149.569 9.31543ZM158.112 9.33384C158.112 8.57266 157.958 7.9099 157.652 7.34557C157.344 6.78123 156.927 6.35143 156.4 6.05687C155.884 5.75027 155.313 5.59662 154.687 5.59662C154.061 5.59662 153.491 5.7439 152.975 6.03846C152.459 6.33302 152.048 6.76282 151.741 7.32715C151.434 7.89149 151.281 8.55425 151.281 9.31543C151.281 10.0886 151.434 10.7634 151.741 11.3405C152.048 11.9049 152.459 12.341 152.975 12.6476C153.491 12.9422 154.061 13.0895 154.687 13.0895C155.313 13.0895 155.884 12.9422 156.4 12.6476C156.927 12.341 157.344 11.9049 157.652 11.3405C157.958 10.7634 158.112 10.095 158.112 9.33384Z" fill="white"/>
</svg>
