<svg width="158" height="99" viewBox="0 0 158 99" fill="none" xmlns="http://www.w3.org/2000/svg">
<path d="M21.6993 52.1013H40.6782L87.5467 15.4597L133.988 52.1013H152.825L87.2602 0L21.6993 52.1013Z" fill="#272727"/>
<path d="M77.9493 37.7861H71.2352V44.5015H77.9493V37.7861Z" fill="#DF893F"/>
<path d="M86.193 46.0315H79.4796V52.7468H86.193V46.0315Z" fill="#DF893F"/>
<path d="M86.193 37.7861H79.4796V44.5015H86.193V37.7861Z" fill="#272727"/>
<path d="M77.9493 46.0315H71.2352V52.7468H77.9493V46.0315Z" fill="#272727"/>
<path d="M5.53308 52.1013H24.512L71.3803 15.4609L117.821 52.1013H136.659L71.0939 0L5.53308 52.1013Z" fill="#DF893F"/>
<path d="M20.2625 91.0473C20.2625 90.3365 20.4227 89.6988 20.7432 89.1343C21.0638 88.5631 21.4992 88.1167 22.0496 87.7963C22.6071 87.4759 23.2237 87.3155 23.8995 87.3155C24.6938 87.3155 25.3871 87.5073 25.9793 87.8904C26.5716 88.2735 27.0036 88.8171 27.2753 89.5211H26.1361C25.9341 89.0821 25.6415 88.7439 25.2582 88.5072C24.882 88.2704 24.4291 88.1517 23.8995 88.1517C23.3909 88.1517 22.9346 88.2704 22.5304 88.5072C22.1263 88.7439 21.8093 89.0821 21.5793 89.5211C21.3494 89.9534 21.2344 90.4619 21.2344 91.0473C21.2344 91.626 21.3494 92.1345 21.5793 92.5735C21.8093 93.0058 22.1263 93.3403 22.5304 93.5771C22.9346 93.8138 23.3909 93.9325 23.8995 93.9325C24.4291 93.9325 24.882 93.8175 25.2582 93.5875C25.6415 93.3508 25.9341 93.0126 26.1361 92.5735H27.2753C27.0036 93.2702 26.5716 93.8107 25.9793 94.1938C25.3871 94.5701 24.6938 94.7583 23.8995 94.7583C23.2237 94.7583 22.6071 94.6015 22.0496 94.2879C21.4992 93.9675 21.0638 93.5248 20.7432 92.9603C20.4227 92.3958 20.2625 91.7582 20.2625 91.0473ZM31.189 94.7897C30.6525 94.7897 30.1647 94.6679 29.7258 94.4238C29.2938 94.1797 28.9524 93.8347 28.7016 93.3889C28.4577 92.9357 28.3358 92.413 28.3358 91.8209C28.3358 91.2355 28.4612 90.7196 28.712 90.2738C28.9698 89.8206 29.3182 89.4756 29.7571 89.2389C30.1961 88.9948 30.6873 88.873 31.2308 88.873C31.7743 88.873 32.2655 88.9948 32.7044 89.2389C33.1434 89.4756 33.4883 89.8175 33.7391 90.2633C33.9969 90.7091 34.1258 91.2287 34.1258 91.8209C34.1258 92.413 33.9934 92.9357 33.7287 93.3889C33.4708 93.8347 33.119 94.1797 32.6731 94.4238C32.2271 94.6679 31.7325 94.7897 31.189 94.7897ZM31.189 93.9534C31.5304 93.9534 31.8509 93.8734 32.1505 93.7129C32.4501 93.5525 32.6905 93.312 32.8716 92.9917C33.0598 92.6713 33.1538 92.2808 33.1538 91.8209C33.1538 91.3609 33.0632 90.9705 32.8821 90.6501C32.7009 90.3297 32.464 90.0924 32.1714 89.9393C31.8788 89.7788 31.5617 89.6988 31.2203 89.6988C30.8719 89.6988 30.5514 89.7788 30.2588 89.9393C29.9731 90.0924 29.7432 90.3297 29.569 90.6501C29.3948 90.9705 29.3077 91.3609 29.3077 91.8209C29.3077 92.2876 29.3913 92.6818 29.5586 93.0021C29.7327 93.3225 29.9627 93.5629 30.2484 93.7234C30.534 93.8765 30.8475 93.9534 31.189 93.9534ZM38.1668 88.8626C38.8635 88.8626 39.4279 89.0753 39.8599 89.5002C40.2919 89.9184 40.5079 90.5247 40.5079 91.3191V94.6956H39.5673V91.455C39.5673 90.8838 39.4245 90.4478 39.1388 90.1483C38.8531 89.8415 38.4629 89.6884 37.9682 89.6884C37.4666 89.6884 37.0659 89.8452 36.7663 90.1588C36.4737 90.4724 36.3274 90.9287 36.3274 91.5282V94.6956H35.3763V88.9671H36.3274V89.7825C36.5155 89.4898 36.7698 89.2635 37.0903 89.103C37.4178 88.9425 37.7766 88.8626 38.1668 88.8626ZM44.089 94.7897C43.6501 94.7897 43.2564 94.7165 42.908 94.5701C42.5597 94.417 42.2845 94.208 42.0824 93.9429C41.8804 93.6711 41.7688 93.3612 41.7479 93.0126H42.7304C42.7583 93.2985 42.8906 93.5315 43.1275 93.7129C43.3714 93.8943 43.6884 93.9847 44.0786 93.9847C44.4409 93.9847 44.7266 93.9048 44.9356 93.7443C45.1446 93.5838 45.2491 93.3821 45.2491 93.138C45.2491 92.8871 45.1377 92.7027 44.9147 92.584C44.6918 92.4585 44.3469 92.3368 43.88 92.2181C43.455 92.1068 43.1066 91.9949 42.8349 91.8836C42.5701 91.7649 42.3402 91.5946 42.1451 91.3714C41.957 91.1414 41.8629 90.842 41.8629 90.4724C41.8629 90.1797 41.95 89.9116 42.1242 89.6675C42.2984 89.4234 42.5457 89.2321 42.8662 89.0925C43.1868 88.9462 43.5526 88.873 43.9636 88.873C44.5977 88.873 45.1098 89.0335 45.5 89.3539C45.8902 89.6742 46.0992 90.1133 46.1271 90.671H45.176C45.1551 90.3715 45.0332 90.1311 44.8102 89.9497C44.5942 89.7683 44.3016 89.6779 43.9323 89.6779C43.5909 89.6779 43.3191 89.7511 43.1171 89.8975C42.915 90.0438 42.814 90.2357 42.814 90.4724C42.814 90.6606 42.8732 90.8174 42.9916 90.9428C43.1171 91.0615 43.2704 91.1586 43.4515 91.2355C43.6396 91.305 43.8975 91.3855 44.2249 91.4759C44.636 91.5872 44.9705 91.6991 45.2282 91.8104C45.4861 91.915 45.7056 92.0755 45.8867 92.2913C46.0748 92.5071 46.1724 92.7894 46.1793 93.138C46.1793 93.4516 46.0923 93.7339 45.918 93.9847C45.7439 94.2356 45.4965 94.4342 45.176 94.5806C44.8624 94.7202 44.5001 94.7897 44.089 94.7897ZM52.6013 88.9671V94.6956H51.6502V93.8488C51.469 94.1415 51.2147 94.3715 50.8873 94.5388C50.5667 94.6993 50.2114 94.7792 49.8212 94.7792C49.3753 94.7792 48.9747 94.6888 48.6193 94.5074C48.264 94.3192 47.9818 94.0407 47.7728 93.6711C47.5707 93.3016 47.4697 92.8521 47.4697 92.3226V88.9671H48.4103V92.1972C48.4103 92.7617 48.5531 93.197 48.8388 93.5039C49.1244 93.8033 49.5146 93.9534 50.0094 93.9534C50.518 93.9534 50.9186 93.7966 51.2113 93.483C51.5039 93.1694 51.6502 92.7131 51.6502 92.1136V88.9671H52.6013ZM55.1582 86.96V94.6956H54.2071V86.96H55.1582ZM57.9392 89.7511V93.1276C57.9392 93.4061 57.9984 93.6047 58.1169 93.7234C58.2353 93.8347 58.4409 93.8907 58.7335 93.8907H59.4338V94.6956H58.5768C58.0472 94.6956 57.65 94.5738 57.3853 94.3297C57.1205 94.0856 56.9882 93.6853 56.9882 93.1276V89.7511H56.2461V88.9671H56.9882V87.5245H57.9392V88.9671H59.4338V89.7511H57.9392ZM63.0838 94.7897C62.5477 94.7897 62.0596 94.6679 61.6206 94.4238C61.1888 94.1797 60.8474 93.8347 60.5966 93.3889C60.3527 92.9357 60.2308 92.413 60.2308 91.8209C60.2308 91.2355 60.3562 90.7196 60.607 90.2738C60.8648 89.8206 61.2132 89.4756 61.652 89.2389C62.091 88.9948 62.5822 88.873 63.1256 88.873C63.6691 88.873 64.1603 88.9948 64.5993 89.2389C65.0382 89.4756 65.3831 89.8175 65.634 90.2633C65.8922 90.7091 66.0207 91.2287 66.0207 91.8209C66.0207 92.413 65.8885 92.9357 65.6235 93.3889C65.3659 93.8347 65.0143 94.1797 64.5679 94.4238C64.1222 94.6679 63.6273 94.7897 63.0838 94.7897ZM63.0838 93.9534C63.4256 93.9534 63.746 93.8734 64.0454 93.7129C64.3454 93.5525 64.5858 93.312 64.7665 92.9917C64.9546 92.6713 65.0487 92.2808 65.0487 91.8209C65.0487 91.3609 64.9583 90.9705 64.7769 90.6501C64.5962 90.3297 64.3589 90.0924 64.0663 89.9393C63.7736 89.7788 63.457 89.6988 63.1152 89.6988C62.7672 89.6988 62.4463 89.7788 62.1537 89.9393C61.8684 90.0924 61.6385 90.3297 61.4641 90.6501C61.2898 90.9705 61.2028 91.3609 61.2028 91.8209C61.2028 92.2876 61.2864 92.6818 61.4536 93.0021C61.628 93.3225 61.8579 93.5629 62.1432 93.7234C62.4291 93.8765 62.7426 93.9534 63.0838 93.9534ZM68.2222 89.8975C68.3894 89.5697 68.6267 89.3157 68.9329 89.1343C69.2464 88.953 69.6264 88.8626 70.0721 88.8626V89.8452H69.8213C68.7552 89.8452 68.2222 90.4238 68.2222 91.5805V94.6956H67.2711V88.9671H68.2222V89.8975ZM71.6613 88.0367C71.48 88.0367 71.3269 87.974 71.2015 87.8486C71.0761 87.7231 71.0133 87.57 71.0133 87.3886C71.0133 87.2072 71.0761 87.0541 71.2015 86.9287C71.3269 86.8032 71.48 86.7405 71.6613 86.7405C71.8353 86.7405 71.9816 86.8032 72.1003 86.9287C72.2257 87.0541 72.2884 87.2072 72.2884 87.3886C72.2884 87.57 72.2257 87.7231 72.1003 87.8486C71.9816 87.974 71.8353 88.0367 71.6613 88.0367ZM72.1212 88.9671V94.6956H71.1701V88.9671H72.1212ZM73.387 91.8104C73.387 91.225 73.5051 90.7128 73.7424 90.2738C73.9791 89.828 74.3031 89.483 74.7143 89.2389C75.1324 88.9948 75.5953 88.873 76.1044 88.873C76.606 88.873 77.0413 88.9812 77.4108 89.1971C77.7797 89.4129 78.0551 89.6847 78.2365 90.0124V88.9671H79.198V94.6956H78.2365V93.6293C78.0483 93.9638 77.7662 94.2424 77.3899 94.4656C77.0204 94.6814 76.5882 94.7897 76.0939 94.7897C75.5849 94.7897 75.125 94.6642 74.7143 94.4133C74.3031 94.1624 73.9791 93.8107 73.7424 93.3575C73.5051 92.9044 73.387 92.3891 73.387 91.8104ZM78.2365 91.8209C78.2365 91.3886 78.1492 91.0123 77.9752 90.6919C77.8006 90.3715 77.5639 90.1274 77.2645 89.9602C76.9719 89.7862 76.6479 89.6988 76.2925 89.6988C75.9372 89.6988 75.6132 89.7825 75.3205 89.9497C75.0279 90.117 74.7943 90.3611 74.6203 90.6815C74.4457 91.0018 74.359 91.3781 74.359 91.8104C74.359 92.2495 74.4457 92.6326 74.6203 92.9603C74.7943 93.2807 75.0279 93.5285 75.3205 93.7025C75.6132 93.8697 75.9372 93.9534 76.2925 93.9534C76.6479 93.9534 76.9719 93.8697 77.2645 93.7025C77.5639 93.5285 77.8006 93.2807 77.9752 92.9603C78.1492 92.6326 78.2365 92.2532 78.2365 91.8209ZM84.5423 87.4095V94.6956H83.5913V87.4095H84.5423ZM93.051 88.8626C93.4967 88.8626 93.8938 88.9567 94.2424 89.1448C94.5904 89.3262 94.8658 89.6011 95.0681 89.9706C95.2697 90.3402 95.3712 90.7897 95.3712 91.3191V94.6956H94.4305V91.455C94.4305 90.8838 94.2873 90.4478 94.002 90.1483C93.7229 89.8415 93.3436 89.6884 92.8628 89.6884C92.3679 89.6884 91.9745 89.8489 91.6818 90.1692C91.3892 90.4828 91.2429 90.9391 91.2429 91.5386V94.6956H90.3023V91.455C90.3023 90.8838 90.159 90.4478 89.8737 90.1483C89.5946 89.8415 89.2153 89.6884 88.7346 89.6884C88.2396 89.6884 87.8462 89.8489 87.5535 90.1692C87.2609 90.4828 87.1146 90.9391 87.1146 91.5386V94.6956H86.1635V88.9671H87.1146V89.7929C87.3027 89.4935 87.5536 89.2635 87.8671 89.103C88.1874 88.9425 88.539 88.8626 88.9227 88.8626C89.4034 88.8626 89.8283 88.9708 90.1977 89.1866C90.5666 89.4025 90.842 89.7197 91.0234 90.1379C91.1832 89.7339 91.4482 89.4203 91.8177 89.1971C92.1866 88.9739 92.5979 88.8626 93.051 88.8626ZM99.4287 94.7897C98.8927 94.7897 98.4045 94.6679 97.9656 94.4238C97.534 94.1797 97.1922 93.8347 96.9413 93.3889C96.6979 92.9357 96.5755 92.413 96.5755 91.8209C96.5755 91.2355 96.7009 90.7196 96.9518 90.2738C97.21 89.8206 97.558 89.4756 97.9969 89.2389C98.4359 88.9948 98.9271 88.873 99.4706 88.873C100.014 88.873 100.505 88.9948 100.944 89.2389C101.383 89.4756 101.728 89.8175 101.979 90.2633C102.237 90.7091 102.366 91.2287 102.366 91.8209C102.366 92.413 102.233 92.9357 101.968 93.3889C101.711 93.8347 101.359 94.1797 100.913 94.4238C100.467 94.6679 99.9722 94.7897 99.4287 94.7897ZM99.4287 93.9534C99.7706 93.9534 100.091 93.8734 100.39 93.7129C100.69 93.5525 100.931 93.312 101.111 92.9917C101.3 92.6713 101.394 92.2808 101.394 91.8209C101.394 91.3609 101.303 90.9705 101.122 90.6501C100.941 90.3297 100.704 90.0924 100.411 89.9393C100.119 89.7788 99.8019 89.6988 99.4601 89.6988C99.1121 89.6988 98.7912 89.7788 98.4986 89.9393C98.2133 90.0924 97.9834 90.3297 97.8088 90.6501C97.6348 90.9705 97.5475 91.3609 97.5475 91.8209C97.5475 92.2876 97.6311 92.6818 97.7983 93.0021C97.9729 93.3225 98.2029 93.5629 98.4881 93.7234C98.774 93.8765 99.0875 93.9534 99.4287 93.9534ZM104.567 90.0333C104.763 89.6921 105.048 89.4129 105.424 89.1971C105.8 88.9812 106.229 88.873 106.71 88.873C107.225 88.873 107.689 88.9948 108.1 89.2389C108.511 89.483 108.835 89.828 109.072 90.2738C109.309 90.7128 109.427 91.225 109.427 91.8104C109.427 92.3891 109.309 92.9044 109.072 93.3575C108.835 93.8107 108.507 94.1624 108.089 94.4133C107.679 94.6642 107.219 94.7897 106.71 94.7897C106.215 94.7897 105.779 94.6814 105.403 94.4656C105.034 94.2498 104.755 93.9743 104.567 93.6398V94.6956H103.616V86.96H104.567V90.0333ZM108.455 91.8104C108.455 91.3781 108.368 91.0018 108.194 90.6815C108.02 90.3611 107.783 90.117 107.483 89.9497C107.19 89.7825 106.866 89.6988 106.511 89.6988C106.163 89.6988 105.839 89.7862 105.539 89.9602C105.246 90.1274 105.01 90.3746 104.828 90.7024C104.654 91.0227 104.567 91.396 104.567 91.8209C104.567 92.2532 104.654 92.6326 104.828 92.9603C105.01 93.2807 105.246 93.5285 105.539 93.7025C105.839 93.8697 106.163 93.9534 106.511 93.9534C106.866 93.9534 107.19 93.8697 107.483 93.7025C107.783 93.5285 108.02 93.2807 108.194 92.9603C108.368 92.6326 108.455 92.2495 108.455 91.8104ZM111.171 88.0367C110.989 88.0367 110.836 87.974 110.711 87.8486C110.585 87.7231 110.523 87.57 110.523 87.3886C110.523 87.2072 110.585 87.0541 110.711 86.9287C110.836 86.8032 110.989 86.7405 111.171 86.7405C111.345 86.7405 111.491 86.8032 111.61 86.9287C111.735 87.0541 111.798 87.2072 111.798 87.3886C111.798 87.57 111.735 87.7231 111.61 87.8486C111.491 87.974 111.345 88.0367 111.171 88.0367ZM111.63 88.9671V94.6956H110.679V88.9671H111.63ZM114.202 86.96V94.6956H113.251V86.96H114.202ZM116.314 88.0367C116.133 88.0367 115.98 87.974 115.855 87.8486C115.729 87.7231 115.666 87.57 115.666 87.3886C115.666 87.2072 115.729 87.0541 115.855 86.9287C115.98 86.8032 116.133 86.7405 116.314 86.7405C116.488 86.7405 116.635 86.8032 116.753 86.9287C116.879 87.0541 116.942 87.2072 116.942 87.3886C116.942 87.57 116.879 87.7231 116.753 87.8486C116.635 87.974 116.488 88.0367 116.314 88.0367ZM116.774 88.9671V94.6956H115.823V88.9671H116.774ZM118.04 91.8104C118.04 91.225 118.158 90.7128 118.396 90.2738C118.632 89.828 118.956 89.483 119.367 89.2389C119.786 88.9948 120.248 88.873 120.758 88.873C121.259 88.873 121.694 88.9812 122.064 89.1971C122.433 89.4129 122.708 89.6847 122.89 90.0124V88.9671H123.851V94.6956H122.89V93.6293C122.701 93.9638 122.419 94.2424 122.043 94.4656C121.674 94.6814 121.241 94.7897 120.747 94.7897C120.238 94.7897 119.778 94.6642 119.367 94.4133C118.956 94.1624 118.632 93.8107 118.396 93.3575C118.158 92.9044 118.04 92.3891 118.04 91.8104ZM122.89 91.8209C122.89 91.3886 122.802 91.0123 122.628 90.6919C122.454 90.3715 122.217 90.1274 121.918 89.9602C121.625 89.7862 121.301 89.6988 120.946 89.6988C120.59 89.6988 120.266 89.7825 119.974 89.9497C119.681 90.117 119.447 90.3611 119.273 90.6815C119.099 91.0018 119.012 91.3781 119.012 91.8104C119.012 92.2495 119.099 92.6326 119.273 92.9603C119.447 93.2807 119.681 93.5285 119.974 93.7025C120.266 93.8697 120.59 93.9534 120.946 93.9534C121.301 93.9534 121.625 93.8697 121.918 93.7025C122.217 93.5285 122.454 93.2807 122.628 92.9603C122.802 92.6326 122.89 92.2532 122.89 91.8209ZM122.148 87.3468L119.921 88.5385V87.8277L122.148 86.521V87.3468ZM126.409 89.8975C126.576 89.5697 126.813 89.3157 127.12 89.1343C127.433 88.953 127.813 88.8626 128.259 88.8626V89.8452H128.008C126.942 89.8452 126.409 90.4238 126.409 91.5805V94.6956H125.458V88.9671H126.409V89.8975ZM129.848 88.0367C129.667 88.0367 129.514 87.974 129.388 87.8486C129.263 87.7231 129.2 87.57 129.2 87.3886C129.2 87.2072 129.263 87.0541 129.388 86.9287C129.514 86.8032 129.667 86.7405 129.848 86.7405C130.022 86.7405 130.169 86.8032 130.287 86.9287C130.413 87.0541 130.475 87.2072 130.475 87.3886C130.475 87.57 130.413 87.7231 130.287 87.8486C130.169 87.974 130.022 88.0367 129.848 88.0367ZM130.308 88.9671V94.6956H129.357V88.9671H130.308ZM131.573 91.8104C131.573 91.225 131.692 90.7128 131.929 90.2738C132.166 89.828 132.49 89.483 132.901 89.2389C133.319 88.9948 133.782 88.873 134.291 88.873C134.792 88.873 135.228 88.9812 135.597 89.1971C135.967 89.4129 136.242 89.6847 136.423 90.0124V88.9671H137.384V94.6956H136.423V93.6293C136.235 93.9638 135.953 94.2424 135.576 94.4656C135.207 94.6814 134.775 94.7897 134.28 94.7897C133.772 94.7897 133.312 94.6642 132.901 94.4133C132.49 94.1624 132.166 93.8107 131.929 93.3575C131.692 92.9044 131.573 92.3891 131.573 91.8104ZM136.423 91.8209C136.423 91.3886 136.336 91.0123 136.162 90.6919C135.988 90.3715 135.751 90.1274 135.451 89.9602C135.158 89.7862 134.834 89.6988 134.479 89.6988C134.124 89.6988 133.8 89.7825 133.507 89.9497C133.214 90.117 132.981 90.3611 132.807 90.6815C132.633 91.0018 132.545 91.3781 132.545 91.8104C132.545 92.2495 132.633 92.6326 132.807 92.9603C132.981 93.2807 133.214 93.5285 133.507 93.7025C133.8 93.8697 134.124 93.9534 134.479 93.9534C134.834 93.9534 135.158 93.8697 135.451 93.7025C135.751 93.5285 135.988 93.2807 136.162 92.9603C136.336 92.6326 136.423 92.2532 136.423 91.8209Z" fill="white"/>
<path d="M11.0901 66.9031V70.6282H15.1501V71.8273H11.0901V75.6643H15.6297V76.8634H9.6355V65.704H15.6297V66.9031H11.0901ZM19.2852 65.0326V76.8634H17.8307V65.0326H19.2852ZM22.5156 66.6793C22.2385 66.6793 22.0041 66.5834 21.8123 66.3915C21.6204 66.1997 21.5245 65.9654 21.5245 65.6881C21.5245 65.4107 21.6204 65.1765 21.8123 64.9846C22.0041 64.7927 22.2385 64.6968 22.5156 64.6968C22.782 64.6968 23.0057 64.7927 23.1869 64.9846C23.3787 65.1765 23.4746 65.4107 23.4746 65.6881C23.4746 65.9654 23.3787 66.1997 23.1869 66.3915C23.0057 66.5834 22.782 66.6793 22.5156 66.6793ZM23.2189 68.1022V76.8634H21.7643V68.1022H23.2189ZM28.799 77.0073C28.1276 77.0073 27.5255 76.8953 26.9927 76.6715C26.4599 76.4372 26.039 76.1175 25.73 75.7123C25.4209 75.2966 25.2504 74.8225 25.2185 74.2894H26.721C26.7636 74.7266 26.9661 75.0832 27.3284 75.3605C27.7014 75.6379 28.1862 75.7762 28.783 75.7762C29.3371 75.7762 29.774 75.6539 30.0937 75.4085C30.4134 75.1632 30.5733 74.8545 30.5733 74.4812C30.5733 74.0975 30.4027 73.8153 30.0618 73.6339C29.7207 73.442 29.1933 73.2557 28.4793 73.0743C27.8292 72.904 27.2965 72.733 26.8809 72.5627C26.4759 72.3813 26.1242 72.1206 25.8259 71.7793C25.5382 71.4276 25.3943 70.9695 25.3943 70.4044C25.3943 69.9567 25.5275 69.5466 25.7939 69.1733C26.0603 68.8001 26.4386 68.5074 26.9288 68.294C27.419 68.0702 27.9784 67.9583 28.6072 67.9583C29.5769 67.9583 30.3601 68.2036 30.9569 68.6937C31.5536 69.1838 31.8733 69.8553 31.916 70.7082H30.4614C30.4294 70.25 30.2429 69.8823 29.9019 69.605C29.5715 69.3277 29.124 69.1893 28.5592 69.1893C28.037 69.1893 27.6214 69.3012 27.3124 69.5251C27.0034 69.7489 26.8489 70.0422 26.8489 70.4044C26.8489 70.6922 26.9394 70.932 27.1206 71.1238C27.3124 71.3052 27.5469 71.454 27.8239 71.5715C28.1117 71.6779 28.5059 71.8008 29.0068 71.9392C29.6355 72.1095 30.147 72.2805 30.5413 72.4508C30.9356 72.6107 31.2712 72.856 31.5483 73.1862C31.836 73.5164 31.9852 73.9481 31.9959 74.4812C31.9959 74.9608 31.8627 75.3925 31.5963 75.7762C31.3298 76.1599 30.9515 76.4637 30.4614 76.6875C29.9818 76.9009 29.4277 77.0073 28.799 77.0073ZM33.5057 72.4508C33.5057 71.5555 33.6869 70.7721 34.0492 70.1006C34.4116 69.4187 34.9071 68.8911 35.5358 68.5179C36.1751 68.1446 36.8838 67.9583 37.6617 67.9583C38.4289 67.9583 39.095 68.1237 39.6597 68.4539C40.2245 68.7841 40.6455 69.1998 40.9225 69.7009V68.1022H42.3931V76.8634H40.9225V75.2326C40.6348 75.7442 40.2032 76.1704 39.6278 76.5116C39.063 76.8418 38.4023 77.0073 37.6457 77.0073C36.8678 77.0073 36.1645 76.8154 35.5358 76.4317C34.9071 76.048 34.4116 75.51 34.0492 74.817C33.6869 74.124 33.5057 73.3356 33.5057 72.4508ZM40.9225 72.4668C40.9225 71.8058 40.7893 71.2302 40.5229 70.7401C40.2565 70.25 39.8942 69.8768 39.436 69.621C38.9884 69.3547 38.4929 69.2213 37.9494 69.2213C37.4059 69.2213 36.9104 69.3492 36.4629 69.605C36.0153 69.8608 35.6583 70.2341 35.3919 70.7241C35.1255 71.2142 34.9923 71.7898 34.9923 72.4508C34.9923 73.1223 35.1255 73.7083 35.3919 74.2094C35.6583 74.6995 36.0153 75.0783 36.4629 75.3446C36.9104 75.6004 37.4059 75.7283 37.9494 75.7283C38.4929 75.7283 38.9884 75.6004 39.436 75.3446C39.8942 75.0783 40.2565 74.6995 40.5229 74.2094C40.7893 73.7083 40.9225 73.1278 40.9225 72.4668ZM49.119 67.9423C50.1847 67.9423 51.0479 68.2676 51.7085 68.9175C52.3692 69.557 52.6995 70.4843 52.6995 71.6994V76.8634H51.2609V71.9072C51.2609 71.0334 51.0425 70.3669 50.6056 69.9088C50.1687 69.4396 49.5719 69.2053 48.8153 69.2053C48.0481 69.2053 47.4354 69.4451 46.9771 69.9248C46.5295 70.4044 46.3058 71.1023 46.3058 72.0191V76.8634H44.8512V68.1022H46.3058V69.3492C46.5935 68.9016 46.9825 68.5554 47.4726 68.31C47.9735 68.0647 48.5223 67.9423 49.119 67.9423ZM58.6881 67.9583C59.4447 67.9583 60.1054 68.1237 60.6702 68.4539C61.2456 68.7841 61.6717 69.1998 61.9489 69.7009V68.1022H63.4195V77.0552C63.4195 77.8546 63.2492 78.5636 62.908 79.1816C62.5668 79.8106 62.0768 80.3007 61.4374 80.6524C60.8087 81.0042 60.0734 81.18 59.2316 81.18C58.0807 81.18 57.1216 80.9082 56.3544 80.3647C55.5871 79.8211 55.1342 79.0801 54.9957 78.1424H56.4343C56.5941 78.6755 56.9245 79.1016 57.4253 79.4214C57.9262 79.7516 58.5283 79.917 59.2316 79.917C60.0308 79.917 60.6808 79.6667 61.1817 79.1656C61.6932 78.6644 61.9489 77.961 61.9489 77.0552V75.2166C61.6612 75.7283 61.235 76.1544 60.6702 76.4957C60.1054 76.8369 59.4447 77.0073 58.6881 77.0073C57.9102 77.0073 57.2015 76.8154 56.5622 76.4317C55.9334 76.048 55.4379 75.51 55.0756 74.817C54.7133 74.124 54.5322 73.3356 54.5322 72.4508C54.5322 71.5555 54.7133 70.7721 55.0756 70.1006C55.4379 69.4187 55.9334 68.8911 56.5622 68.5179C57.2015 68.1446 57.9102 67.9583 58.6881 67.9583ZM61.9489 72.4668C61.9489 71.8058 61.8155 71.2302 61.5493 70.7401C61.2829 70.25 60.9206 69.8768 60.4624 69.621C60.0148 69.3547 59.5193 69.2213 58.9758 69.2213C58.4324 69.2213 57.9368 69.3492 57.4893 69.605C57.0417 69.8608 56.6847 70.2341 56.4183 70.7241C56.1519 71.2142 56.0187 71.7898 56.0187 72.4508C56.0187 73.1223 56.1519 73.7083 56.4183 74.2094C56.6847 74.6995 57.0417 75.0783 57.4893 75.3446C57.9368 75.6004 58.4324 75.7283 58.9758 75.7283C59.5193 75.7283 60.0148 75.6004 60.4624 75.3446C60.9206 75.0783 61.2829 74.6995 61.5493 74.2094C61.8155 73.7083 61.9489 73.1278 61.9489 72.4668ZM73.8696 72.147C73.8696 72.4244 73.8536 72.7171 73.8217 73.0264H66.8205C66.874 73.8897 67.1672 74.5667 67.6996 75.0568C68.2431 75.5364 68.8985 75.7762 69.6657 75.7762C70.2947 75.7762 70.8166 75.6323 71.2322 75.3446C71.6589 75.0463 71.957 74.6516 72.1273 74.1615H73.6938C73.4596 75.0033 72.9905 75.6907 72.2872 76.2239C71.5839 76.7459 70.7102 77.0073 69.6657 77.0073C68.8345 77.0073 68.0888 76.8209 67.4279 76.4477C66.7781 76.0744 66.2666 75.5469 65.8934 74.8649C65.5208 74.1719 65.3339 73.3725 65.3339 72.4668C65.3339 71.561 65.5153 70.7666 65.8774 70.0846C66.2401 69.4027 66.7461 68.88 67.3959 68.5179C68.0568 68.1446 68.8136 67.9583 69.6657 67.9583C70.4969 67.9583 71.2322 68.1397 71.8716 68.5019C72.511 68.864 73.0015 69.3652 73.3421 70.0047C73.6938 70.6337 73.8696 71.3477 73.8696 72.147ZM72.3671 71.8433C72.3671 71.2892 72.2447 70.8145 71.9995 70.4204C71.7548 70.0152 71.4191 69.7114 70.9924 69.5091C70.5768 69.2957 70.1133 69.1893 69.6018 69.1893C68.8665 69.1893 68.2382 69.4236 67.7156 69.8928C67.2041 70.362 66.9115 71.0119 66.8365 71.8433H72.3671ZM77.2442 65.0326V76.8634H75.7896V65.0326H77.2442ZM79.1802 72.4508C79.1802 71.5555 79.3609 70.7721 79.7236 70.1006C80.0857 69.4187 80.5812 68.8911 81.2102 68.5179C81.8495 68.1446 82.5578 67.9583 83.3361 67.9583C84.1034 67.9583 84.7692 68.1237 85.3342 68.4539C85.8985 68.7841 86.3197 69.1998 86.5969 69.7009V68.1022H88.0675V76.8634H86.5969V75.2326C86.3092 75.7442 85.8776 76.1704 85.3022 76.5116C84.7372 76.8418 84.0763 77.0073 83.3201 77.0073C82.5418 77.0073 81.8385 76.8154 81.2102 76.4317C80.5812 76.048 80.0857 75.51 79.7236 74.817C79.3609 74.124 79.1802 73.3356 79.1802 72.4508ZM86.5969 72.4668C86.5969 71.8058 86.4635 71.2302 86.1973 70.7401C85.9305 70.25 85.5684 69.8768 85.1104 69.621C84.6628 69.3547 84.1673 69.2213 83.6238 69.2213C83.0804 69.2213 82.5848 69.3492 82.1373 69.605C81.6897 69.8608 81.3325 70.2341 81.0663 70.7241C80.7995 71.2142 80.6667 71.7898 80.6667 72.4508C80.6667 73.1223 80.7995 73.7083 81.0663 74.2094C81.3325 74.6995 81.6897 75.0783 82.1373 75.3446C82.5848 75.6004 83.0804 75.7283 83.6238 75.7283C84.1673 75.7283 84.6628 75.6004 85.1104 75.3446C85.5684 75.0783 85.9305 74.6995 86.1973 74.2094C86.4635 73.7083 86.5969 73.1278 86.5969 72.4668ZM100.366 71.1238C100.77 71.1878 101.138 71.3532 101.469 71.6194C101.809 71.8857 102.076 72.2165 102.268 72.6107C102.47 73.0048 102.572 73.426 102.572 73.8737C102.572 74.4388 102.428 74.9504 102.14 75.4085C101.852 75.8562 101.431 76.2134 100.877 76.4797C100.334 76.7355 99.6888 76.8634 98.9431 76.8634H94.7871V65.72H98.7832C99.5394 65.72 100.184 65.8479 100.717 66.1037C101.25 66.3491 101.649 66.6848 101.916 67.1109C102.182 67.5371 102.316 68.0167 102.316 68.5498C102.316 69.2109 102.134 69.7593 101.772 70.1965C101.421 70.6227 100.952 70.932 100.366 71.1238ZM96.2417 70.5323H98.6873C99.3691 70.5323 99.8966 70.3724 100.27 70.0527C100.642 69.7329 100.829 69.2908 100.829 68.7257C100.829 68.1606 100.642 67.7185 100.27 67.3987C99.8966 67.079 99.3587 66.9191 98.6553 66.9191H96.2417V70.5323ZM98.8152 75.6643C99.5394 75.6643 100.104 75.494 100.51 75.1527C100.914 74.8114 101.117 74.3373 101.117 73.7298C101.117 73.1118 100.904 72.6267 100.478 72.2749C100.051 71.9128 99.481 71.7314 98.7672 71.7314H96.2417V75.6643H98.8152ZM106.044 69.5251C106.3 69.0239 106.662 68.6353 107.131 68.358C107.611 68.0807 108.192 67.9423 108.874 67.9423V69.4451H108.49C106.86 69.4451 106.044 70.33 106.044 72.0991V76.8634H104.59V68.1022H106.044V69.5251ZM112.007 68.1022V76.8634H110.553V68.1022H112.007ZM112.838 65.6241L109.434 67.4467V66.3595L112.838 64.3611V65.6241ZM118.099 67.9583C118.855 67.9583 119.516 68.1237 120.081 68.4539C120.657 68.7841 121.083 69.1998 121.36 69.7009V68.1022H122.831V77.0552C122.831 77.8546 122.66 78.5636 122.319 79.1816C121.978 79.8106 121.488 80.3007 120.849 80.6524C120.22 81.0042 119.484 81.18 118.643 81.18C117.492 81.18 116.533 80.9082 115.765 80.3647C114.998 79.8211 114.545 79.0801 114.407 78.1424H115.845C116.005 78.6755 116.335 79.1016 116.836 79.4214C117.337 79.7516 117.939 79.917 118.643 79.917C119.442 79.917 120.092 79.6667 120.593 79.1656C121.104 78.6644 121.36 77.961 121.36 77.0552V75.2166C121.072 75.7283 120.646 76.1544 120.081 76.4957C119.516 76.8369 118.855 77.0073 118.099 77.0073C117.321 77.0073 116.613 76.8154 115.973 76.4317C115.344 76.048 114.849 75.51 114.487 74.817C114.124 74.124 113.943 73.3356 113.943 72.4508C113.943 71.5555 114.124 70.7721 114.487 70.1006C114.849 69.4187 115.344 68.8911 115.973 68.5179C116.613 68.1446 117.321 67.9583 118.099 67.9583ZM121.36 72.4668C121.36 71.8058 121.227 71.2302 120.96 70.7401C120.694 70.25 120.331 69.8768 119.873 69.621C119.426 69.3547 118.93 69.2213 118.387 69.2213C117.843 69.2213 117.348 69.3492 116.9 69.605C116.453 69.8608 116.096 70.2341 115.829 70.7241C115.563 71.2142 115.43 71.7898 115.43 72.4508C115.43 73.1223 115.563 73.7083 115.829 74.2094C116.096 74.6995 116.453 75.0783 116.9 75.3446C117.348 75.6004 117.843 75.7283 118.387 75.7283C118.93 75.7283 119.426 75.6004 119.873 75.3446C120.331 75.0783 120.694 74.6995 120.96 74.2094C121.227 73.7083 121.36 73.1278 121.36 72.4668ZM126.04 66.6793C125.762 66.6793 125.528 66.5834 125.336 66.3915C125.145 66.1997 125.049 65.9654 125.049 65.6881C125.049 65.4107 125.145 65.1765 125.336 64.9846C125.528 64.7927 125.762 64.6968 126.04 64.6968C126.306 64.6968 126.53 64.7927 126.711 64.9846C126.903 65.1765 126.999 65.4107 126.999 65.6881C126.999 65.9654 126.903 66.1997 126.711 66.3915C126.53 66.5834 126.306 66.6793 126.04 66.6793ZM126.743 68.1022V76.8634H125.288V68.1022H126.743ZM128.678 72.4508C128.678 71.5555 128.86 70.7721 129.222 70.1006C129.585 69.4187 130.08 68.8911 130.708 68.5179C131.348 68.1446 132.062 67.9583 132.85 67.9583C133.533 67.9583 134.167 68.1182 134.753 68.4379C135.339 68.7472 135.787 69.1574 136.095 69.669V65.0326H137.566V76.8634H136.095V75.2166C135.807 75.7387 135.381 76.1704 134.816 76.5116C134.252 76.8418 133.591 77.0073 132.834 77.0073C132.057 77.0073 131.348 76.8154 130.708 76.4317C130.08 76.048 129.585 75.51 129.222 74.817C128.86 74.124 128.678 73.3356 128.678 72.4508ZM136.095 72.4668C136.095 71.8058 135.962 71.2302 135.696 70.7401C135.429 70.25 135.067 69.8768 134.609 69.621C134.161 69.3547 133.666 69.2213 133.122 69.2213C132.579 69.2213 132.083 69.3492 131.636 69.605C131.188 69.8608 130.831 70.2341 130.565 70.7241C130.298 71.2142 130.165 71.7898 130.165 72.4508C130.165 73.1223 130.298 73.7083 130.565 74.2094C130.831 74.6995 131.188 75.0783 131.636 75.3446C132.083 75.6004 132.579 75.7283 133.122 75.7283C133.666 75.7283 134.161 75.6004 134.609 75.3446C135.067 75.0783 135.429 74.6995 135.696 74.2094C135.962 73.7083 136.095 73.1278 136.095 72.4668ZM139.481 72.4508C139.481 71.5555 139.662 70.7721 140.024 70.1006C140.386 69.4187 140.882 68.8911 141.511 68.5179C142.15 68.1446 142.858 67.9583 143.637 67.9583C144.404 67.9583 145.07 68.1237 145.635 68.4539C146.199 68.7841 146.62 69.1998 146.898 69.7009V68.1022H148.368V76.8634H146.898V75.2326C146.61 75.7442 146.178 76.1704 145.603 76.5116C145.038 76.8418 144.377 77.0073 143.621 77.0073C142.842 77.0073 142.139 76.8154 141.511 76.4317C140.882 76.048 140.386 75.51 140.024 74.817C139.662 74.124 139.481 73.3356 139.481 72.4508ZM146.898 72.4668C146.898 71.8058 146.764 71.2302 146.498 70.7401C146.231 70.25 145.869 69.8768 145.411 69.621C144.963 69.3547 144.468 69.2213 143.924 69.2213C143.381 69.2213 142.885 69.3492 142.438 69.605C141.99 69.8608 141.633 70.2341 141.367 70.7241C141.1 71.2142 140.967 71.7898 140.967 72.4508C140.967 73.1223 141.1 73.7083 141.367 74.2094C141.633 74.6995 141.99 75.0783 142.438 75.3446C142.885 75.6004 143.381 75.7283 143.924 75.7283C144.468 75.7283 144.963 75.6004 145.411 75.3446C145.869 75.0783 146.231 74.6995 146.498 74.2094C146.764 73.7083 146.898 73.1278 146.898 72.4668Z" fill="white"/>
</svg>
