<svg width="326" height="257" viewBox="0 0 326 257" fill="none" xmlns="http://www.w3.org/2000/svg">
<path d="M0 183.28H47.05L163.24 92.04L278.37 183.28H325.07L162.53 53.54L0 183.28Z" fill="#DF893F"/>
<path d="M0 129.75H47.05L163.24 38.5L278.37 129.75H325.07L162.53 0L0 129.75Z" fill="black"/>
<path d="M160.64 136.59H144.01V153.22H160.64V136.59Z" fill="#DF893F"/>
<path d="M181.06 157.01H164.43V173.64H181.06V157.01Z" fill="#DF893F"/>
<path d="M181.06 136.59H164.43V153.22H181.06V136.59Z" fill="black"/>
<path d="M160.64 157.01H144.01V173.64H160.64V157.01Z" fill="black"/>
<path d="M69.0345 219.444V202.643H79.174V204.448H71.0689V210.125H78.649V211.93H71.0689V217.639H79.3053V219.444H69.0345ZM84.5145 202.643V219.444H82.5785V202.643H84.5145ZM88.0605 219.444V206.843H89.9965V219.444H88.0605ZM89.0449 204.743C88.6675 204.743 88.3421 204.615 88.0687 204.358C87.8007 204.101 87.6667 203.792 87.6667 203.431C87.6667 203.07 87.8007 202.761 88.0687 202.504C88.3421 202.247 88.6675 202.118 89.0449 202.118C89.4223 202.118 89.7449 202.247 90.0129 202.504C90.2864 202.761 90.4231 203.07 90.4231 203.431C90.4231 203.792 90.2864 204.101 90.0129 204.358C89.7449 204.615 89.4223 204.743 89.0449 204.743ZM102.468 209.665L100.729 210.158C100.619 209.868 100.458 209.586 100.245 209.313C100.037 209.034 99.7525 208.804 99.3916 208.624C99.0306 208.443 98.5685 208.353 98.0052 208.353C97.2341 208.353 96.5915 208.531 96.0774 208.886C95.5688 209.236 95.3144 209.682 95.3144 210.223C95.3144 210.705 95.4895 211.085 95.8395 211.364C96.1895 211.643 96.7364 211.875 97.4802 212.061L99.3506 212.52C100.477 212.794 101.317 213.212 101.869 213.775C102.421 214.333 102.698 215.052 102.698 215.933C102.698 216.655 102.49 217.3 102.074 217.869C101.664 218.438 101.09 218.886 100.351 219.214C99.6131 219.543 98.7545 219.707 97.7755 219.707C96.4903 219.707 95.4266 219.428 94.5843 218.87C93.7421 218.312 93.2089 217.497 92.9846 216.425L94.8222 215.966C94.9972 216.644 95.3281 217.153 95.8149 217.492C96.3071 217.831 96.9497 218 97.7427 218C98.6451 218 99.3615 217.809 99.892 217.426C100.428 217.038 100.696 216.573 100.696 216.031C100.696 215.594 100.543 215.227 100.237 214.932C99.9303 214.631 99.46 214.407 98.8256 214.259L96.7255 213.767C95.5715 213.494 94.7238 213.07 94.1824 212.496C93.6464 211.916 93.3784 211.191 93.3784 210.322C93.3784 209.611 93.578 208.982 93.9773 208.435C94.382 207.888 94.9316 207.459 95.6262 207.147C96.3262 206.835 97.1192 206.679 98.0052 206.679C99.2521 206.679 100.231 206.953 100.942 207.5C101.658 208.047 102.167 208.769 102.468 209.665ZM109.278 219.737C108.485 219.737 107.766 219.588 107.12 219.289C106.475 218.986 105.962 218.549 105.582 217.979C105.202 217.404 105.012 216.709 105.012 215.895C105.012 215.179 105.153 214.598 105.435 214.153C105.718 213.702 106.095 213.35 106.567 213.095C107.039 212.84 107.56 212.65 108.13 212.525C108.705 212.395 109.283 212.292 109.864 212.216C110.624 212.118 111.239 212.045 111.712 211.996C112.189 211.941 112.536 211.852 112.754 211.727C112.976 211.602 113.087 211.385 113.087 211.076V211.011C113.087 210.208 112.868 209.584 112.428 209.139C111.994 208.694 111.334 208.471 110.45 208.471C109.533 208.471 108.814 208.672 108.293 209.073C107.772 209.475 107.405 209.904 107.194 210.36L105.37 209.708C105.696 208.949 106.13 208.357 106.673 207.934C107.221 207.505 107.818 207.207 108.464 207.038C109.115 206.865 109.755 206.778 110.385 206.778C110.786 206.778 111.248 206.827 111.769 206.924C112.295 207.017 112.802 207.209 113.291 207.502C113.785 207.795 114.194 208.238 114.52 208.829C114.846 209.421 115.008 210.213 115.008 211.206V219.444H113.087V217.751H112.99C112.859 218.022 112.642 218.313 112.338 218.622C112.034 218.931 111.63 219.194 111.125 219.412C110.621 219.629 110.005 219.737 109.278 219.737ZM109.571 218.011C110.33 218.011 110.971 217.862 111.492 217.564C112.018 217.265 112.414 216.88 112.68 216.408C112.952 215.936 113.087 215.439 113.087 214.918V213.16C113.006 213.257 112.827 213.347 112.55 213.428C112.279 213.504 111.964 213.572 111.606 213.632C111.253 213.686 110.908 213.735 110.572 213.778C110.241 213.816 109.972 213.849 109.766 213.876C109.267 213.941 108.8 214.047 108.366 214.194C107.937 214.335 107.59 214.549 107.324 214.837C107.063 215.119 106.933 215.504 106.933 215.993C106.933 216.66 107.18 217.165 107.674 217.507C108.173 217.843 108.806 218.011 109.571 218.011ZM120.436 211.922V219.444H118.515V206.941H120.371V208.894H120.534C120.827 208.259 121.272 207.749 121.869 207.364C122.466 206.973 123.236 206.778 124.18 206.778C125.027 206.778 125.768 206.951 126.403 207.299C127.038 207.641 127.532 208.162 127.884 208.862C128.237 209.556 128.413 210.436 128.413 211.499V219.444H126.492V211.629C126.492 210.647 126.237 209.882 125.727 209.334C125.217 208.78 124.517 208.504 123.627 208.504C123.014 208.504 122.466 208.637 121.983 208.902C121.505 209.168 121.128 209.556 120.851 210.067C120.574 210.577 120.436 211.195 120.436 211.922ZM136.971 224.393C136.043 224.393 135.245 224.274 134.578 224.035C133.91 223.802 133.354 223.493 132.909 223.107C132.469 222.727 132.119 222.32 131.859 221.886L133.389 220.812C133.563 221.04 133.783 221.3 134.048 221.593C134.314 221.892 134.678 222.149 135.139 222.366C135.606 222.589 136.217 222.7 136.971 222.7C137.98 222.7 138.813 222.456 139.47 221.968C140.127 221.479 140.455 220.714 140.455 219.672V217.132H140.292C140.151 217.36 139.95 217.642 139.69 217.979C139.435 218.31 139.066 218.606 138.583 218.866C138.105 219.121 137.459 219.249 136.645 219.249C135.636 219.249 134.73 219.01 133.926 218.532C133.129 218.055 132.496 217.36 132.03 216.448C131.568 215.537 131.338 214.43 131.338 213.127C131.338 211.847 131.563 210.731 132.013 209.782C132.464 208.826 133.091 208.088 133.894 207.567C134.697 207.041 135.625 206.778 136.678 206.778C137.492 206.778 138.138 206.914 138.615 207.185C139.098 207.451 139.467 207.755 139.722 208.097C139.983 208.433 140.184 208.71 140.325 208.927H140.52V206.941H142.376V219.802C142.376 220.877 142.132 221.751 141.643 222.423C141.16 223.102 140.509 223.598 139.69 223.913C138.876 224.233 137.969 224.393 136.971 224.393ZM136.906 217.523C137.676 217.523 138.328 217.347 138.859 216.994C139.391 216.641 139.796 216.134 140.072 215.472C140.349 214.81 140.487 214.017 140.487 213.095C140.487 212.194 140.352 211.399 140.08 210.71C139.809 210.02 139.408 209.48 138.876 209.09C138.344 208.699 137.687 208.504 136.906 208.504C136.092 208.504 135.413 208.71 134.871 209.122C134.333 209.535 133.929 210.088 133.658 210.783C133.392 211.477 133.259 212.248 133.259 213.095C133.259 213.963 133.395 214.731 133.666 215.398C133.943 216.06 134.35 216.581 134.887 216.961C135.43 217.336 136.103 217.523 136.906 217.523ZM151.135 219.705C149.93 219.705 148.891 219.439 148.017 218.907C147.149 218.37 146.479 217.621 146.007 216.66C145.54 215.694 145.306 214.571 145.306 213.29C145.306 212.009 145.54 210.881 146.007 209.904C146.479 208.921 147.135 208.156 147.976 207.608C148.823 207.055 149.811 206.778 150.94 206.778C151.591 206.778 152.234 206.886 152.869 207.103C153.504 207.321 154.082 207.673 154.603 208.162C155.124 208.645 155.539 209.285 155.848 210.083C156.157 210.881 156.312 211.863 156.312 213.03V213.844H146.674V212.183H154.358C154.358 211.477 154.217 210.848 153.935 210.294C153.658 209.741 153.262 209.304 152.747 208.984C152.237 208.664 151.634 208.504 150.94 208.504C150.174 208.504 149.512 208.694 148.953 209.073C148.4 209.448 147.974 209.936 147.675 210.539C147.377 211.141 147.228 211.787 147.228 212.476V213.583C147.228 214.527 147.39 215.328 147.716 215.984C148.047 216.636 148.506 217.132 149.092 217.474C149.678 217.811 150.359 217.979 151.135 217.979C151.64 217.979 152.095 217.908 152.502 217.767C152.915 217.621 153.27 217.404 153.569 217.116C153.867 216.823 154.098 216.459 154.261 216.025L156.117 216.546C155.921 217.176 155.593 217.729 155.132 218.207C154.671 218.679 154.101 219.048 153.422 219.314C152.744 219.574 151.982 219.705 151.135 219.705ZM161.156 202.773V219.444H159.234V202.773H161.156ZM168.354 219.737C167.561 219.737 166.842 219.588 166.196 219.289C165.551 218.986 165.038 218.549 164.658 217.979C164.278 217.404 164.088 216.709 164.088 215.895C164.088 215.179 164.229 214.598 164.511 214.153C164.794 213.702 165.171 213.35 165.643 213.095C166.115 212.84 166.636 212.65 167.206 212.525C167.781 212.395 168.359 212.292 168.94 212.216C169.699 212.118 170.315 212.045 170.788 211.996C171.265 211.941 171.612 211.852 171.83 211.727C172.052 211.602 172.163 211.385 172.163 211.076V211.011C172.163 210.208 171.943 209.584 171.504 209.139C171.07 208.694 170.41 208.471 169.526 208.471C168.609 208.471 167.89 208.672 167.369 209.073C166.848 209.475 166.481 209.904 166.27 210.36L164.446 209.708C164.772 208.949 165.206 208.357 165.749 207.934C166.297 207.505 166.894 207.207 167.54 207.038C168.191 206.865 168.831 206.778 169.461 206.778C169.862 206.778 170.324 206.827 170.845 206.924C171.371 207.017 171.878 207.209 172.367 207.502C172.861 207.795 173.27 208.238 173.596 208.829C173.922 209.421 174.084 210.213 174.084 211.206V219.444H172.163V217.751H172.066C171.935 218.022 171.718 218.313 171.414 218.622C171.11 218.931 170.706 219.194 170.201 219.412C169.697 219.629 169.081 219.737 168.354 219.737ZM168.647 218.011C169.406 218.011 170.047 217.862 170.568 217.564C171.094 217.265 171.49 216.88 171.756 216.408C172.028 215.936 172.163 215.439 172.163 214.918V213.16C172.082 213.257 171.903 213.347 171.626 213.428C171.355 213.504 171.04 213.572 170.682 213.632C170.329 213.686 169.984 213.735 169.648 213.778C169.317 213.816 169.048 213.849 168.842 213.876C168.343 213.941 167.876 214.047 167.442 214.194C167.013 214.335 166.666 214.549 166.4 214.837C166.139 215.119 166.009 215.504 166.009 215.993C166.009 216.66 166.256 217.165 166.75 217.507C167.249 217.843 167.881 218.011 168.647 218.011ZM184.298 219.444V202.773H190.127C191.288 202.773 192.246 202.974 193 203.375C193.755 203.771 194.316 204.306 194.685 204.979C195.054 205.646 195.239 206.387 195.239 207.201C195.239 207.917 195.111 208.509 194.856 208.976C194.607 209.442 194.276 209.811 193.863 210.083C193.456 210.354 193.014 210.555 192.536 210.685V210.848C193.046 210.881 193.559 211.06 194.075 211.385C194.59 211.711 195.022 212.178 195.369 212.785C195.716 213.393 195.89 214.137 195.89 215.016C195.89 215.852 195.7 216.603 195.32 217.271C194.94 217.938 194.341 218.467 193.521 218.858C192.702 219.249 191.635 219.444 190.322 219.444H184.298ZM186.317 217.653H190.322C191.641 217.653 192.577 217.398 193.131 216.888C193.69 216.372 193.969 215.748 193.969 215.016C193.969 214.451 193.825 213.93 193.538 213.453C193.25 212.97 192.84 212.585 192.308 212.297C191.777 212.004 191.147 211.857 190.42 211.857H186.317V217.653ZM186.317 210.099H190.062C190.669 210.099 191.218 209.98 191.706 209.741C192.2 209.502 192.591 209.166 192.878 208.731C193.171 208.297 193.318 207.787 193.318 207.201C193.318 206.469 193.063 205.847 192.553 205.337C192.042 204.821 191.234 204.564 190.127 204.564H186.317V210.099ZM198.947 219.444V206.941H200.803V208.829H200.933C201.161 208.211 201.573 207.709 202.17 207.323C202.767 206.938 203.44 206.745 204.189 206.745C204.33 206.745 204.507 206.748 204.718 206.753C204.93 206.759 205.09 206.767 205.199 206.778V208.731C205.133 208.715 204.984 208.691 204.751 208.658C204.523 208.62 204.281 208.601 204.026 208.601C203.419 208.601 202.876 208.729 202.398 208.984C201.926 209.233 201.552 209.581 201.275 210.026C201.004 210.465 200.868 210.967 200.868 211.532V219.444H198.947ZM207.476 219.444V206.941H209.397V219.444H207.476ZM208.453 204.857C208.078 204.857 207.755 204.729 207.484 204.474C207.218 204.219 207.085 203.912 207.085 203.554C207.085 203.196 207.218 202.889 207.484 202.634C207.755 202.379 208.078 202.252 208.453 202.252C208.827 202.252 209.147 202.379 209.413 202.634C209.684 202.889 209.82 203.196 209.82 203.554C209.82 203.912 209.684 204.219 209.413 204.474C209.147 204.729 208.827 204.857 208.453 204.857ZM217.962 224.393C217.034 224.393 216.237 224.274 215.569 224.035C214.902 223.802 214.345 223.493 213.9 223.107C213.461 222.727 213.111 222.32 212.85 221.886L214.381 220.812C214.554 221.04 214.774 221.3 215.04 221.593C215.306 221.892 215.67 222.149 216.131 222.366C216.598 222.589 217.208 222.7 217.962 222.7C218.972 222.7 219.805 222.456 220.462 221.968C221.118 221.479 221.446 220.714 221.446 219.672V217.132H221.284C221.143 217.36 220.942 217.642 220.681 217.979C220.426 218.31 220.057 218.606 219.574 218.866C219.097 219.121 218.451 219.249 217.637 219.249C216.627 219.249 215.721 219.01 214.918 218.532C214.12 218.055 213.488 217.36 213.021 216.448C212.56 215.537 212.329 214.43 212.329 213.127C212.329 211.847 212.555 210.731 213.005 209.782C213.455 208.826 214.082 208.088 214.885 207.567C215.689 207.041 216.617 206.778 217.669 206.778C218.483 206.778 219.129 206.914 219.607 207.185C220.09 207.451 220.459 207.755 220.714 208.097C220.974 208.433 221.175 208.71 221.316 208.927H221.512V206.941H223.368V219.802C223.368 220.877 223.123 221.751 222.635 222.423C222.152 223.102 221.501 223.598 220.681 223.913C219.867 224.233 218.961 224.393 217.962 224.393ZM217.897 217.523C218.668 217.523 219.319 217.347 219.851 216.994C220.383 216.641 220.787 216.134 221.064 215.472C221.341 214.81 221.479 214.017 221.479 213.095C221.479 212.194 221.343 211.399 221.072 210.71C220.801 210.02 220.399 209.48 219.867 209.09C219.335 208.699 218.679 208.504 217.897 208.504C217.083 208.504 216.405 208.71 215.862 209.122C215.325 209.535 214.921 210.088 214.649 210.783C214.383 211.477 214.25 212.248 214.25 213.095C214.25 213.963 214.386 214.731 214.658 215.398C214.934 216.06 215.341 216.581 215.879 216.961C216.421 217.336 217.094 217.523 217.897 217.523ZM226.884 219.444V206.941H228.805V219.444H226.884ZM227.861 204.857C227.487 204.857 227.164 204.729 226.892 204.474C226.626 204.219 226.493 203.912 226.493 203.554C226.493 203.196 226.626 202.889 226.892 202.634C227.164 202.379 227.487 202.252 227.861 202.252C228.235 202.252 228.556 202.379 228.822 202.634C229.093 202.889 229.229 203.196 229.229 203.554C229.229 203.912 229.093 204.219 228.822 204.474C228.556 204.729 228.235 204.857 227.861 204.857ZM237.045 219.705C236.003 219.705 235.083 219.441 234.286 218.915C233.488 218.383 232.864 217.634 232.413 216.668C231.963 215.697 231.738 214.549 231.738 213.225C231.738 211.912 231.963 210.772 232.413 209.806C232.864 208.84 233.491 208.094 234.294 207.567C235.097 207.041 236.025 206.778 237.078 206.778C237.892 206.778 238.535 206.914 239.007 207.185C239.485 207.451 239.848 207.755 240.098 208.097C240.353 208.433 240.551 208.71 240.692 208.927H240.855V202.773H242.776V219.444H240.92V217.523H240.692C240.551 217.751 240.35 218.039 240.09 218.386C239.829 218.728 239.458 219.034 238.975 219.306C238.492 219.572 237.848 219.705 237.045 219.705ZM237.306 217.979C238.076 217.979 238.728 217.778 239.259 217.376C239.791 216.969 240.196 216.408 240.472 215.691C240.749 214.97 240.888 214.137 240.888 213.192C240.888 212.259 240.752 211.442 240.48 210.742C240.209 210.037 239.808 209.489 239.276 209.098C238.744 208.702 238.087 208.504 237.306 208.504C236.492 208.504 235.813 208.713 235.271 209.13C234.733 209.543 234.329 210.104 234.058 210.815C233.792 211.521 233.659 212.313 233.659 213.192C233.659 214.082 233.795 214.891 234.066 215.618C234.343 216.34 234.75 216.915 235.287 217.344C235.83 217.767 236.503 217.979 237.306 217.979ZM250.241 219.737C249.448 219.737 248.729 219.588 248.084 219.289C247.438 218.986 246.925 218.549 246.545 217.979C246.165 217.404 245.975 216.709 245.975 215.895C245.975 215.179 246.116 214.598 246.398 214.153C246.681 213.702 247.058 213.35 247.53 213.095C248.002 212.84 248.523 212.65 249.093 212.525C249.668 212.395 250.246 212.292 250.827 212.216C251.587 212.118 252.202 212.045 252.675 211.996C253.152 211.941 253.5 211.852 253.717 211.727C253.939 211.602 254.05 211.385 254.05 211.076V211.011C254.05 210.208 253.831 209.584 253.391 209.139C252.957 208.694 252.297 208.471 251.413 208.471C250.496 208.471 249.777 208.672 249.256 209.073C248.735 209.475 248.368 209.904 248.157 210.36L246.333 209.708C246.659 208.949 247.093 208.357 247.636 207.934C248.184 207.505 248.781 207.207 249.427 207.038C250.078 206.865 250.718 206.778 251.348 206.778C251.749 206.778 252.211 206.827 252.732 206.924C253.258 207.017 253.765 207.209 254.254 207.502C254.748 207.795 255.157 208.238 255.483 208.829C255.809 209.421 255.971 210.213 255.971 211.206V219.444H254.05V217.751H253.953C253.822 218.022 253.605 218.313 253.301 218.622C252.998 218.931 252.593 219.194 252.089 219.412C251.584 219.629 250.968 219.737 250.241 219.737ZM250.534 218.011C251.293 218.011 251.934 217.862 252.455 217.564C252.981 217.265 253.377 216.88 253.643 216.408C253.915 215.936 254.05 215.439 254.05 214.918V213.16C253.969 213.257 253.79 213.347 253.513 213.428C253.242 213.504 252.927 213.572 252.569 213.632C252.216 213.686 251.871 213.735 251.535 213.778C251.204 213.816 250.935 213.849 250.729 213.876C250.23 213.941 249.763 214.047 249.329 214.194C248.9 214.335 248.553 214.549 248.287 214.837C248.027 215.119 247.896 215.504 247.896 215.993C247.896 216.66 248.143 217.165 248.637 217.507C249.136 217.843 249.769 218.011 250.534 218.011Z" fill="black"/>
<path d="M74.9113 242.412H73.2225C73.1226 241.926 72.9478 241.499 72.6981 241.132C72.453 240.764 72.1533 240.455 71.7992 240.206C71.4497 239.951 71.0615 239.761 70.6348 239.633C70.208 239.506 69.7631 239.443 69.3001 239.443C68.4556 239.443 67.6907 239.656 67.0052 240.083C66.3242 240.51 65.7817 241.138 65.3776 241.969C64.9781 242.8 64.7784 243.819 64.7784 245.027C64.7784 246.234 64.9781 247.254 65.3776 248.084C65.7817 248.915 66.3242 249.544 67.0052 249.971C67.6907 250.397 68.4556 250.611 69.3001 250.611C69.7631 250.611 70.208 250.547 70.6348 250.42C71.0615 250.293 71.4497 250.105 71.7992 249.855C72.1533 249.601 72.453 249.29 72.6981 248.922C72.9478 248.55 73.1226 248.123 73.2225 247.642H74.9113C74.7842 248.355 74.5526 248.992 74.2167 249.555C73.8807 250.118 73.4631 250.597 72.9637 250.992C72.4643 251.383 71.9036 251.68 71.2817 251.884C70.6643 252.089 70.0037 252.191 69.3001 252.191C68.1106 252.191 67.0528 251.9 66.1267 251.319C65.2006 250.738 64.4719 249.912 63.9408 248.84C63.4096 247.769 63.144 246.498 63.144 245.027C63.144 243.556 63.4096 242.285 63.9408 241.213C64.4719 240.142 65.2006 239.316 66.1267 238.735C67.0528 238.154 68.1106 237.863 69.3001 237.863C70.0037 237.863 70.6643 237.965 71.2817 238.169C71.9036 238.374 72.4643 238.673 72.9637 239.068C73.4631 239.459 73.8807 239.935 74.2167 240.498C74.5526 241.057 74.7842 241.695 74.9113 242.412ZM81.6717 252.218C80.7274 252.218 79.8989 251.993 79.1861 251.544C78.4779 251.094 77.924 250.466 77.5245 249.657C77.1296 248.849 76.9321 247.905 76.9321 246.825C76.9321 245.735 77.1296 244.784 77.5245 243.971C77.924 243.159 78.4779 242.528 79.1861 242.078C79.8989 241.629 80.7274 241.404 81.6717 241.404C82.6159 241.404 83.4422 241.629 84.1504 242.078C84.8632 242.528 85.417 243.159 85.812 243.971C86.2115 244.784 86.4112 245.735 86.4112 246.825C86.4112 247.905 86.2115 248.849 85.812 249.657C85.417 250.466 84.8632 251.094 84.1504 251.544C83.4422 251.993 82.6159 252.218 81.6717 252.218ZM81.6717 250.774C82.389 250.774 82.9791 250.59 83.4422 250.223C83.9053 249.855 84.248 249.371 84.4705 248.772C84.6929 248.173 84.8041 247.524 84.8041 246.825C84.8041 246.125 84.6929 245.474 84.4705 244.87C84.248 244.266 83.9053 243.778 83.4422 243.406C82.9791 243.034 82.389 242.848 81.6717 242.848C80.9544 242.848 80.3642 243.034 79.9011 243.406C79.4381 243.778 79.0953 244.266 78.8729 244.87C78.6504 245.474 78.5392 246.125 78.5392 246.825C78.5392 247.524 78.6504 248.173 78.8729 248.772C79.0953 249.371 79.4381 249.855 79.9011 250.223C80.3642 250.59 80.9544 250.774 81.6717 250.774ZM90.4716 245.708V252H88.8645V241.54H90.4171V243.175H90.5533C90.7984 242.643 91.1707 242.217 91.6701 241.894C92.1695 241.567 92.8141 241.404 93.604 241.404C94.3123 241.404 94.9319 241.549 95.4631 241.84C95.9943 242.126 96.4074 242.562 96.7025 243.147C96.9976 243.728 97.1451 244.464 97.1451 245.354V252H95.538V245.463C95.538 244.641 95.3246 244.001 94.8979 243.542C94.4712 243.079 93.8855 242.848 93.141 242.848C92.628 242.848 92.1695 242.959 91.7654 243.181C91.3659 243.404 91.0504 243.728 90.8189 244.155C90.5873 244.582 90.4716 245.099 90.4716 245.708ZM107.491 243.883L106.047 244.291C105.956 244.051 105.822 243.817 105.645 243.59C105.473 243.358 105.237 243.168 104.937 243.018C104.638 242.868 104.254 242.793 103.786 242.793C103.146 242.793 102.613 242.941 102.186 243.236C101.764 243.526 101.553 243.896 101.553 244.346C101.553 244.745 101.698 245.061 101.989 245.292C102.279 245.524 102.733 245.717 103.35 245.871L104.903 246.253C105.838 246.48 106.535 246.827 106.994 247.294C107.452 247.758 107.681 248.355 107.681 249.085C107.681 249.685 107.509 250.22 107.164 250.693C106.823 251.165 106.347 251.537 105.734 251.809C105.121 252.082 104.408 252.218 103.596 252.218C102.529 252.218 101.646 251.986 100.947 251.523C100.248 251.06 99.8049 250.384 99.6188 249.494L101.144 249.113C101.289 249.676 101.564 250.098 101.968 250.379C102.377 250.661 102.91 250.801 103.568 250.801C104.317 250.801 104.912 250.643 105.353 250.325C105.797 250.002 106.02 249.617 106.02 249.167C106.02 248.804 105.893 248.5 105.639 248.255C105.384 248.005 104.994 247.819 104.467 247.696L102.724 247.288C101.766 247.061 101.062 246.709 100.613 246.232C100.168 245.751 99.9456 245.149 99.9456 244.428C99.9456 243.837 100.111 243.315 100.443 242.861C100.779 242.407 101.235 242.051 101.811 241.792C102.393 241.533 103.051 241.404 103.786 241.404C104.821 241.404 105.634 241.631 106.224 242.085C106.819 242.539 107.241 243.138 107.491 243.883ZM116.692 247.723V241.54H118.3V252H116.692V250.229H116.584C116.338 250.761 115.957 251.212 115.44 251.585C114.922 251.952 114.268 252.136 113.478 252.136C112.825 252.136 112.243 251.993 111.735 251.707C111.227 251.417 110.827 250.981 110.536 250.4C110.246 249.814 110.101 249.076 110.101 248.187V241.54H111.708V248.078C111.708 248.84 111.921 249.449 112.348 249.903C112.779 250.357 113.328 250.584 113.996 250.584C114.395 250.584 114.802 250.481 115.215 250.277C115.632 250.073 115.982 249.76 116.263 249.337C116.549 248.915 116.692 248.377 116.692 247.723ZM122.85 238.054V252H121.243V238.054H122.85ZM130.343 241.54V242.902H124.922V241.54H130.343ZM126.502 239.034H128.109V249.004C128.109 249.458 128.175 249.798 128.307 250.025C128.443 250.248 128.615 250.397 128.824 250.475C129.037 250.547 129.262 250.584 129.498 250.584C129.675 250.584 129.821 250.574 129.934 250.556C130.048 250.534 130.138 250.515 130.206 250.502L130.533 251.946C130.424 251.986 130.272 252.027 130.077 252.068C129.882 252.113 129.634 252.136 129.335 252.136C128.881 252.136 128.436 252.039 128 251.843C127.569 251.648 127.21 251.351 126.924 250.951C126.643 250.552 126.502 250.048 126.502 249.44V239.034ZM136.897 252.218C135.953 252.218 135.124 251.993 134.411 251.544C133.703 251.094 133.149 250.466 132.75 249.657C132.355 248.849 132.157 247.905 132.157 246.825C132.157 245.735 132.355 244.784 132.75 243.971C133.149 243.159 133.703 242.528 134.411 242.078C135.124 241.629 135.953 241.404 136.897 241.404C137.841 241.404 138.668 241.629 139.376 242.078C140.089 242.528 140.642 243.159 141.037 243.971C141.437 244.784 141.637 245.735 141.637 246.825C141.637 247.905 141.437 248.849 141.037 249.657C140.642 250.466 140.089 251.094 139.376 251.544C138.668 251.993 137.841 252.218 136.897 252.218ZM136.897 250.774C137.614 250.774 138.204 250.59 138.668 250.223C139.131 249.855 139.473 249.371 139.696 248.772C139.918 248.173 140.03 247.524 140.03 246.825C140.03 246.125 139.918 245.474 139.696 244.87C139.473 244.266 139.131 243.778 138.668 243.406C138.204 243.034 137.614 242.848 136.897 242.848C136.18 242.848 135.59 243.034 135.126 243.406C134.663 243.778 134.321 244.266 134.098 244.87C133.876 245.474 133.765 246.125 133.765 246.825C133.765 247.524 133.876 248.173 134.098 248.772C134.321 249.371 134.663 249.855 135.126 250.223C135.59 250.59 136.18 250.774 136.897 250.774ZM144.09 252V241.54H145.642V243.12H145.751C145.942 242.603 146.287 242.183 146.786 241.86C147.286 241.538 147.849 241.377 148.475 241.377C148.593 241.377 148.741 241.379 148.918 241.384C149.095 241.388 149.229 241.395 149.32 241.404V243.038C149.265 243.025 149.14 243.004 148.945 242.977C148.754 242.945 148.552 242.929 148.339 242.929C147.831 242.929 147.377 243.036 146.977 243.249C146.582 243.458 146.269 243.749 146.037 244.121C145.81 244.489 145.697 244.909 145.697 245.381V252H144.09ZM151.225 252V241.54H152.832V252H151.225ZM152.042 239.797C151.729 239.797 151.459 239.69 151.232 239.477C151.009 239.263 150.898 239.007 150.898 238.707C150.898 238.408 151.009 238.151 151.232 237.938C151.459 237.724 151.729 237.618 152.042 237.618C152.355 237.618 152.623 237.724 152.845 237.938C153.072 238.151 153.186 238.408 153.186 238.707C153.186 239.007 153.072 239.263 152.845 239.477C152.623 239.69 152.355 239.797 152.042 239.797ZM158.853 252.245C158.191 252.245 157.589 252.12 157.049 251.871C156.509 251.616 156.08 251.251 155.762 250.774C155.444 250.293 155.285 249.712 155.285 249.031C155.285 248.432 155.403 247.946 155.639 247.574C155.875 247.197 156.191 246.902 156.586 246.688C156.981 246.475 157.416 246.316 157.893 246.212C158.374 246.103 158.858 246.017 159.344 245.953C159.979 245.871 160.495 245.81 160.889 245.769C161.289 245.724 161.58 245.649 161.761 245.544C161.947 245.44 162.04 245.258 162.04 245V244.945C162.04 244.273 161.856 243.751 161.489 243.379C161.126 243.007 160.574 242.82 159.834 242.82C159.067 242.82 158.465 242.988 158.029 243.324C157.594 243.66 157.287 244.019 157.11 244.4L155.585 243.856C155.857 243.22 156.22 242.725 156.674 242.371C157.133 242.012 157.632 241.763 158.172 241.622C158.717 241.477 159.253 241.404 159.779 241.404C160.115 241.404 160.501 241.445 160.937 241.527C161.378 241.604 161.802 241.765 162.211 242.01C162.624 242.255 162.966 242.625 163.239 243.12C163.511 243.615 163.647 244.278 163.647 245.109V252H162.04V250.584H161.959C161.85 250.811 161.668 251.053 161.414 251.312C161.16 251.571 160.821 251.791 160.399 251.973C159.977 252.154 159.462 252.245 158.853 252.245ZM159.099 250.801C159.734 250.801 160.27 250.677 160.706 250.427C161.146 250.177 161.477 249.855 161.7 249.46C161.927 249.065 162.04 248.65 162.04 248.214V246.743C161.972 246.825 161.822 246.899 161.591 246.968C161.364 247.031 161.101 247.088 160.801 247.138C160.506 247.183 160.218 247.224 159.936 247.26C159.659 247.292 159.434 247.319 159.262 247.342C158.844 247.397 158.454 247.485 158.091 247.608C157.732 247.726 157.441 247.905 157.219 248.146C157.001 248.382 156.892 248.704 156.892 249.113C156.892 249.671 157.099 250.093 157.512 250.379C157.929 250.661 158.458 250.801 159.099 250.801ZM173.881 238.054V252H172.192V238.054H173.881ZM177.049 252V241.54H178.602V243.175H178.738C178.956 242.616 179.308 242.183 179.793 241.874C180.279 241.561 180.862 241.404 181.543 241.404C182.233 241.404 182.808 241.561 183.266 241.874C183.729 242.183 184.09 242.616 184.349 243.175H184.458C184.726 242.634 185.128 242.205 185.663 241.888C186.199 241.565 186.841 241.404 187.59 241.404C188.526 241.404 189.291 241.697 189.885 242.282C190.48 242.864 190.777 243.769 190.777 245V252H189.17V245C189.17 244.228 188.959 243.676 188.537 243.345C188.115 243.013 187.618 242.848 187.046 242.848C186.31 242.848 185.741 243.07 185.336 243.515C184.932 243.955 184.73 244.514 184.73 245.19V252H183.096V244.836C183.096 244.241 182.903 243.762 182.517 243.399C182.131 243.032 181.634 242.848 181.026 242.848C180.608 242.848 180.218 242.959 179.855 243.181C179.496 243.404 179.205 243.713 178.983 244.108C178.765 244.498 178.656 244.95 178.656 245.463V252H177.049ZM197.965 252.218C197.021 252.218 196.192 251.993 195.48 251.544C194.771 251.094 194.218 250.466 193.818 249.657C193.423 248.849 193.226 247.905 193.226 246.825C193.226 245.735 193.423 244.784 193.818 243.971C194.218 243.159 194.771 242.528 195.48 242.078C196.192 241.629 197.021 241.404 197.965 241.404C198.909 241.404 199.736 241.629 200.444 242.078C201.157 242.528 201.711 243.159 202.105 243.971C202.505 244.784 202.705 245.735 202.705 246.825C202.705 247.905 202.505 248.849 202.105 249.657C201.711 250.466 201.157 251.094 200.444 251.544C199.736 251.993 198.909 252.218 197.965 252.218ZM197.965 250.774C198.682 250.774 199.273 250.59 199.736 250.223C200.199 249.855 200.541 249.371 200.764 248.772C200.986 248.173 201.098 247.524 201.098 246.825C201.098 246.125 200.986 245.474 200.764 244.87C200.541 244.266 200.199 243.778 199.736 243.406C199.273 243.034 198.682 242.848 197.965 242.848C197.248 242.848 196.658 243.034 196.195 243.406C195.732 243.778 195.389 244.266 195.166 244.87C194.944 245.474 194.833 246.125 194.833 246.825C194.833 247.524 194.944 248.173 195.166 248.772C195.389 249.371 195.732 249.855 196.195 250.223C196.658 250.59 197.248 250.774 197.965 250.774ZM205.376 252V238.054H206.983V243.202H207.119C207.237 243.02 207.401 242.789 207.609 242.507C207.823 242.221 208.127 241.967 208.522 241.745C208.921 241.518 209.462 241.404 210.143 241.404C211.023 241.404 211.8 241.624 212.472 242.065C213.144 242.505 213.668 243.129 214.045 243.937C214.421 244.745 214.61 245.699 214.61 246.797C214.61 247.905 214.421 248.865 214.045 249.678C213.668 250.486 213.146 251.112 212.478 251.557C211.811 251.998 211.042 252.218 210.17 252.218C209.498 252.218 208.96 252.107 208.556 251.884C208.152 251.657 207.841 251.401 207.623 251.115C207.405 250.824 207.237 250.584 207.119 250.393H206.928V252H205.376ZM206.956 246.77C206.956 247.56 207.071 248.257 207.303 248.861C207.535 249.46 207.873 249.93 208.318 250.27C208.763 250.606 209.307 250.774 209.952 250.774C210.624 250.774 211.185 250.597 211.634 250.243C212.088 249.884 212.428 249.403 212.655 248.799C212.887 248.191 213.003 247.515 213.003 246.77C213.003 246.035 212.889 245.372 212.662 244.782C212.44 244.187 212.102 243.717 211.648 243.372C211.198 243.022 210.633 242.848 209.952 242.848C209.298 242.848 208.749 243.013 208.304 243.345C207.859 243.672 207.523 244.13 207.296 244.72C207.069 245.306 206.956 245.989 206.956 246.77ZM217.068 252V241.54H218.675V252H217.068ZM217.885 239.797C217.572 239.797 217.302 239.69 217.075 239.477C216.853 239.263 216.741 239.007 216.741 238.707C216.741 238.408 216.853 238.151 217.075 237.938C217.302 237.724 217.572 237.618 217.885 237.618C218.199 237.618 218.466 237.724 218.689 237.938C218.916 238.151 219.029 238.408 219.029 238.707C219.029 239.007 218.916 239.263 218.689 239.477C218.466 239.69 218.199 239.797 217.885 239.797ZM223.226 238.054V252H221.619V238.054H223.226ZM226.169 252V241.54H227.777V252H226.169ZM226.987 239.797C226.673 239.797 226.403 239.69 226.176 239.477C225.954 239.263 225.843 239.007 225.843 238.707C225.843 238.408 225.954 238.151 226.176 237.938C226.403 237.724 226.673 237.618 226.987 237.618C227.3 237.618 227.568 237.724 227.79 237.938C228.017 238.151 228.131 238.408 228.131 238.707C228.131 239.007 228.017 239.263 227.79 239.477C227.568 239.69 227.3 239.797 226.987 239.797ZM233.798 252.245C233.135 252.245 232.534 252.12 231.993 251.871C231.453 251.616 231.024 251.251 230.706 250.774C230.389 250.293 230.23 249.712 230.23 249.031C230.23 248.432 230.348 247.946 230.584 247.574C230.82 247.197 231.135 246.902 231.53 246.688C231.925 246.475 232.361 246.316 232.838 246.212C233.319 246.103 233.803 246.017 234.288 245.953C234.924 245.871 235.439 245.81 235.834 245.769C236.234 245.724 236.524 245.649 236.706 245.544C236.892 245.44 236.985 245.258 236.985 245V244.945C236.985 244.273 236.801 243.751 236.433 243.379C236.07 243.007 235.519 242.82 234.779 242.82C234.011 242.82 233.41 242.988 232.974 243.324C232.538 243.66 232.232 244.019 232.055 244.4L230.529 243.856C230.802 243.22 231.165 242.725 231.619 242.371C232.077 242.012 232.577 241.763 233.117 241.622C233.662 241.477 234.198 241.404 234.724 241.404C235.06 241.404 235.446 241.445 235.882 241.527C236.322 241.604 236.747 241.765 237.155 242.01C237.568 242.255 237.911 242.625 238.184 243.12C238.456 243.615 238.592 244.278 238.592 245.109V252H236.985V250.584H236.903C236.794 250.811 236.613 251.053 236.359 251.312C236.104 251.571 235.766 251.791 235.344 251.973C234.922 252.154 234.406 252.245 233.798 252.245ZM234.043 250.801C234.679 250.801 235.214 250.677 235.65 250.427C236.091 250.177 236.422 249.855 236.645 249.46C236.872 249.065 236.985 248.65 236.985 248.214V246.743C236.917 246.825 236.767 246.899 236.536 246.968C236.309 247.031 236.045 247.088 235.746 247.138C235.451 247.183 235.162 247.224 234.881 247.26C234.604 247.292 234.379 247.319 234.207 247.342C233.789 247.397 233.399 247.485 233.035 247.608C232.677 247.726 232.386 247.905 232.164 248.146C231.946 248.382 231.837 248.704 231.837 249.113C231.837 249.671 232.043 250.093 232.457 250.379C232.874 250.661 233.403 250.801 234.043 250.801ZM234.098 240.124L235.759 236.964H237.639L235.514 240.124H234.098ZM241.525 252V241.54H243.078V243.12H243.187C243.378 242.603 243.723 242.183 244.222 241.86C244.721 241.538 245.284 241.377 245.911 241.377C246.029 241.377 246.176 241.379 246.354 241.384C246.531 241.388 246.665 241.395 246.755 241.404V243.038C246.701 243.025 246.576 243.004 246.381 242.977C246.19 242.945 245.988 242.929 245.775 242.929C245.266 242.929 244.812 243.036 244.413 243.249C244.018 243.458 243.705 243.749 243.473 244.121C243.246 244.489 243.133 244.909 243.133 245.381V252H241.525ZM248.66 252V241.54H250.267V252H248.66ZM249.477 239.797C249.164 239.797 248.894 239.69 248.667 239.477C248.445 239.263 248.333 239.007 248.333 238.707C248.333 238.408 248.445 238.151 248.667 237.938C248.894 237.724 249.164 237.618 249.477 237.618C249.791 237.618 250.059 237.724 250.281 237.938C250.508 238.151 250.622 238.408 250.622 238.707C250.622 239.007 250.508 239.263 250.281 239.477C250.059 239.69 249.791 239.797 249.477 239.797ZM256.289 252.245C255.626 252.245 255.025 252.12 254.484 251.871C253.944 251.616 253.515 251.251 253.197 250.774C252.88 250.293 252.721 249.712 252.721 249.031C252.721 248.432 252.839 247.946 253.075 247.574C253.311 247.197 253.626 246.902 254.021 246.688C254.416 246.475 254.852 246.316 255.329 246.212C255.81 246.103 256.293 246.017 256.779 245.953C257.415 245.871 257.93 245.81 258.325 245.769C258.725 245.724 259.015 245.649 259.197 245.544C259.383 245.44 259.476 245.258 259.476 245V244.945C259.476 244.273 259.292 243.751 258.924 243.379C258.561 243.007 258.01 242.82 257.27 242.82C256.502 242.82 255.901 242.988 255.465 243.324C255.029 243.66 254.723 244.019 254.546 244.4L253.02 243.856C253.293 243.22 253.656 242.725 254.11 242.371C254.568 242.012 255.068 241.763 255.608 241.622C256.153 241.477 256.688 241.404 257.215 241.404C257.551 241.404 257.937 241.445 258.373 241.527C258.813 241.604 259.238 241.765 259.646 242.01C260.059 242.255 260.402 242.625 260.674 243.12C260.947 243.615 261.083 244.278 261.083 245.109V252H259.476V250.584H259.394C259.285 250.811 259.104 251.053 258.849 251.312C258.595 251.571 258.257 251.791 257.835 251.973C257.413 252.154 256.897 252.245 256.289 252.245ZM256.534 250.801C257.17 250.801 257.705 250.677 258.141 250.427C258.582 250.177 258.913 249.855 259.135 249.46C259.362 249.065 259.476 248.65 259.476 248.214V246.743C259.408 246.825 259.258 246.899 259.026 246.968C258.799 247.031 258.536 247.088 258.237 247.138C257.941 247.183 257.653 247.224 257.372 247.26C257.095 247.292 256.87 247.319 256.698 247.342C256.28 247.397 255.889 247.485 255.526 247.608C255.168 247.726 254.877 247.905 254.655 248.146C254.437 248.382 254.328 248.704 254.328 249.113C254.328 249.671 254.534 250.093 254.947 250.379C255.365 250.661 255.894 250.801 256.534 250.801Z" fill="#DF893F"/>
</svg>
