<svg width="304" height="171" viewBox="0 0 304 171" fill="none" xmlns="http://www.w3.org/2000/svg">
<path d="M175.943 38.2168L166.753 29.7793L202.547 0L293 84.871H276.07L202.547 15.8823L175.943 38.2168Z" fill="white"/>
<path d="M124.671 38.2168L115.48 29.7793L151.275 0L241.727 84.871H224.798L151.275 15.8823L124.671 38.2168Z" fill="white"/>
<path d="M27.446 84.871H11L100.485 0L190.938 84.871H174.009L100.485 15.8823L27.446 84.871Z" fill="#DF893F"/>
<path d="M82.5879 65.5146V48.6396H99.0339V65.5146H82.5879Z" fill="white"/>
<path d="M101.937 65.5146V48.6396H118.382V65.5146H101.937Z" fill="white"/>
<path d="M101.937 85.3671V68.4922H118.382V85.3671H101.937Z" fill="white"/>
<path d="M82.5879 85.3671V68.4922H99.0339V85.3671H82.5879Z" fill="#DF893F"/>
<path d="M6.56 119.583V112.351H17.792V109.631H6.56V102.751H19.168V99.9672H3.36V122.367H19.616V119.583H6.56ZM24.3495 122.367H27.4215V98.6232H24.3495V122.367ZM34.823 102.143C36.039 102.143 36.903 101.247 36.903 100.095C36.903 99.0072 36.007 98.1432 34.823 98.1432C33.639 98.1432 32.743 99.0392 32.743 100.159C32.743 101.279 33.639 102.143 34.823 102.143ZM33.287 122.367H36.359V105.407H33.287V122.367ZM66.3383 110.751C68.0983 109.887 69.3463 108.191 69.3463 105.759C69.3463 102.143 66.4663 99.9672 61.3143 99.9672H51.2663V122.367H61.9543C67.6183 122.367 70.5303 120.159 70.5303 116.319C70.5303 113.343 68.8663 111.455 66.3383 110.751ZM61.0263 102.559C64.2903 102.559 66.1463 103.775 66.1463 106.143C66.1463 108.511 64.2903 109.727 61.0263 109.727H54.4663V102.559H61.0263ZM61.8263 119.775H54.4663V112.319H61.8263C65.3783 112.319 67.2983 113.471 67.2983 116.063C67.2983 118.655 65.3783 119.775 61.8263 119.775ZM77.981 108.255V105.407H75.037V122.367H78.109V113.919C78.109 110.207 80.157 108.191 83.453 108.191C83.677 108.191 83.901 108.191 84.157 108.223V105.247C81.181 105.247 79.069 106.271 77.981 108.255ZM87.0793 102.943H89.9593L95.3353 98.7832H91.4313L87.0793 102.943ZM87.9433 122.367H91.0153V105.407H87.9433V122.367ZM110.193 105.407V108.031C108.753 106.175 106.449 105.247 103.921 105.247C99.0248 105.247 95.3128 108.543 95.3128 113.439C95.3128 118.335 99.0248 121.663 103.921 121.663C106.353 121.663 108.561 120.799 110.033 119.039V120.383C110.033 124.223 108.209 126.079 104.209 126.079C101.713 126.079 99.2488 125.215 97.6808 123.871L96.2088 126.239C98.0648 127.903 101.201 128.767 104.305 128.767C110.065 128.767 113.105 126.047 113.105 120.063V105.407H110.193ZM104.273 118.975C100.849 118.975 98.4168 116.703 98.4168 113.439C98.4168 110.143 100.849 107.935 104.273 107.935C107.665 107.935 110.097 110.143 110.097 113.439C110.097 116.703 107.665 118.975 104.273 118.975ZM120.511 102.143C121.727 102.143 122.591 101.247 122.591 100.095C122.591 99.0072 121.695 98.1432 120.511 98.1432C119.327 98.1432 118.431 99.0392 118.431 100.159C118.431 101.279 119.327 102.143 120.511 102.143ZM118.975 122.367H122.047V105.407H118.975V122.367ZM140.84 98.6232V107.967C139.432 106.143 137.32 105.247 134.92 105.247C129.96 105.247 126.344 108.703 126.344 113.887C126.344 119.071 129.96 122.559 134.92 122.559C137.416 122.559 139.592 121.599 140.968 119.679V122.367H143.912V98.6232H140.84ZM135.176 119.871C131.912 119.871 129.448 117.503 129.448 113.887C129.448 110.271 131.912 107.935 135.176 107.935C138.408 107.935 140.872 110.271 140.872 113.887C140.872 117.503 138.408 119.871 135.176 119.871ZM155.901 105.247C153.181 105.247 150.653 106.015 148.893 107.423L150.173 109.727C151.485 108.607 153.533 107.903 155.549 107.903C158.589 107.903 160.093 109.407 160.093 111.999V112.607H155.229C150.173 112.607 148.413 114.847 148.413 117.567C148.413 120.511 150.845 122.559 154.685 122.559C157.341 122.559 159.229 121.663 160.253 120.127V122.367H163.165V112.127C163.165 107.487 160.541 105.247 155.901 105.247ZM155.197 120.191C152.861 120.191 151.453 119.135 151.453 117.439C151.453 115.999 152.317 114.815 155.357 114.815H160.093V117.183C159.325 119.135 157.501 120.191 155.197 120.191ZM177.891 122.367H181.091V99.9672H177.891V122.367ZM208.566 105.247C205.686 105.247 203.318 106.463 202.038 108.383C200.918 106.271 198.742 105.247 196.15 105.247C193.59 105.247 191.51 106.207 190.294 107.935V105.407H187.35V122.367H190.422V113.631C190.422 109.951 192.438 107.999 195.51 107.999C198.294 107.999 199.894 109.631 199.894 112.959V122.367H202.966V113.631C202.966 109.951 204.982 107.999 208.054 107.999C210.838 107.999 212.438 109.631 212.438 112.959V122.367H215.51V112.607C215.51 107.615 212.694 105.247 208.566 105.247ZM226.088 102.943H228.968L234.344 98.7832H230.44L226.088 102.943ZM228.52 122.559C233.608 122.559 237.32 118.943 237.32 113.887C237.32 108.831 233.608 105.247 228.52 105.247C223.432 105.247 219.688 108.831 219.688 113.887C219.688 118.943 223.432 122.559 228.52 122.559ZM228.52 119.871C225.256 119.871 222.792 117.503 222.792 113.887C222.792 110.271 225.256 107.935 228.52 107.935C231.784 107.935 234.216 110.271 234.216 113.887C234.216 117.503 231.784 119.871 228.52 119.871ZM253.1 105.407L247.148 119.007L241.324 105.407H238.123L245.548 122.367H248.684L256.108 105.407H253.1ZM273.834 113.983C273.834 108.767 270.346 105.247 265.45 105.247C260.554 105.247 256.938 108.863 256.938 113.887C256.938 118.943 260.586 122.559 266.058 122.559C268.874 122.559 271.21 121.599 272.746 119.807L271.05 117.823C269.802 119.199 268.138 119.871 266.154 119.871C262.794 119.871 260.394 117.887 260.01 114.911H273.77C273.802 114.623 273.834 114.239 273.834 113.983ZM265.45 107.839C268.426 107.839 270.57 109.855 270.89 112.703H260.01C260.33 109.823 262.506 107.839 265.45 107.839ZM279.636 102.143C280.852 102.143 281.716 101.247 281.716 100.095C281.716 99.0072 280.82 98.1432 279.636 98.1432C278.452 98.1432 277.556 99.0392 277.556 100.159C277.556 101.279 278.452 102.143 279.636 102.143ZM278.1 122.367H281.172V105.407H278.1V122.367ZM291.901 122.559C296.413 122.559 299.229 120.607 299.229 117.535C299.229 110.943 288.477 114.207 288.477 110.207C288.477 108.863 289.789 107.871 292.477 107.871C294.141 107.871 295.837 108.223 297.373 109.215L298.685 106.783C297.213 105.823 294.717 105.247 292.509 105.247C288.157 105.247 285.437 107.295 285.437 110.335C285.437 117.087 296.157 113.791 296.157 117.599C296.157 119.039 294.973 119.903 292.125 119.903C289.917 119.903 287.613 119.167 286.173 118.143L284.893 120.575C286.301 121.695 289.085 122.559 291.901 122.559Z" fill="white"/>
<path d="M9.082 167.381C9.994 167.381 10.6147 166.609 10.944 165.063C11.1213 164.227 11.248 163.417 11.324 162.631C11.4253 161.821 11.5393 160.706 11.666 159.287C11.7927 157.843 11.9193 156.627 12.046 155.639C11.9193 155.589 11.6153 155.475 11.134 155.297C10.678 155.12 10.3613 154.993 10.184 154.917C10.032 154.816 9.81667 154.677 9.538 154.499C9.25933 154.297 9.06933 154.069 8.968 153.815C8.86667 153.562 8.816 153.182 8.816 152.675C8.816 152.169 8.93 151.915 9.158 151.915C9.462 151.915 10.0193 152.118 10.83 152.523C11.6407 152.903 12.16 153.093 12.388 153.093C12.54 152.561 12.7427 151.713 12.996 150.547C13.2493 149.382 13.5533 148.356 13.908 147.469C14.3387 146.456 15.0353 145.949 15.998 145.949C16.9353 145.949 17.4293 146.215 17.48 146.747C17.3787 147.102 16.986 148.077 16.302 149.673C15.618 151.269 15.2887 152.447 15.314 153.207C17.7967 152.954 19.7727 152.245 21.242 151.079C22.7113 149.889 23.446 148.445 23.446 146.747C23.446 145.025 22.8127 143.695 21.546 142.757C20.2793 141.795 18.544 141.313 16.34 141.313C14.136 141.313 12.3373 141.883 10.944 143.023C9.70267 144.062 8.74 145.392 8.056 147.013C6.73867 150.231 6.08 153.676 6.08 157.349C6.08 164.037 7.08067 167.381 9.082 167.381ZM8.626 170.117C7.30867 170.117 6.20667 169.522 5.32 168.331C3.724 166.153 2.926 162.492 2.926 157.349C2.926 150.053 4.788 144.645 8.512 141.123C10.412 139.325 12.6793 138.375 15.314 138.273H16.036C19.304 138.273 21.9007 139.046 23.826 140.591C25.7513 142.111 26.714 144.062 26.714 146.443C26.714 148.799 25.688 150.788 23.636 152.409C21.584 154.031 18.7847 155.044 15.238 155.449C15.1113 155.5 14.9973 155.918 14.896 156.703C14.8453 157.134 14.7947 157.565 14.744 157.995C14.6933 158.426 14.63 159.009 14.554 159.743C14.478 160.453 14.364 161.39 14.212 162.555C14.0853 163.721 13.8447 164.873 13.49 166.013C13.1607 167.179 12.578 168.154 11.742 168.939C10.9313 169.725 9.89267 170.117 8.626 170.117ZM26.0683 160.579C26.5243 159.135 27.373 157.489 28.6143 155.639C29.881 153.79 30.907 152.865 31.6923 152.865C32.807 152.865 33.3643 153.296 33.3643 154.157C33.3643 154.715 33.225 155.361 32.9463 156.095C32.693 156.805 32.5663 157.235 32.5663 157.387C32.5663 157.767 32.8323 157.957 33.3643 157.957C33.9216 157.957 34.821 157.59 36.0623 156.855C36.113 156.83 36.2143 156.817 36.3663 156.817C36.5183 156.817 36.7083 156.957 36.9363 157.235C37.1896 157.514 37.3163 157.767 37.3163 157.995C37.3163 158.198 37.2656 158.35 37.1643 158.451C35.6443 159.819 34.1623 160.503 32.7183 160.503C30.9956 160.503 30.1343 159.769 30.1343 158.299C30.1343 158.249 30.337 157.425 30.7423 155.829C30.717 155.829 30.5143 156.133 30.1343 156.741C28.9436 158.717 27.7783 161.263 26.6383 164.379C26.309 165.038 25.7643 165.367 25.0043 165.367C23.9656 165.367 23.4463 164.531 23.4463 162.859V162.555C23.4463 159.819 23.839 157.147 24.6243 154.537C25.0043 153.397 25.6123 152.827 26.4483 152.827C26.7776 152.827 27.0436 152.929 27.2463 153.131C27.449 153.334 27.5503 153.587 27.5503 153.891L26.0683 160.579ZM35.0128 161.415C35.0128 159.135 35.8235 157.109 37.4448 155.335C39.0915 153.537 40.8395 152.637 42.6888 152.637C43.7275 152.637 44.2468 152.903 44.2468 153.435V153.663H45.1208C45.8302 153.663 46.1848 153.993 46.1848 154.651V154.879L45.1208 161.415C45.0955 161.517 45.0828 161.656 45.0828 161.833C45.0828 162.441 45.2982 162.745 45.7288 162.745C46.6915 162.745 47.8315 161.897 49.1488 160.199C49.3262 159.971 49.5035 159.857 49.6808 159.857C49.9342 159.857 50.1495 160.06 50.3268 160.465C50.5042 160.845 50.5928 161.187 50.5928 161.491C50.5928 161.77 50.5675 161.985 50.5168 162.137C49.9342 162.948 49.1742 163.695 48.2368 164.379C47.2995 165.038 46.4002 165.367 45.5388 165.367C44.7028 165.367 44.0442 165.152 43.5628 164.721C43.1068 164.265 42.8282 163.657 42.7268 162.897C42.7268 162.923 42.7268 162.948 42.7268 162.973C42.2962 163.784 41.7262 164.417 41.0168 164.873C40.2822 165.329 39.4082 165.557 38.3948 165.557C37.3815 165.557 36.5582 165.177 35.9248 164.417C35.3168 163.632 35.0128 162.631 35.0128 161.415ZM39.3068 162.897C39.9908 162.897 40.6368 162.517 41.2448 161.757C41.8782 160.997 42.3088 160.161 42.5368 159.249L43.5628 154.993C42.0935 154.993 40.7762 155.69 39.6108 157.083C38.4455 158.477 37.8628 159.794 37.8628 161.035C37.8628 162.277 38.3442 162.897 39.3068 162.897ZM55.86 153.321C56.24 153.321 56.5567 153.435 56.81 153.663C57.0633 153.866 57.19 154.107 57.19 154.385C57.19 155.297 57.0127 155.943 56.658 156.323C56.3287 156.678 54.188 158.629 50.236 162.175C50.236 162.479 50.388 162.733 50.692 162.935C51.0213 163.138 51.49 163.239 52.098 163.239C53.7447 163.239 55.8727 162.467 58.482 160.921C58.5073 160.896 58.5707 160.883 58.672 160.883C58.7987 160.883 58.9127 160.997 59.014 161.225C59.1407 161.428 59.204 161.707 59.204 162.061C59.204 162.416 59.0647 162.695 58.786 162.897C56.4047 164.671 54.0233 165.557 51.642 165.557C50.426 165.557 49.438 165.304 48.678 164.797C47.9433 164.291 47.576 163.607 47.576 162.745C47.576 161.859 48.0573 160.997 49.02 160.161L54.682 155.373C52.1487 155.576 50.2993 155.677 49.134 155.677C48.982 155.677 48.83 155.538 48.678 155.259C48.526 154.955 48.45 154.639 48.45 154.309C48.45 153.676 48.7667 153.359 49.4 153.359L55.86 153.321ZM57.2794 160.465C57.2794 158.591 57.8874 156.855 59.1034 155.259C60.3447 153.638 61.8394 152.827 63.5874 152.827C64.626 152.827 65.4874 153.119 66.1714 153.701C66.8554 154.284 67.1974 155.069 67.1974 156.057C67.1974 157.451 66.6274 158.578 65.4874 159.439C64.3474 160.301 62.6247 160.972 60.3194 161.453C60.674 162.543 61.586 163.087 63.0554 163.087C65.082 163.087 66.9947 162.226 68.7934 160.503C68.8947 160.402 69.0467 160.351 69.2494 160.351C69.4774 160.351 69.68 160.44 69.8574 160.617C70.06 160.795 70.1614 161.01 70.1614 161.263C70.1614 161.517 70.0727 161.77 69.8954 162.023C69.262 162.91 68.2614 163.733 66.8934 164.493C65.5254 165.228 64.094 165.595 62.5994 165.595C61.13 165.595 59.876 165.165 58.8374 164.303C57.7987 163.417 57.2794 162.137 57.2794 160.465ZM63.6254 155.297C62.8147 155.297 62.0294 155.779 61.2694 156.741C60.5094 157.679 60.1294 158.692 60.1294 159.781C63.296 158.692 64.8794 157.552 64.8794 156.361C64.8794 155.652 64.4614 155.297 63.6254 155.297ZM71.3046 160.579C71.7606 159.135 72.6093 157.489 73.8506 155.639C75.1173 153.79 76.1433 152.865 76.9286 152.865C78.0433 152.865 78.6006 153.296 78.6006 154.157C78.6006 154.715 78.4613 155.361 78.1826 156.095C77.9293 156.805 77.8026 157.235 77.8026 157.387C77.8026 157.767 78.0686 157.957 78.6006 157.957C79.158 157.957 80.0573 157.59 81.2986 156.855C81.3493 156.83 81.4506 156.817 81.6026 156.817C81.7546 156.817 81.9446 156.957 82.1726 157.235C82.426 157.514 82.5526 157.767 82.5526 157.995C82.5526 158.198 82.502 158.35 82.4006 158.451C80.8806 159.819 79.3986 160.503 77.9546 160.503C76.232 160.503 75.3706 159.769 75.3706 158.299C75.3706 158.249 75.5733 157.425 75.9786 155.829C75.9533 155.829 75.7506 156.133 75.3706 156.741C74.18 158.717 73.0146 161.263 71.8746 164.379C71.5453 165.038 71.0006 165.367 70.2406 165.367C69.202 165.367 68.6826 164.531 68.6826 162.859V162.555C68.6826 159.819 69.0753 157.147 69.8606 154.537C70.2406 153.397 70.8486 152.827 71.6846 152.827C72.014 152.827 72.28 152.929 72.4826 153.131C72.6853 153.334 72.7866 153.587 72.7866 153.891L71.3046 160.579ZM88.0801 160.465C88.0801 158.591 88.6881 156.855 89.9041 155.259C91.1455 153.638 92.6401 152.827 94.3881 152.827C95.4268 152.827 96.2881 153.119 96.9721 153.701C97.6561 154.284 97.9981 155.069 97.9981 156.057C97.9981 157.451 97.4281 158.578 96.2881 159.439C95.1481 160.301 93.4255 160.972 91.1201 161.453C91.4748 162.543 92.3868 163.087 93.8561 163.087C95.8828 163.087 97.7955 162.226 99.5941 160.503C99.6955 160.402 99.8475 160.351 100.05 160.351C100.278 160.351 100.481 160.44 100.658 160.617C100.861 160.795 100.962 161.01 100.962 161.263C100.962 161.517 100.873 161.77 100.696 162.023C100.063 162.91 99.0621 163.733 97.6941 164.493C96.3261 165.228 94.8948 165.595 93.4001 165.595C91.9308 165.595 90.6768 165.165 89.6381 164.303C88.5995 163.417 88.0801 162.137 88.0801 160.465ZM94.4261 155.297C93.6155 155.297 92.8301 155.779 92.0701 156.741C91.3101 157.679 90.9301 158.692 90.9301 159.781C94.0968 158.692 95.6801 157.552 95.6801 156.361C95.6801 155.652 95.2621 155.297 94.4261 155.297ZM106.133 163.391C106.133 162.125 106.602 159.693 107.539 156.095C106.045 158.249 104.664 160.605 103.397 163.163C103.068 163.847 102.751 164.367 102.447 164.721C102.169 165.051 101.953 165.241 101.801 165.291C101.649 165.342 101.434 165.367 101.155 165.367C100.167 165.367 99.6734 164.569 99.6734 162.973C99.6734 160.035 100.167 157.083 101.155 154.119C101.434 153.258 101.915 152.827 102.599 152.827C102.853 152.827 103.081 152.903 103.283 153.055C103.486 153.207 103.587 153.385 103.587 153.587C103.587 153.79 103.575 153.929 103.549 154.005C102.916 156.057 102.447 158.401 102.143 161.035C103.258 158.249 104.373 156.197 105.487 154.879C106.602 153.562 107.565 152.903 108.375 152.903C108.73 152.903 109.047 153.005 109.325 153.207C109.604 153.41 109.743 153.689 109.743 154.043C109.743 155.209 109.338 157.387 108.527 160.579C110.478 155.437 112.517 152.865 114.645 152.865C115.785 152.865 116.355 153.435 116.355 154.575C116.355 155.31 116.039 156.564 115.405 158.337C114.797 160.085 114.493 161.428 114.493 162.365C114.493 163.024 114.797 163.353 115.405 163.353C115.583 163.353 115.709 163.341 115.785 163.315C116.444 163.163 117.609 162.277 119.281 160.655C119.383 160.554 119.535 160.503 119.737 160.503C119.94 160.503 120.168 160.63 120.421 160.883C120.7 161.111 120.839 161.289 120.839 161.415C120.839 161.517 120.814 161.618 120.763 161.719C119.953 162.834 118.952 163.733 117.761 164.417C116.596 165.101 115.583 165.443 114.721 165.443H114.645C113.835 165.443 113.201 165.203 112.745 164.721C112.289 164.215 112.061 163.581 112.061 162.821V162.479C112.188 161.314 112.758 159.123 113.771 155.905C112.657 156.843 111.073 159.579 109.021 164.113C108.616 164.949 108.147 165.367 107.615 165.367C106.627 165.367 106.133 164.709 106.133 163.391ZM129.937 160.579C130.393 159.135 131.242 157.489 132.483 155.639C133.75 153.79 134.776 152.865 135.561 152.865C136.676 152.865 137.233 153.296 137.233 154.157C137.233 154.715 137.094 155.361 136.815 156.095C136.562 156.805 136.435 157.235 136.435 157.387C136.435 157.767 136.701 157.957 137.233 157.957C137.791 157.957 138.69 157.59 139.931 156.855C139.982 156.83 140.083 156.817 140.235 156.817C140.387 156.817 140.577 156.957 140.805 157.235C141.059 157.514 141.185 157.767 141.185 157.995C141.185 158.198 141.135 158.35 141.033 158.451C139.513 159.819 138.031 160.503 136.587 160.503C134.865 160.503 134.003 159.769 134.003 158.299C134.003 158.249 134.206 157.425 134.611 155.829C134.586 155.829 134.383 156.133 134.003 156.741C132.813 158.717 131.647 161.263 130.507 164.379C130.178 165.038 129.633 165.367 128.873 165.367C127.835 165.367 127.315 164.531 127.315 162.859V162.555C127.315 159.819 127.708 157.147 128.493 154.537C128.873 153.397 129.481 152.827 130.317 152.827C130.647 152.827 130.913 152.929 131.115 153.131C131.318 153.334 131.419 153.587 131.419 153.891L129.937 160.579ZM138.92 160.465C138.92 158.591 139.528 156.855 140.744 155.259C141.985 153.638 143.48 152.827 145.228 152.827C146.267 152.827 147.128 153.119 147.812 153.701C148.496 154.284 148.838 155.069 148.838 156.057C148.838 157.451 148.268 158.578 147.128 159.439C145.988 160.301 144.265 160.972 141.96 161.453C142.315 162.543 143.227 163.087 144.696 163.087C146.723 163.087 148.635 162.226 150.434 160.503C150.535 160.402 150.687 160.351 150.89 160.351C151.118 160.351 151.321 160.44 151.498 160.617C151.701 160.795 151.802 161.01 151.802 161.263C151.802 161.517 151.713 161.77 151.536 162.023C150.903 162.91 149.902 163.733 148.534 164.493C147.166 165.228 145.735 165.595 144.24 165.595C142.771 165.595 141.517 165.165 140.478 164.303C139.439 163.417 138.92 162.137 138.92 160.465ZM145.266 155.297C144.455 155.297 143.67 155.779 142.91 156.741C142.15 157.679 141.77 158.692 141.77 159.781C144.937 158.692 146.52 157.552 146.52 156.361C146.52 155.652 146.102 155.297 145.266 155.297ZM149.829 161.415C149.829 159.135 150.64 157.109 152.261 155.335C153.908 153.537 155.656 152.637 157.505 152.637C158.544 152.637 159.063 152.903 159.063 153.435V153.663H159.937C160.647 153.663 161.001 153.993 161.001 154.651V154.879L159.937 161.415C159.912 161.517 159.899 161.656 159.899 161.833C159.899 162.441 160.115 162.745 160.545 162.745C161.508 162.745 162.648 161.897 163.965 160.199C164.143 159.971 164.32 159.857 164.497 159.857C164.751 159.857 164.966 160.06 165.143 160.465C165.321 160.845 165.409 161.187 165.409 161.491C165.409 161.77 165.384 161.985 165.333 162.137C164.751 162.948 163.991 163.695 163.053 164.379C162.116 165.038 161.217 165.367 160.355 165.367C159.519 165.367 158.861 165.152 158.379 164.721C157.923 164.265 157.645 163.657 157.543 162.897C157.543 162.923 157.543 162.948 157.543 162.973C157.113 163.784 156.543 164.417 155.833 164.873C155.099 165.329 154.225 165.557 153.211 165.557C152.198 165.557 151.375 165.177 150.741 164.417C150.133 163.632 149.829 162.631 149.829 161.415ZM154.123 162.897C154.807 162.897 155.453 162.517 156.061 161.757C156.695 160.997 157.125 160.161 157.353 159.249L158.379 154.993C156.91 154.993 155.593 155.69 154.427 157.083C153.262 158.477 152.679 159.794 152.679 161.035C152.679 162.277 153.161 162.897 154.123 162.897ZM168.206 165.481C166.94 165.481 165.964 164.975 165.28 163.961C164.596 162.923 164.254 161.517 164.254 159.743C164.254 159.211 164.267 158.806 164.292 158.527C164.622 154.854 165.584 151.029 167.18 147.051C167.966 145.151 168.941 143.581 170.106 142.339C171.272 141.073 172.5 140.439 173.792 140.439C174.552 140.439 175.16 140.693 175.616 141.199C176.072 141.681 176.3 142.289 176.3 143.023V143.327C176.047 145.886 175.008 148.559 173.184 151.345C171.36 154.132 169.346 156.387 167.142 158.109C167.041 158.92 166.99 159.541 166.99 159.971C166.99 162.023 167.598 163.049 168.814 163.049C170.081 163.049 171.487 162.163 173.032 160.389C173.21 160.212 173.425 160.123 173.678 160.123C173.957 160.123 174.21 160.237 174.438 160.465C174.692 160.668 174.818 160.934 174.818 161.263C174.818 161.567 174.666 161.884 174.362 162.213C172.437 164.392 170.385 165.481 168.206 165.481ZM172.842 143.555C171.778 143.555 170.702 144.911 169.612 147.621C168.548 150.332 167.826 152.903 167.446 155.335C168.941 153.663 170.309 151.763 171.55 149.635C172.817 147.507 173.463 145.734 173.488 144.315C173.488 143.809 173.273 143.555 172.842 143.555ZM173.261 161.719C173.261 160.605 173.464 159.3 173.869 157.805C174.275 156.285 174.68 155.158 175.085 154.423C175.491 153.689 175.833 153.258 176.111 153.131C176.415 152.979 176.745 152.903 177.099 152.903C177.479 152.903 177.796 152.992 178.049 153.169C178.328 153.347 178.467 153.537 178.467 153.739C178.467 153.942 178.315 154.297 178.011 154.803C177.733 155.31 177.365 156.298 176.909 157.767C176.453 159.237 176.225 160.415 176.225 161.301C176.225 162.492 176.669 163.087 177.555 163.087C178.619 163.087 179.899 162.226 181.393 160.503C181.596 160.25 181.837 160.123 182.115 160.123C182.419 160.123 182.685 160.237 182.913 160.465C183.167 160.668 183.293 160.921 183.293 161.225C183.293 161.504 183.154 161.821 182.875 162.175C181.001 164.379 179.05 165.481 177.023 165.481C175.883 165.481 174.971 165.139 174.287 164.455C173.603 163.746 173.261 162.834 173.261 161.719ZM178.847 150.395C177.479 150.395 176.795 149.8 176.795 148.609C176.795 147.976 177.011 147.482 177.441 147.127C177.897 146.747 178.467 146.557 179.151 146.557C180.418 146.557 181.051 147.127 181.051 148.267C181.051 148.926 180.849 149.445 180.443 149.825C180.038 150.205 179.506 150.395 178.847 150.395ZM187.932 153.321C188.312 153.321 188.629 153.435 188.882 153.663C189.136 153.866 189.262 154.107 189.262 154.385C189.262 155.297 189.085 155.943 188.73 156.323C188.401 156.678 186.26 158.629 182.308 162.175C182.308 162.479 182.46 162.733 182.764 162.935C183.094 163.138 183.562 163.239 184.17 163.239C185.817 163.239 187.945 162.467 190.554 160.921C190.58 160.896 190.643 160.883 190.744 160.883C190.871 160.883 190.985 160.997 191.086 161.225C191.213 161.428 191.276 161.707 191.276 162.061C191.276 162.416 191.137 162.695 190.858 162.897C188.477 164.671 186.096 165.557 183.714 165.557C182.498 165.557 181.51 165.304 180.75 164.797C180.016 164.291 179.648 163.607 179.648 162.745C179.648 161.859 180.13 160.997 181.092 160.161L186.754 155.373C184.221 155.576 182.372 155.677 181.206 155.677C181.054 155.677 180.902 155.538 180.75 155.259C180.598 154.955 180.522 154.639 180.522 154.309C180.522 153.676 180.839 153.359 181.472 153.359L187.932 153.321ZM189.314 161.415C189.314 159.135 190.124 157.109 191.746 155.335C193.392 153.537 195.14 152.637 196.99 152.637C198.028 152.637 198.548 152.903 198.548 153.435V153.663H199.422C200.131 153.663 200.486 153.993 200.486 154.651V154.879L199.422 161.415C199.396 161.517 199.384 161.656 199.384 161.833C199.384 162.441 199.599 162.745 200.03 162.745C200.992 162.745 202.132 161.897 203.45 160.199C203.627 159.971 203.804 159.857 203.982 159.857C204.235 159.857 204.45 160.06 204.628 160.465C204.805 160.845 204.894 161.187 204.894 161.491C204.894 161.77 204.868 161.985 204.818 162.137C204.235 162.948 203.475 163.695 202.538 164.379C201.6 165.038 200.701 165.367 199.84 165.367C199.004 165.367 198.345 165.152 197.864 164.721C197.408 164.265 197.129 163.657 197.028 162.897C197.028 162.923 197.028 162.948 197.028 162.973C196.597 163.784 196.027 164.417 195.318 164.873C194.583 165.329 193.709 165.557 192.696 165.557C191.682 165.557 190.859 165.177 190.226 164.417C189.618 163.632 189.314 162.631 189.314 161.415ZM193.608 162.897C194.292 162.897 194.938 162.517 195.546 161.757C196.179 160.997 196.61 160.161 196.838 159.249L197.864 154.993C196.394 154.993 195.077 155.69 193.912 157.083C192.746 158.477 192.164 159.794 192.164 161.035C192.164 162.277 192.645 162.897 193.608 162.897ZM205.715 160.579C206.171 159.135 207.019 157.489 208.261 155.639C209.527 153.79 210.553 152.865 211.339 152.865C212.453 152.865 213.011 153.296 213.011 154.157C213.011 154.715 212.871 155.361 212.593 156.095C212.339 156.805 212.213 157.235 212.213 157.387C212.213 157.767 212.479 157.957 213.011 157.957C213.568 157.957 214.467 157.59 215.709 156.855C215.759 156.83 215.861 156.817 216.013 156.817C216.165 156.817 216.355 156.957 216.583 157.235C216.836 157.514 216.963 157.767 216.963 157.995C216.963 158.198 216.912 158.35 216.811 158.451C215.291 159.819 213.809 160.503 212.365 160.503C210.642 160.503 209.781 159.769 209.781 158.299C209.781 158.249 209.983 157.425 210.389 155.829C210.363 155.829 210.161 156.133 209.781 156.741C208.59 158.717 207.425 161.263 206.285 164.379C205.955 165.038 205.411 165.367 204.651 165.367C203.612 165.367 203.093 164.531 203.093 162.859V162.555C203.093 159.819 203.485 157.147 204.271 154.537C204.651 153.397 205.259 152.827 206.095 152.827C206.424 152.827 206.69 152.929 206.893 153.131C207.095 153.334 207.197 153.587 207.197 153.891L205.715 160.579ZM228.342 165.557C226.772 165.557 225.391 165.253 224.2 164.645C223.035 164.012 222.224 163.227 221.768 162.289C222.883 160.364 224.365 157.501 226.214 153.701C226.62 152.916 227.202 152.523 227.962 152.523C228.342 152.523 228.659 152.65 228.912 152.903C229.191 153.131 229.33 153.435 229.33 153.815C229.33 154.17 229.254 154.474 229.102 154.727C228.95 154.981 228.874 155.234 228.874 155.487C228.874 155.741 229.153 156.209 229.71 156.893C230.268 157.577 230.812 158.337 231.344 159.173C231.902 160.009 232.18 160.744 232.18 161.377C232.18 161.985 232.041 162.517 231.762 162.973C232.928 162.593 234.169 161.58 235.486 159.933C235.638 159.781 235.816 159.705 236.018 159.705C236.246 159.705 236.487 159.883 236.74 160.237C237.019 160.567 237.158 160.858 237.158 161.111C237.158 161.339 237.108 161.555 237.006 161.757C236.272 162.897 235.17 163.822 233.7 164.531C232.231 165.215 230.445 165.557 228.342 165.557ZM227.392 163.391C227.392 163.391 227.443 163.391 227.544 163.391C228.811 163.391 229.444 162.821 229.444 161.681C229.444 160.541 228.836 159.072 227.62 157.273L225.112 162.365C225.999 163.049 226.759 163.391 227.392 163.391ZM237.614 165.557C236.347 165.557 235.309 165.101 234.498 164.189C233.687 163.277 233.282 162.137 233.282 160.769C233.282 158.692 233.953 156.855 235.296 155.259C236.664 153.638 238.26 152.827 240.084 152.827C241.148 152.827 242.035 153.207 242.744 153.967C243.479 154.727 243.846 155.69 243.846 156.855C243.846 157.109 243.795 157.514 243.694 158.071C245.341 157.767 246.975 156.703 248.596 154.879C248.697 154.778 248.824 154.727 248.976 154.727C249.153 154.727 249.331 154.854 249.508 155.107C249.685 155.335 249.774 155.576 249.774 155.829C249.774 156.057 249.723 156.222 249.622 156.323C247.925 158.426 245.822 159.819 243.314 160.503C242.478 163.873 240.578 165.557 237.614 165.557ZM238.184 163.125C238.843 163.125 239.451 162.758 240.008 162.023C240.591 161.289 240.92 160.554 240.996 159.819C240.059 159.414 239.59 158.895 239.59 158.261C239.59 157.628 239.919 156.995 240.578 156.361C240.553 156.032 240.464 155.791 240.312 155.639C240.185 155.487 239.995 155.411 239.742 155.411C238.779 155.411 237.956 155.981 237.272 157.121C236.588 158.236 236.246 159.401 236.246 160.617C236.246 162.289 236.892 163.125 238.184 163.125ZM256.478 162.821C257.441 162.619 258.606 161.871 259.974 160.579C260.076 160.478 260.215 160.427 260.392 160.427C260.595 160.427 260.798 160.605 261 160.959C261.228 161.289 261.342 161.555 261.342 161.757C261.342 161.935 261.317 162.074 261.266 162.175C260.456 163.214 259.442 164.012 258.226 164.569C257.01 165.127 255.997 165.405 255.186 165.405C253.717 165.405 252.982 164.607 252.982 163.011C252.982 162.175 253.236 160.972 253.742 159.401C254.249 157.831 254.502 156.995 254.502 156.893C254.502 156.767 254.477 156.703 254.426 156.703H254.388C253.958 156.881 253.046 157.894 251.652 159.743C250.284 161.567 249.448 162.859 249.144 163.619C248.84 164.379 248.574 164.873 248.346 165.101C248.144 165.304 247.802 165.405 247.32 165.405C246.383 165.38 245.914 164.417 245.914 162.517C245.965 159.832 246.522 157.058 247.586 154.195C247.916 153.283 248.473 152.827 249.258 152.827C249.562 152.827 249.816 152.929 250.018 153.131C250.221 153.334 250.322 153.549 250.322 153.777C250.322 153.98 250.31 154.119 250.284 154.195C249.702 155.867 249.233 157.742 248.878 159.819C250.196 157.539 251.488 155.804 252.754 154.613C254.021 153.397 255.148 152.789 256.136 152.789C256.643 152.789 257.086 152.954 257.466 153.283C257.846 153.587 258.036 153.917 258.036 154.271C258.036 154.829 257.707 156.095 257.048 158.071C256.415 160.022 256.073 161.175 256.022 161.529C255.972 161.884 255.946 162.201 255.946 162.479C255.946 162.733 256.022 162.859 256.174 162.859C256.352 162.834 256.453 162.821 256.478 162.821ZM259.83 162.669C259.83 162.137 259.856 161.593 259.906 161.035C260.134 156.703 260.983 152.232 262.452 147.621C263.212 145.316 264.226 143.416 265.492 141.921C266.784 140.401 268.203 139.641 269.748 139.641C270.66 139.641 271.382 139.92 271.914 140.477C272.446 141.035 272.712 141.769 272.712 142.681V142.947C272.51 144.619 271.724 146.481 270.356 148.533C269.014 150.585 266.721 153.068 263.478 155.981L262.794 159.781C264.036 157.603 265.442 155.905 267.012 154.689C268.608 153.448 269.748 152.827 270.432 152.827C271.116 152.827 271.648 152.979 272.028 153.283C272.408 153.562 272.598 153.866 272.598 154.195C272.598 154.525 272.535 154.879 272.408 155.259C272.282 155.614 271.826 156.703 271.04 158.527C270.255 160.351 269.862 161.669 269.862 162.479C269.862 162.733 270.002 162.859 270.28 162.859C270.584 162.859 271.23 162.568 272.218 161.985C273.206 161.403 274.118 160.769 274.954 160.085C275.081 160.009 275.233 159.971 275.41 159.971C275.613 159.971 275.803 160.123 275.98 160.427C276.183 160.731 276.284 161.124 276.284 161.605C276.284 162.061 276.031 162.467 275.524 162.821C272.966 164.544 270.711 165.405 268.76 165.405C268.304 165.405 267.874 165.215 267.468 164.835C267.088 164.455 266.898 163.835 266.898 162.973C266.898 162.112 267.202 160.909 267.81 159.363C268.418 157.818 268.722 156.995 268.722 156.893C268.722 156.792 268.684 156.741 268.608 156.741C268.482 156.741 268.279 156.843 268 157.045C267.063 157.729 266.075 158.743 265.036 160.085C263.998 161.403 263.326 162.505 263.022 163.391C262.718 164.253 262.465 164.81 262.262 165.063C262.06 165.291 261.705 165.405 261.198 165.405C260.692 165.405 260.337 165.177 260.134 164.721C259.932 164.24 259.83 163.556 259.83 162.669ZM268.874 142.719C267.709 142.719 266.506 144.404 265.264 147.773C264.606 149.572 264.124 151.345 263.82 153.093C265.34 151.497 266.696 149.787 267.886 147.963C269.077 146.114 269.672 144.632 269.672 143.517C269.672 142.985 269.406 142.719 268.874 142.719ZM277.915 165.557C276.648 165.557 275.609 165.101 274.799 164.189C273.988 163.277 273.583 162.137 273.583 160.769C273.583 158.692 274.254 156.855 275.597 155.259C276.965 153.638 278.561 152.827 280.385 152.827C281.449 152.827 282.335 153.207 283.045 153.967C283.779 154.727 284.147 155.69 284.147 156.855C284.147 157.109 284.096 157.514 283.995 158.071C285.641 157.767 287.275 156.703 288.897 154.879C288.998 154.778 289.125 154.727 289.277 154.727C289.454 154.727 289.631 154.854 289.809 155.107C289.986 155.335 290.075 155.576 290.075 155.829C290.075 156.057 290.024 156.222 289.923 156.323C288.225 158.426 286.123 159.819 283.615 160.503C282.779 163.873 280.879 165.557 277.915 165.557ZM278.485 163.125C279.143 163.125 279.751 162.758 280.309 162.023C280.891 161.289 281.221 160.554 281.297 159.819C280.359 159.414 279.891 158.895 279.891 158.261C279.891 157.628 280.22 156.995 280.879 156.361C280.853 156.032 280.765 155.791 280.613 155.639C280.486 155.487 280.296 155.411 280.043 155.411C279.08 155.411 278.257 155.981 277.573 157.121C276.889 158.236 276.547 159.401 276.547 160.617C276.547 162.289 277.193 163.125 278.485 163.125ZM291.725 165.557C290.154 165.557 288.774 165.253 287.583 164.645C286.418 164.012 285.607 163.227 285.151 162.289C286.266 160.364 287.748 157.501 289.597 153.701C290.002 152.916 290.585 152.523 291.345 152.523C291.725 152.523 292.042 152.65 292.295 152.903C292.574 153.131 292.713 153.435 292.713 153.815C292.713 154.17 292.637 154.474 292.485 154.727C292.333 154.981 292.257 155.234 292.257 155.487C292.257 155.741 292.536 156.209 293.093 156.893C293.65 157.577 294.195 158.337 294.727 159.173C295.284 160.009 295.563 160.744 295.563 161.377C295.563 161.985 295.424 162.517 295.145 162.973C296.31 162.593 297.552 161.58 298.869 159.933C299.021 159.781 299.198 159.705 299.401 159.705C299.629 159.705 299.87 159.883 300.123 160.237C300.402 160.567 300.541 160.858 300.541 161.111C300.541 161.339 300.49 161.555 300.389 161.757C299.654 162.897 298.552 163.822 297.083 164.531C295.614 165.215 293.828 165.557 291.725 165.557ZM290.775 163.391C290.775 163.391 290.826 163.391 290.927 163.391C292.194 163.391 292.827 162.821 292.827 161.681C292.827 160.541 292.219 159.072 291.003 157.273L288.495 162.365C289.382 163.049 290.142 163.391 290.775 163.391Z" fill="#DF893F"/>
</svg>
